<ttFont>
    <TTGlyph name="A" xMin="90" yMin="1" xMax="1283" yMax="1411">
      <contour>
        <pt x="491" y="608" on="1"/>
        <pt x="491" y="596" on="1"/>
        <pt x="491" y="575" on="0"/>
        <pt x="628" y="575" on="1"/>
        <pt x="713" y="575" on="1"/>
        <pt x="838" y="575" on="0"/>
        <pt x="838" y="594" on="1"/>
        <pt x="838" y="606" on="1"/>
        <pt x="838" y="695" on="0"/>
        <pt x="697" y="1062" on="1"/>
        <pt x="678" y="1112" on="0"/>
        <pt x="671" y="1112" on="1"/>
        <pt x="669" y="1112" on="0"/>
        <pt x="652" y="1069" on="0"/>
        <pt x="640" y="1043" on="1"/>
        <pt x="491" y="720" on="0"/>
      </contour>
      <contour>
        <pt x="1283" y="165" on="1"/>
        <pt x="1283" y="145" on="1"/>
        <pt x="1283" y="55" on="0"/>
        <pt x="1232" y="22" on="1"/>
        <pt x="1199" y="1" on="0"/>
        <pt x="1119" y="1" on="1"/>
        <pt x="1095" y="1" on="1"/>
        <pt x="1013" y="1" on="0"/>
        <pt x="985" y="50" on="1"/>
        <pt x="971" y="74" on="0"/>
        <pt x="937" y="306" on="0"/>
        <pt x="853" y="394" on="0"/>
        <pt x="737" y="394" on="1"/>
        <pt x="473" y="394" on="0"/>
        <pt x="381" y="312" on="0"/>
        <pt x="341" y="61" on="0"/>
        <pt x="331" y="46" on="1"/>
        <pt x="305" y="6" on="0"/>
        <pt x="149" y="6" on="0"/>
        <pt x="90" y="90" on="0"/>
        <pt x="90" y="159" on="1"/>
        <pt x="90" y="190" on="0"/>
        <pt x="174" y="358" on="1"/>
        <pt x="182" y="373" on="0"/>
        <pt x="468" y="1202" on="0"/>
        <pt x="547" y="1365" on="0"/>
        <pt x="621" y="1411" on="0"/>
        <pt x="768" y="1411" on="0"/>
        <pt x="834" y="1340" on="0"/>
        <pt x="937" y="1120" on="0"/>
        <pt x="1118" y="618" on="0"/>
        <pt x="1202" y="361" on="0"/>
        <pt x="1209" y="344" on="1"/>
        <pt x="1283" y="174" on="0"/>
      </contour>
    </TTGlyph>
    <TTGlyph name="AE" xMin="135" yMin="21" xMax="1721" yMax="1368">
      <contour>
        <pt x="834" y="706" on="1"/>
        <pt x="844" y="786" on="0"/>
        <pt x="844" y="822" on="1"/>
        <pt x="847" y="859" on="1"/>
        <pt x="852" y="904" on="0"/>
        <pt x="854" y="940" on="0"/>
        <pt x="855" y="954" on="1"/>
        <pt x="858" y="994" on="0"/>
        <pt x="858" y="1005" on="1"/>
        <pt x="860" y="1013" on="1"/>
        <pt x="863" y="1028" on="1"/>
        <pt x="867" y="1056" on="1"/>
        <pt x="873" y="1084" on="0"/>
        <pt x="873" y="1097" on="1"/>
        <pt x="876" y="1129" on="1"/>
        <pt x="876" y="1135" on="1"/>
        <pt x="876" y="1146" on="0"/>
        <pt x="865" y="1146" on="1"/>
        <pt x="827" y="1146" on="0"/>
        <pt x="732" y="1008" on="0"/>
        <pt x="688" y="819" on="0"/>
        <pt x="561" y="622" on="0"/>
        <pt x="561" y="610" on="0"/>
        <pt x="574" y="610" on="1"/>
        <pt x="628" y="618" on="1"/>
        <pt x="716" y="593" on="0"/>
        <pt x="775" y="593" on="1"/>
        <pt x="809" y="591" on="1"/>
        <pt x="816" y="590" on="1"/>
        <pt x="822" y="590" on="1"/>
        <pt x="842" y="590" on="0"/>
        <pt x="842" y="642" on="1"/>
      </contour>
      <contour>
        <pt x="1467" y="836" on="1"/>
        <pt x="1593" y="836" on="0"/>
        <pt x="1593" y="598" on="0"/>
        <pt x="1526" y="598" on="1"/>
        <pt x="1380" y="610" on="1"/>
        <pt x="1257" y="610" on="0"/>
        <pt x="1173" y="534" on="0"/>
        <pt x="1173" y="446" on="1"/>
        <pt x="1173" y="303" on="0"/>
        <pt x="1226" y="247" on="1"/>
        <pt x="1250" y="222" on="0"/>
        <pt x="1321" y="222" on="1"/>
        <pt x="1585" y="243" on="1"/>
        <pt x="1662" y="243" on="0"/>
        <pt x="1721" y="200" on="0"/>
        <pt x="1721" y="155" on="1"/>
        <pt x="1721" y="82" on="0"/>
        <pt x="1608" y="21" on="0"/>
        <pt x="1077" y="21" on="0"/>
        <pt x="962" y="58" on="1"/>
        <pt x="876" y="86" on="0"/>
        <pt x="876" y="168" on="1"/>
        <pt x="878" y="204" on="1"/>
        <pt x="883" y="263" on="0"/>
        <pt x="883" y="275" on="1"/>
        <pt x="883" y="365" on="0"/>
        <pt x="802" y="420" on="0"/>
        <pt x="730" y="420" on="1"/>
        <pt x="569" y="420" on="0"/>
        <pt x="506" y="365" on="1"/>
        <pt x="464" y="329" on="0"/>
        <pt x="394" y="166" on="1"/>
        <pt x="382" y="134" on="1"/>
        <pt x="363" y="86" on="0"/>
        <pt x="360" y="81" on="1"/>
        <pt x="333" y="33" on="0"/>
        <pt x="199" y="33" on="0"/>
        <pt x="135" y="99" on="0"/>
        <pt x="135" y="156" on="1"/>
        <pt x="135" y="164" on="0"/>
        <pt x="475" y="909" on="0"/>
        <pt x="607" y="1134" on="1"/>
        <pt x="625" y="1165" on="0"/>
        <pt x="678" y="1269" on="0"/>
        <pt x="692" y="1286" on="1"/>
        <pt x="740" y="1344" on="0"/>
        <pt x="930" y="1365" on="0"/>
        <pt x="1230" y="1365" on="1"/>
        <pt x="1363" y="1367" on="1"/>
        <pt x="1408" y="1368" on="1"/>
        <pt x="1452" y="1368" on="1"/>
        <pt x="1594" y="1368" on="0"/>
        <pt x="1687" y="1311" on="0"/>
        <pt x="1687" y="1222" on="1"/>
        <pt x="1687" y="1157" on="0"/>
        <pt x="1621" y="1157" on="1"/>
        <pt x="1587" y="1157" on="0"/>
        <pt x="1380" y="1185" on="0"/>
        <pt x="1219" y="1185" on="0"/>
        <pt x="1156" y="1086" on="0"/>
        <pt x="1156" y="947" on="1"/>
        <pt x="1156" y="878" on="0"/>
        <pt x="1223" y="818" on="0"/>
        <pt x="1318" y="818" on="1"/>
      </contour>
    </TTGlyph>
    <TTGlyph name="Aacute" xMin="67" yMin="7" xMax="1271" yMax="1861">
      <contour>
        <pt x="467" y="609" on="1"/>
        <pt x="467" y="597" on="1"/>
        <pt x="467" y="578" on="0"/>
        <pt x="537" y="578" on="1"/>
        <pt x="676" y="578" on="1"/>
        <pt x="818" y="578" on="0"/>
        <pt x="818" y="597" on="1"/>
        <pt x="818" y="608" on="1"/>
        <pt x="818" y="682" on="0"/>
        <pt x="671" y="1064" on="1"/>
        <pt x="651" y="1115" on="0"/>
        <pt x="648" y="1115" on="1"/>
        <pt x="644" y="1115" on="1"/>
        <pt x="639" y="1115" on="0"/>
        <pt x="467" y="634" on="0"/>
      </contour>
      <contour>
        <pt x="586" y="1518" on="1"/>
        <pt x="569" y="1518" on="1"/>
        <pt x="518" y="1518" on="0"/>
        <pt x="518" y="1555" on="1"/>
        <pt x="518" y="1572" on="1"/>
        <pt x="518" y="1592" on="0"/>
        <pt x="630" y="1752" on="0"/>
        <pt x="771" y="1861" on="0"/>
        <pt x="846" y="1861" on="1"/>
        <pt x="870" y="1861" on="1"/>
        <pt x="898" y="1861" on="0"/>
        <pt x="957" y="1822" on="0"/>
        <pt x="957" y="1804" on="1"/>
        <pt x="957" y="1793" on="1"/>
        <pt x="957" y="1733" on="0"/>
        <pt x="757" y="1593" on="1"/>
        <pt x="650" y="1518" on="0"/>
      </contour>
      <contour>
        <pt x="1271" y="177" on="1"/>
        <pt x="1271" y="156" on="1"/>
        <pt x="1271" y="67" on="0"/>
        <pt x="1223" y="31" on="1"/>
        <pt x="1191" y="7" on="0"/>
        <pt x="1111" y="7" on="1"/>
        <pt x="1085" y="7" on="1"/>
        <pt x="984" y="7" on="0"/>
        <pt x="953" y="64" on="1"/>
        <pt x="946" y="77" on="0"/>
        <pt x="910" y="318" on="0"/>
        <pt x="827" y="391" on="0"/>
        <pt x="439" y="391" on="0"/>
        <pt x="373" y="314" on="0"/>
        <pt x="340" y="70" on="0"/>
        <pt x="331" y="54" on="1"/>
        <pt x="303" y="7" on="0"/>
        <pt x="120" y="7" on="0"/>
        <pt x="100" y="37" on="1"/>
        <pt x="67" y="86" on="0"/>
        <pt x="67" y="155" on="1"/>
        <pt x="67" y="159" on="0"/>
        <pt x="166" y="402" on="1"/>
        <pt x="171" y="415" on="0"/>
        <pt x="430" y="1191" on="0"/>
        <pt x="516" y="1371" on="0"/>
        <pt x="584" y="1406" on="0"/>
        <pt x="651" y="1406" on="1"/>
        <pt x="705" y="1406" on="1"/>
        <pt x="771" y="1406" on="0"/>
        <pt x="845" y="1323" on="0"/>
        <pt x="943" y="1108" on="0"/>
        <pt x="1164" y="419" on="0"/>
        <pt x="1197" y="350" on="1"/>
        <pt x="1271" y="195" on="0"/>
      </contour>
    </TTGlyph>
    <TTGlyph name="Acircumflex" xMin="69" yMin="4" xMax="1274" yMax="1855">
      <contour>
        <pt x="563" y="568" on="1"/>
        <pt x="725" y="568" on="1"/>
        <pt x="822" y="568" on="0"/>
        <pt x="822" y="590" on="1"/>
        <pt x="822" y="593" on="0"/>
        <pt x="738" y="906" on="0"/>
        <pt x="648" y="1103" on="0"/>
        <pt x="640" y="1103" on="0"/>
        <pt x="470" y="627" on="0"/>
        <pt x="470" y="593" on="1"/>
        <pt x="470" y="568" on="0"/>
      </contour>
      <contour>
        <pt x="993" y="1567" on="1"/>
        <pt x="993" y="1560" on="1"/>
        <pt x="993" y="1520" on="0"/>
        <pt x="847" y="1520" on="0"/>
        <pt x="782" y="1580" on="1"/>
        <pt x="678" y="1676" on="0"/>
        <pt x="666" y="1676" on="0"/>
        <pt x="495" y="1518" on="0"/>
        <pt x="435" y="1518" on="1"/>
        <pt x="427" y="1518" on="1"/>
        <pt x="419" y="1519" on="1"/>
        <pt x="350" y="1519" on="0"/>
        <pt x="350" y="1550" on="1"/>
        <pt x="350" y="1557" on="1"/>
        <pt x="350" y="1623" on="0"/>
        <pt x="548" y="1806" on="1"/>
        <pt x="601" y="1855" on="0"/>
        <pt x="672" y="1855" on="1"/>
        <pt x="681" y="1855" on="1"/>
        <pt x="746" y="1855" on="0"/>
        <pt x="796" y="1809" on="1"/>
        <pt x="993" y="1627" on="0"/>
      </contour>
      <contour>
        <pt x="1274" y="173" on="1"/>
        <pt x="1274" y="152" on="1"/>
        <pt x="1274" y="80" on="0"/>
        <pt x="1213" y="4" on="0"/>
        <pt x="1115" y="4" on="1"/>
        <pt x="1088" y="4" on="1"/>
        <pt x="1001" y="4" on="0"/>
        <pt x="966" y="46" on="1"/>
        <pt x="947" y="69" on="0"/>
        <pt x="914" y="313" on="0"/>
        <pt x="828" y="388" on="0"/>
        <pt x="454" y="388" on="0"/>
        <pt x="425" y="367" on="1"/>
        <pt x="381" y="336" on="0"/>
        <pt x="332" y="55" on="0"/>
        <pt x="330" y="51" on="1"/>
        <pt x="305" y="4" on="0"/>
        <pt x="119" y="4" on="0"/>
        <pt x="100" y="34" on="1"/>
        <pt x="69" y="82" on="0"/>
        <pt x="69" y="153" on="1"/>
        <pt x="69" y="192" on="0"/>
        <pt x="146" y="353" on="1"/>
        <pt x="169" y="401" on="0"/>
        <pt x="425" y="1168" on="0"/>
        <pt x="515" y="1366" on="0"/>
        <pt x="590" y="1403" on="0"/>
        <pt x="761" y="1403" on="0"/>
        <pt x="824" y="1352" on="0"/>
        <pt x="914" y="1181" on="0"/>
        <pt x="1159" y="445" on="1"/>
        <pt x="1185" y="367" on="0"/>
        <pt x="1274" y="211" on="0"/>
      </contour>
    </TTGlyph>
    <TTGlyph name="Adieresis" xMin="66" yMin="7" xMax="1270" yMax="1794">
      <contour>
        <pt x="542" y="578" on="1"/>
        <pt x="735" y="578" on="1"/>
        <pt x="815" y="578" on="0"/>
        <pt x="815" y="596" on="1"/>
        <pt x="815" y="601" on="1"/>
        <pt x="815" y="647" on="0"/>
        <pt x="669" y="1056" on="1"/>
        <pt x="648" y="1115" on="0"/>
        <pt x="634" y="1115" on="0"/>
        <pt x="611" y="1051" on="1"/>
        <pt x="465" y="642" on="0"/>
        <pt x="465" y="603" on="1"/>
        <pt x="465" y="597" on="1"/>
        <pt x="465" y="578" on="0"/>
      </contour>
      <contour>
        <pt x="414" y="1542" on="1"/>
        <pt x="333" y="1542" on="0"/>
        <pt x="333" y="1651" on="1"/>
        <pt x="333" y="1679" on="1"/>
        <pt x="333" y="1791" on="0"/>
        <pt x="428" y="1791" on="1"/>
        <pt x="454" y="1794" on="1"/>
        <pt x="481" y="1794" on="1"/>
        <pt x="499" y="1792" on="1"/>
        <pt x="520" y="1789" on="1"/>
        <pt x="587" y="1789" on="0"/>
        <pt x="587" y="1716" on="1"/>
        <pt x="590" y="1704" on="0"/>
        <pt x="590" y="1703" on="1"/>
        <pt x="592" y="1681" on="1"/>
        <pt x="592" y="1649" on="1"/>
        <pt x="588" y="1618" on="1"/>
        <pt x="588" y="1543" on="0"/>
        <pt x="507" y="1543" on="1"/>
        <pt x="503" y="1542" on="1"/>
        <pt x="498" y="1541" on="1"/>
        <pt x="462" y="1538" on="1"/>
        <pt x="453" y="1538" on="1"/>
        <pt x="449" y="1539" on="1"/>
        <pt x="435" y="1539" on="1"/>
        <pt x="416" y="1542" on="0"/>
      </contour>
      <contour>
        <pt x="856" y="1787" on="1"/>
        <pt x="900" y="1787" on="1"/>
        <pt x="915" y="1784" on="0"/>
        <pt x="922" y="1784" on="1"/>
        <pt x="1002" y="1784" on="0"/>
        <pt x="1002" y="1676" on="1"/>
        <pt x="1002" y="1648" on="1"/>
        <pt x="1002" y="1580" on="0"/>
        <pt x="942" y="1530" on="0"/>
        <pt x="869" y="1530" on="1"/>
        <pt x="864" y="1531" on="1"/>
        <pt x="846" y="1531" on="1"/>
        <pt x="826" y="1534" on="0"/>
        <pt x="825" y="1534" on="1"/>
        <pt x="745" y="1534" on="0"/>
        <pt x="745" y="1637" on="1"/>
        <pt x="745" y="1674" on="1"/>
        <pt x="749" y="1705" on="1"/>
        <pt x="749" y="1741" on="0"/>
        <pt x="804" y="1787" on="0"/>
      </contour>
      <contour>
        <pt x="1270" y="177" on="1"/>
        <pt x="1270" y="156" on="1"/>
        <pt x="1270" y="67" on="0"/>
        <pt x="1222" y="31" on="1"/>
        <pt x="1190" y="7" on="0"/>
        <pt x="1110" y="7" on="1"/>
        <pt x="1084" y="7" on="1"/>
        <pt x="982" y="7" on="0"/>
        <pt x="952" y="64" on="1"/>
        <pt x="946" y="76" on="0"/>
        <pt x="909" y="319" on="0"/>
        <pt x="826" y="391" on="0"/>
        <pt x="437" y="391" on="0"/>
        <pt x="372" y="313" on="0"/>
        <pt x="339" y="71" on="0"/>
        <pt x="330" y="54" on="1"/>
        <pt x="304" y="7" on="0"/>
        <pt x="119" y="7" on="0"/>
        <pt x="99" y="37" on="1"/>
        <pt x="66" y="87" on="0"/>
        <pt x="66" y="155" on="1"/>
        <pt x="66" y="164" on="0"/>
        <pt x="165" y="402" on="1"/>
        <pt x="183" y="446" on="0"/>
        <pt x="425" y="1186" on="0"/>
        <pt x="516" y="1371" on="0"/>
        <pt x="584" y="1407" on="0"/>
        <pt x="758" y="1407" on="0"/>
        <pt x="828" y="1349" on="0"/>
        <pt x="929" y="1142" on="0"/>
        <pt x="1159" y="439" on="0"/>
        <pt x="1194" y="350" on="0"/>
        <pt x="1270" y="219" on="0"/>
      </contour>
    </TTGlyph>
    <TTGlyph name="Agrave" xMin="69" yMin="5" xMax="1274" yMax="1865">
      <contour>
        <pt x="563" y="569" on="1"/>
        <pt x="702" y="569" on="1"/>
        <pt x="822" y="569" on="0"/>
        <pt x="822" y="591" on="1"/>
        <pt x="822" y="594" on="0"/>
        <pt x="738" y="907" on="0"/>
        <pt x="648" y="1104" on="0"/>
        <pt x="640" y="1104" on="0"/>
        <pt x="470" y="628" on="0"/>
        <pt x="470" y="594" on="1"/>
        <pt x="470" y="569" on="0"/>
      </contour>
      <contour>
        <pt x="383" y="1797" on="1"/>
        <pt x="383" y="1807" on="1"/>
        <pt x="383" y="1821" on="0"/>
        <pt x="439" y="1865" on="0"/>
        <pt x="479" y="1865" on="1"/>
        <pt x="491" y="1865" on="1"/>
        <pt x="497" y="1864" on="1"/>
        <pt x="585" y="1864" on="0"/>
        <pt x="719" y="1744" on="0"/>
        <pt x="798" y="1632" on="1"/>
        <pt x="823" y="1596" on="0"/>
        <pt x="823" y="1568" on="1"/>
        <pt x="823" y="1563" on="1"/>
        <pt x="823" y="1520" on="0"/>
        <pt x="770" y="1520" on="1"/>
        <pt x="758" y="1520" on="1"/>
        <pt x="752" y="1521" on="1"/>
        <pt x="682" y="1521" on="0"/>
        <pt x="579" y="1593" on="1"/>
        <pt x="383" y="1730" on="0"/>
      </contour>
      <contour>
        <pt x="1274" y="174" on="1"/>
        <pt x="1274" y="153" on="1"/>
        <pt x="1274" y="81" on="0"/>
        <pt x="1213" y="5" on="0"/>
        <pt x="1115" y="5" on="1"/>
        <pt x="1088" y="5" on="1"/>
        <pt x="1001" y="5" on="0"/>
        <pt x="966" y="47" on="1"/>
        <pt x="947" y="70" on="0"/>
        <pt x="914" y="314" on="0"/>
        <pt x="828" y="389" on="0"/>
        <pt x="454" y="389" on="0"/>
        <pt x="425" y="368" on="1"/>
        <pt x="381" y="337" on="0"/>
        <pt x="332" y="56" on="0"/>
        <pt x="330" y="52" on="1"/>
        <pt x="305" y="5" on="0"/>
        <pt x="119" y="5" on="0"/>
        <pt x="100" y="35" on="1"/>
        <pt x="69" y="83" on="0"/>
        <pt x="69" y="155" on="1"/>
        <pt x="69" y="193" on="0"/>
        <pt x="146" y="354" on="1"/>
        <pt x="169" y="402" on="0"/>
        <pt x="425" y="1169" on="0"/>
        <pt x="515" y="1367" on="0"/>
        <pt x="590" y="1404" on="0"/>
        <pt x="761" y="1404" on="0"/>
        <pt x="824" y="1353" on="0"/>
        <pt x="914" y="1182" on="0"/>
        <pt x="1159" y="446" on="1"/>
        <pt x="1185" y="368" on="0"/>
        <pt x="1274" y="212" on="0"/>
      </contour>
    </TTGlyph>
    <TTGlyph name="Aring" xMin="70" yMin="27" xMax="1312" yMax="1930">
      <contour>
        <pt x="587" y="1707" on="1"/>
        <pt x="587" y="1671" on="0"/>
        <pt x="642" y="1616" on="0"/>
        <pt x="676" y="1616" on="1"/>
        <pt x="696" y="1616" on="1"/>
        <pt x="737" y="1616" on="0"/>
        <pt x="783" y="1674" on="0"/>
        <pt x="783" y="1696" on="1"/>
        <pt x="785" y="1709" on="1"/>
        <pt x="785" y="1726" on="1"/>
        <pt x="781" y="1749" on="1"/>
        <pt x="781" y="1761" on="0"/>
        <pt x="735" y="1818" on="0"/>
        <pt x="687" y="1818" on="1"/>
        <pt x="683" y="1818" on="1"/>
        <pt x="651" y="1813" on="1"/>
        <pt x="632" y="1813" on="0"/>
        <pt x="589" y="1760" on="0"/>
        <pt x="589" y="1737" on="1"/>
        <pt x="587" y="1724" on="1"/>
      </contour>
      <contour>
        <pt x="577" y="595" on="1"/>
        <pt x="759" y="595" on="1"/>
        <pt x="844" y="595" on="0"/>
        <pt x="844" y="615" on="1"/>
        <pt x="844" y="621" on="1"/>
        <pt x="844" y="748" on="0"/>
        <pt x="697" y="1066" on="1"/>
        <pt x="667" y="1132" on="0"/>
        <pt x="661" y="1132" on="0"/>
        <pt x="627" y="1058" on="1"/>
        <pt x="482" y="744" on="0"/>
        <pt x="482" y="620" on="1"/>
        <pt x="482" y="614" on="1"/>
        <pt x="482" y="595" on="0"/>
      </contour>
      <contour>
        <pt x="678" y="1930" on="1"/>
        <pt x="692" y="1930" on="1"/>
        <pt x="784" y="1930" on="0"/>
        <pt x="911" y="1815" on="0"/>
        <pt x="911" y="1727" on="1"/>
        <pt x="911" y="1712" on="1"/>
        <pt x="911" y="1622" on="0"/>
        <pt x="781" y="1505" on="0"/>
        <pt x="702" y="1505" on="1"/>
        <pt x="666" y="1505" on="1"/>
        <pt x="587" y="1505" on="0"/>
        <pt x="462" y="1618" on="0"/>
        <pt x="462" y="1701" on="1"/>
        <pt x="462" y="1730" on="1"/>
        <pt x="462" y="1813" on="0"/>
        <pt x="592" y="1930" on="0"/>
      </contour>
      <contour>
        <pt x="1312" y="172" on="1"/>
        <pt x="1312" y="87" on="0"/>
        <pt x="1253" y="49" on="1"/>
        <pt x="1219" y="27" on="0"/>
        <pt x="1137" y="27" on="1"/>
        <pt x="1110" y="27" on="1"/>
        <pt x="1002" y="27" on="0"/>
        <pt x="972" y="82" on="1"/>
        <pt x="968" y="90" on="0"/>
        <pt x="937" y="329" on="0"/>
        <pt x="841" y="419" on="0"/>
        <pt x="462" y="419" on="0"/>
        <pt x="385" y="340" on="0"/>
        <pt x="359" y="91" on="0"/>
        <pt x="343" y="67" on="1"/>
        <pt x="318" y="28" on="0"/>
        <pt x="144" y="28" on="0"/>
        <pt x="122" y="49" on="1"/>
        <pt x="70" y="99" on="0"/>
        <pt x="70" y="233" on="0"/>
        <pt x="156" y="380" on="0"/>
        <pt x="201" y="492" on="0"/>
        <pt x="430" y="1205" on="0"/>
        <pt x="517" y="1385" on="0"/>
        <pt x="600" y="1429" on="0"/>
        <pt x="686" y="1429" on="1"/>
        <pt x="714" y="1429" on="1"/>
        <pt x="788" y="1429" on="0"/>
        <pt x="878" y="1344" on="0"/>
        <pt x="978" y="1130" on="0"/>
        <pt x="1200" y="437" on="0"/>
        <pt x="1231" y="370" on="1"/>
        <pt x="1312" y="193" on="0"/>
      </contour>
    </TTGlyph>
    <TTGlyph name="Atilde" xMin="70" yMin="5" xMax="1282" yMax="1803">
      <contour>
        <pt x="474" y="611" on="1"/>
        <pt x="474" y="599" on="1"/>
        <pt x="474" y="578" on="0"/>
        <pt x="629" y="578" on="1"/>
        <pt x="754" y="578" on="1"/>
        <pt x="830" y="578" on="0"/>
        <pt x="830" y="600" on="1"/>
        <pt x="830" y="606" on="1"/>
        <pt x="830" y="636" on="0"/>
        <pt x="658" y="1118" on="0"/>
        <pt x="650" y="1118" on="0"/>
        <pt x="623" y="1054" on="1"/>
        <pt x="474" y="706" on="0"/>
      </contour>
      <contour>
        <pt x="501" y="1803" on="1"/>
        <pt x="527" y="1803" on="1"/>
        <pt x="572" y="1803" on="0"/>
        <pt x="801" y="1714" on="0"/>
        <pt x="859" y="1714" on="0"/>
        <pt x="950" y="1784" on="0"/>
        <pt x="992" y="1784" on="1"/>
        <pt x="1040" y="1784" on="0"/>
        <pt x="1040" y="1655" on="0"/>
        <pt x="929" y="1535" on="0"/>
        <pt x="860" y="1535" on="1"/>
        <pt x="825" y="1535" on="1"/>
        <pt x="772" y="1535" on="0"/>
        <pt x="570" y="1625" on="0"/>
        <pt x="491" y="1625" on="0"/>
        <pt x="406" y="1553" on="0"/>
        <pt x="312" y="1553" on="0"/>
        <pt x="312" y="1602" on="1"/>
        <pt x="312" y="1621" on="1"/>
        <pt x="312" y="1689" on="0"/>
        <pt x="435" y="1803" on="0"/>
      </contour>
      <contour>
        <pt x="1282" y="172" on="1"/>
        <pt x="1282" y="152" on="1"/>
        <pt x="1282" y="64" on="0"/>
        <pt x="1232" y="28" on="1"/>
        <pt x="1200" y="5" on="0"/>
        <pt x="993" y="5" on="0"/>
        <pt x="961" y="63" on="1"/>
        <pt x="957" y="69" on="0"/>
        <pt x="920" y="318" on="0"/>
        <pt x="835" y="390" on="0"/>
        <pt x="631" y="390" on="1"/>
        <pt x="576" y="390" on="1"/>
        <pt x="549" y="389" on="1"/>
        <pt x="522" y="388" on="0"/>
        <pt x="496" y="388" on="1"/>
        <pt x="431" y="388" on="0"/>
        <pt x="372" y="278" on="0"/>
        <pt x="347" y="61" on="0"/>
        <pt x="296" y="5" on="0"/>
        <pt x="140" y="5" on="0"/>
        <pt x="115" y="22" on="1"/>
        <pt x="70" y="52" on="0"/>
        <pt x="70" y="153" on="1"/>
        <pt x="70" y="159" on="0"/>
        <pt x="161" y="377" on="1"/>
        <pt x="190" y="447" on="0"/>
        <pt x="430" y="1180" on="0"/>
        <pt x="521" y="1371" on="0"/>
        <pt x="591" y="1408" on="0"/>
        <pt x="766" y="1408" on="0"/>
        <pt x="835" y="1350" on="0"/>
        <pt x="922" y="1185" on="0"/>
        <pt x="1160" y="470" on="1"/>
        <pt x="1190" y="380" on="0"/>
        <pt x="1282" y="211" on="0"/>
      </contour>
    </TTGlyph>
    <TTGlyph name="B" xMin="123" yMin="-8" xMax="1193" yMax="1412">
      <contour>
        <pt x="440" y="1120" on="1"/>
        <pt x="440" y="931" on="1"/>
        <pt x="440" y="859" on="0"/>
        <pt x="460" y="819" on="0"/>
        <pt x="502" y="819" on="1"/>
        <pt x="600" y="819" on="1"/>
        <pt x="608" y="820" on="1"/>
        <pt x="639" y="821" on="1"/>
        <pt x="678" y="824" on="1"/>
        <pt x="755" y="824" on="0"/>
        <pt x="860" y="940" on="0"/>
        <pt x="860" y="1012" on="1"/>
        <pt x="860" y="1045" on="1"/>
        <pt x="860" y="1121" on="0"/>
        <pt x="754" y="1227" on="0"/>
        <pt x="668" y="1227" on="1"/>
        <pt x="652" y="1229" on="0"/>
        <pt x="644" y="1229" on="1"/>
        <pt x="605" y="1231" on="1"/>
        <pt x="543" y="1231" on="1"/>
        <pt x="471" y="1231" on="0"/>
        <pt x="440" y="1196" on="0"/>
      </contour>
      <contour>
        <pt x="439" y="299" on="1"/>
        <pt x="439" y="208" on="0"/>
        <pt x="486" y="175" on="0"/>
        <pt x="589" y="175" on="1"/>
        <pt x="661" y="175" on="1"/>
        <pt x="796" y="175" on="0"/>
        <pt x="921" y="300" on="0"/>
        <pt x="921" y="401" on="1"/>
        <pt x="921" y="420" on="1"/>
        <pt x="919" y="438" on="0"/>
        <pt x="919" y="447" on="1"/>
        <pt x="919" y="523" on="0"/>
        <pt x="788" y="642" on="0"/>
        <pt x="692" y="642" on="1"/>
        <pt x="674" y="644" on="0"/>
        <pt x="665" y="644" on="1"/>
        <pt x="621" y="646" on="1"/>
        <pt x="560" y="646" on="1"/>
        <pt x="467" y="646" on="0"/>
        <pt x="440" y="604" on="0"/>
        <pt x="440" y="500" on="1"/>
        <pt x="440" y="384" on="1"/>
        <pt x="439" y="350" on="1"/>
      </contour>
      <contour>
        <pt x="603" y="-8" on="1"/>
        <pt x="578" y="-8" on="1"/>
        <pt x="552" y="-7" on="1"/>
        <pt x="502" y="-7" on="1"/>
        <pt x="429" y="-6" on="1"/>
        <pt x="226" y="-6" on="0"/>
        <pt x="188" y="2" on="1"/>
        <pt x="126" y="15" on="0"/>
        <pt x="126" y="60" on="1"/>
        <pt x="126" y="85" on="0"/>
        <pt x="170" y="239" on="0"/>
        <pt x="170" y="358" on="1"/>
        <pt x="172" y="480" on="1"/>
        <pt x="172" y="1022" on="1"/>
        <pt x="172" y="1124" on="0"/>
        <pt x="159" y="1185" on="1"/>
        <pt x="123" y="1319" on="1"/>
        <pt x="123" y="1377" on="0"/>
        <pt x="196" y="1406" on="0"/>
        <pt x="303" y="1406" on="1"/>
        <pt x="524" y="1411" on="1"/>
        <pt x="599" y="1412" on="1"/>
        <pt x="624" y="1412" on="1"/>
        <pt x="1005" y="1412" on="0"/>
        <pt x="1099" y="1197" on="1"/>
        <pt x="1124" y="1140" on="0"/>
        <pt x="1124" y="969" on="0"/>
        <pt x="1059" y="848" on="0"/>
        <pt x="1023" y="814" on="0"/>
        <pt x="951" y="754" on="0"/>
        <pt x="951" y="752" on="1"/>
        <pt x="952" y="750" on="0"/>
        <pt x="1020" y="707" on="1"/>
        <pt x="1193" y="599" on="0"/>
        <pt x="1193" y="408" on="1"/>
        <pt x="1192" y="-8" on="0"/>
      </contour>
    </TTGlyph>
    <TTGlyph name="C" xMin="100" yMin="-21" xMax="1199" yMax="1417">
      <contour>
        <pt x="384" y="734" on="1"/>
        <pt x="384" y="452" on="0"/>
        <pt x="475" y="330" on="1"/>
        <pt x="582" y="185" on="0"/>
        <pt x="771" y="185" on="1"/>
        <pt x="849" y="185" on="0"/>
        <pt x="1112" y="289" on="0"/>
        <pt x="1131" y="289" on="1"/>
        <pt x="1199" y="289" on="0"/>
        <pt x="1199" y="226" on="1"/>
        <pt x="1199" y="204" on="1"/>
        <pt x="1199" y="173" on="0"/>
        <pt x="1114" y="78" on="0"/>
        <pt x="1032" y="41" on="1"/>
        <pt x="895" y="-21" on="0"/>
        <pt x="732" y="-21" on="1"/>
        <pt x="700" y="-21" on="1"/>
        <pt x="580" y="-21" on="0"/>
        <pt x="452" y="33" on="1"/>
        <pt x="100" y="182" on="0"/>
        <pt x="100" y="690" on="1"/>
        <pt x="100" y="724" on="1"/>
        <pt x="100" y="862" on="0"/>
        <pt x="188" y="1136" on="0"/>
        <pt x="339" y="1305" on="0"/>
        <pt x="589" y="1417" on="0"/>
        <pt x="697" y="1417" on="1"/>
        <pt x="760" y="1417" on="1"/>
        <pt x="994" y="1417" on="0"/>
        <pt x="1185" y="1289" on="0"/>
        <pt x="1185" y="1194" on="1"/>
        <pt x="1185" y="1133" on="0"/>
        <pt x="1138" y="1077" on="0"/>
        <pt x="1066" y="1077" on="0"/>
        <pt x="833" y="1189" on="0"/>
        <pt x="794" y="1198" on="1"/>
        <pt x="751" y="1208" on="0"/>
        <pt x="710" y="1208" on="1"/>
        <pt x="640" y="1208" on="0"/>
        <pt x="576" y="1178" on="1"/>
        <pt x="384" y="1086" on="0"/>
      </contour>
    </TTGlyph>
    <TTGlyph name="Ccedilla" xMin="79" yMin="-468" xMax="1246" yMax="1435">
      <contour>
        <pt x="530" y="-395" on="1"/>
        <pt x="530" y="-381" on="1"/>
        <pt x="530" y="-352" on="0"/>
        <pt x="585" y="-352" on="1"/>
        <pt x="615" y="-350" on="1"/>
        <pt x="722" y="-350" on="0"/>
        <pt x="722" y="-279" on="1"/>
        <pt x="722" y="-237" on="0"/>
        <pt x="628" y="-177" on="0"/>
        <pt x="628" y="-143" on="1"/>
        <pt x="628" y="-39" on="0"/>
        <pt x="701" y="-39" on="1"/>
        <pt x="707" y="-39" on="1"/>
        <pt x="588" y="-33" on="0"/>
        <pt x="472" y="12" on="1"/>
        <pt x="338" y="64" on="0"/>
        <pt x="252" y="158" on="1"/>
        <pt x="79" y="349" on="0"/>
        <pt x="79" y="657" on="1"/>
        <pt x="79" y="659" on="0"/>
        <pt x="79" y="661" on="1"/>
        <pt x="79" y="697" on="1"/>
        <pt x="80" y="1209" on="0"/>
        <pt x="444" y="1375" on="1"/>
        <pt x="576" y="1435" on="0"/>
        <pt x="710" y="1435" on="1"/>
        <pt x="744" y="1435" on="1"/>
        <pt x="834" y="1435" on="0"/>
        <pt x="1072" y="1379" on="0"/>
        <pt x="1169" y="1327" on="0"/>
        <pt x="1237" y="1229" on="0"/>
        <pt x="1237" y="1123" on="0"/>
        <pt x="1197" y="1066" on="0"/>
        <pt x="1168" y="1066" on="1"/>
        <pt x="1090" y="1066" on="0"/>
        <pt x="966" y="1120" on="1"/>
        <pt x="844" y="1174" on="0"/>
        <pt x="762" y="1193" on="1"/>
        <pt x="727" y="1202" on="0"/>
        <pt x="695" y="1202" on="1"/>
        <pt x="652" y="1202" on="0"/>
        <pt x="615" y="1186" on="1"/>
        <pt x="517" y="1145" on="0"/>
        <pt x="413" y="924" on="0"/>
        <pt x="413" y="585" on="0"/>
        <pt x="435" y="488" on="1"/>
        <pt x="500" y="200" on="0"/>
        <pt x="734" y="200" on="1"/>
        <pt x="833" y="200" on="0"/>
        <pt x="1091" y="339" on="0"/>
        <pt x="1185" y="339" on="1"/>
        <pt x="1246" y="339" on="0"/>
        <pt x="1246" y="267" on="1"/>
        <pt x="1246" y="216" on="0"/>
        <pt x="1231" y="187" on="1"/>
        <pt x="1189" y="104" on="0"/>
        <pt x="1111" y="56" on="1"/>
        <pt x="955" y="-40" on="0"/>
        <pt x="745" y="-40" on="1"/>
        <pt x="740" y="-40" on="0"/>
        <pt x="736" y="-40" on="1"/>
        <pt x="790" y="-50" on="0"/>
        <pt x="879" y="-170" on="1"/>
        <pt x="907" y="-207" on="0"/>
        <pt x="907" y="-260" on="1"/>
        <pt x="907" y="-277" on="1"/>
        <pt x="907" y="-354" on="0"/>
        <pt x="783" y="-468" on="0"/>
        <pt x="680" y="-468" on="1"/>
        <pt x="645" y="-468" on="1"/>
        <pt x="589" y="-468" on="0"/>
        <pt x="551" y="-446" on="1"/>
        <pt x="530" y="-434" on="0"/>
      </contour>
    </TTGlyph>
    <TTGlyph name="D" xMin="124" yMin="-6" xMax="1300" yMax="1412">
      <contour>
        <pt x="1013" y="660" on="1"/>
        <pt x="1013" y="742" on="1"/>
        <pt x="1013" y="850" on="0"/>
        <pt x="985" y="948" on="1"/>
        <pt x="958" y="1046" on="0"/>
        <pt x="912" y="1102" on="1"/>
        <pt x="807" y="1230" on="0"/>
        <pt x="613" y="1230" on="1"/>
        <pt x="583" y="1230" on="1"/>
        <pt x="569" y="1229" on="1"/>
        <pt x="481" y="1229" on="0"/>
        <pt x="437" y="1194" on="0"/>
        <pt x="435" y="1097" on="0"/>
        <pt x="435" y="1083" on="1"/>
        <pt x="434" y="1054" on="1"/>
        <pt x="434" y="950" on="1"/>
        <pt x="435" y="920" on="1"/>
        <pt x="435" y="607" on="1"/>
        <pt x="434" y="563" on="1"/>
        <pt x="434" y="474" on="1"/>
        <pt x="433" y="415" on="1"/>
        <pt x="433" y="328" on="1"/>
        <pt x="435" y="299" on="1"/>
        <pt x="436" y="284" on="0"/>
        <pt x="436" y="271" on="1"/>
        <pt x="436" y="210" on="0"/>
        <pt x="485" y="176" on="0"/>
        <pt x="566" y="176" on="1"/>
        <pt x="625" y="176" on="1"/>
        <pt x="812" y="176" on="0"/>
        <pt x="919" y="314" on="1"/>
        <pt x="956" y="362" on="0"/>
        <pt x="1013" y="555" on="0"/>
      </contour>
      <contour>
        <pt x="629" y="1412" on="1"/>
        <pt x="778" y="1412" on="0"/>
        <pt x="910" y="1366" on="1"/>
        <pt x="1166" y="1278" on="0"/>
        <pt x="1253" y="1022" on="1"/>
        <pt x="1300" y="884" on="0"/>
        <pt x="1300" y="738" on="1"/>
        <pt x="1300" y="686" on="1"/>
        <pt x="1300" y="534" on="0"/>
        <pt x="1253" y="396" on="1"/>
        <pt x="1161" y="126" on="0"/>
        <pt x="899" y="38" on="1"/>
        <pt x="770" y="-6" on="0"/>
        <pt x="617" y="-6" on="1"/>
        <pt x="470" y="-6" on="1"/>
        <pt x="305" y="-2" on="1"/>
        <pt x="201" y="-2" on="0"/>
        <pt x="126" y="20" on="0"/>
        <pt x="126" y="97" on="0"/>
        <pt x="168" y="210" on="0"/>
        <pt x="175" y="319" on="0"/>
        <pt x="175" y="752" on="1"/>
        <pt x="175" y="1129" on="1"/>
        <pt x="170" y="1187" on="0"/>
        <pt x="124" y="1314" on="0"/>
        <pt x="124" y="1380" on="0"/>
        <pt x="193" y="1405" on="0"/>
        <pt x="294" y="1405" on="1"/>
        <pt x="505" y="1412" on="1"/>
      </contour>
    </TTGlyph>
    <TTGlyph name="E" xMin="136" yMin="-4" xMax="1094" yMax="1405">
      <contour>
        <pt x="1068" y="1284" on="1"/>
        <pt x="1068" y="1171" on="0"/>
        <pt x="964" y="1171" on="1"/>
        <pt x="951" y="1172" on="0"/>
        <pt x="727" y="1200" on="0"/>
        <pt x="526" y="1200" on="0"/>
        <pt x="466" y="1104" on="0"/>
        <pt x="466" y="935" on="1"/>
        <pt x="466" y="880" on="0"/>
        <pt x="537" y="820" on="0"/>
        <pt x="632" y="820" on="1"/>
        <pt x="658" y="820" on="0"/>
        <pt x="784" y="849" on="0"/>
        <pt x="828" y="849" on="1"/>
        <pt x="934" y="849" on="0"/>
        <pt x="934" y="752" on="1"/>
        <pt x="934" y="681" on="0"/>
        <pt x="923" y="651" on="1"/>
        <pt x="905" y="601" on="0"/>
        <pt x="810" y="601" on="0"/>
        <pt x="682" y="628" on="0"/>
        <pt x="526" y="628" on="0"/>
        <pt x="454" y="562" on="0"/>
        <pt x="454" y="275" on="0"/>
        <pt x="527" y="187" on="0"/>
        <pt x="702" y="187" on="0"/>
        <pt x="960" y="234" on="0"/>
        <pt x="1033" y="234" on="0"/>
        <pt x="1094" y="190" on="0"/>
        <pt x="1094" y="42" on="0"/>
        <pt x="1025" y="15" on="1"/>
        <pt x="976" y="-4" on="0"/>
        <pt x="703" y="-4" on="1"/>
        <pt x="437" y="-4" on="1"/>
        <pt x="248" y="-4" on="0"/>
        <pt x="136" y="39" on="0"/>
        <pt x="136" y="107" on="1"/>
        <pt x="136" y="130" on="0"/>
        <pt x="176" y="270" on="0"/>
        <pt x="177" y="471" on="1"/>
        <pt x="177" y="672" on="0"/>
        <pt x="183" y="822" on="1"/>
        <pt x="188" y="934" on="1"/>
        <pt x="192" y="1033" on="0"/>
        <pt x="192" y="1147" on="0"/>
        <pt x="170" y="1212" on="1"/>
        <pt x="148" y="1276" on="0"/>
        <pt x="148" y="1348" on="0"/>
        <pt x="191" y="1380" on="0"/>
        <pt x="323" y="1404" on="0"/>
        <pt x="708" y="1404" on="1"/>
        <pt x="818" y="1405" on="1"/>
        <pt x="854" y="1405" on="1"/>
        <pt x="974" y="1405" on="0"/>
        <pt x="1068" y="1349" on="0"/>
      </contour>
    </TTGlyph>
    <TTGlyph name="Eacute" xMin="133" yMin="32" xMax="1087" yMax="1842">
      <contour>
        <pt x="537" y="1479" on="1"/>
        <pt x="527" y="1479" on="1"/>
        <pt x="472" y="1479" on="0"/>
        <pt x="472" y="1531" on="1"/>
        <pt x="472" y="1547" on="1"/>
        <pt x="472" y="1570" on="0"/>
        <pt x="564" y="1710" on="0"/>
        <pt x="720" y="1842" on="0"/>
        <pt x="781" y="1842" on="1"/>
        <pt x="808" y="1842" on="1"/>
        <pt x="902" y="1842" on="0"/>
        <pt x="902" y="1798" on="1"/>
        <pt x="902" y="1793" on="1"/>
        <pt x="902" y="1749" on="0"/>
        <pt x="663" y="1534" on="1"/>
        <pt x="602" y="1479" on="0"/>
      </contour>
      <contour>
        <pt x="1067" y="1277" on="1"/>
        <pt x="1067" y="1169" on="0"/>
        <pt x="957" y="1169" on="1"/>
        <pt x="926" y="1169" on="0"/>
        <pt x="666" y="1209" on="0"/>
        <pt x="514" y="1209" on="0"/>
        <pt x="464" y="1114" on="0"/>
        <pt x="464" y="906" on="0"/>
        <pt x="488" y="880" on="1"/>
        <pt x="529" y="835" on="0"/>
        <pt x="658" y="835" on="1"/>
        <pt x="673" y="835" on="0"/>
        <pt x="795" y="865" on="0"/>
        <pt x="905" y="865" on="0"/>
        <pt x="943" y="810" on="0"/>
        <pt x="943" y="667" on="0"/>
        <pt x="910" y="612" on="0"/>
        <pt x="847" y="612" on="1"/>
        <pt x="815" y="616" on="1"/>
        <pt x="783" y="623" on="1"/>
        <pt x="751" y="629" on="1"/>
        <pt x="686" y="640" on="0"/>
        <pt x="520" y="640" on="0"/>
        <pt x="484" y="591" on="1"/>
        <pt x="461" y="560" on="0"/>
        <pt x="461" y="338" on="0"/>
        <pt x="513" y="230" on="0"/>
        <pt x="675" y="230" on="0"/>
        <pt x="933" y="273" on="0"/>
        <pt x="980" y="273" on="1"/>
        <pt x="1087" y="273" on="0"/>
        <pt x="1087" y="155" on="1"/>
        <pt x="1087" y="84" on="0"/>
        <pt x="992" y="32" on="0"/>
        <pt x="878" y="32" on="1"/>
        <pt x="620" y="32" on="1"/>
        <pt x="289" y="32" on="0"/>
        <pt x="224" y="43" on="1"/>
        <pt x="133" y="58" on="0"/>
        <pt x="133" y="133" on="1"/>
        <pt x="133" y="148" on="0"/>
        <pt x="178" y="328" on="0"/>
        <pt x="178" y="421" on="1"/>
        <pt x="179" y="494" on="1"/>
        <pt x="179" y="753" on="1"/>
        <pt x="180" y="827" on="1"/>
        <pt x="180" y="1047" on="1"/>
        <pt x="180" y="1123" on="0"/>
        <pt x="136" y="1299" on="0"/>
        <pt x="136" y="1322" on="1"/>
        <pt x="136" y="1375" on="0"/>
        <pt x="298" y="1400" on="0"/>
        <pt x="682" y="1400" on="1"/>
        <pt x="756" y="1401" on="1"/>
        <pt x="941" y="1401" on="1"/>
        <pt x="1067" y="1401" on="0"/>
      </contour>
    </TTGlyph>
    <TTGlyph name="Ecircumflex" xMin="126" yMin="-6" xMax="1097" yMax="1850">
      <contour>
        <pt x="384" y="1514" on="1"/>
        <pt x="367" y="1514" on="1"/>
        <pt x="298" y="1514" on="0"/>
        <pt x="298" y="1552" on="1"/>
        <pt x="298" y="1619" on="0"/>
        <pt x="501" y="1806" on="1"/>
        <pt x="549" y="1850" on="0"/>
        <pt x="618" y="1850" on="1"/>
        <pt x="627" y="1850" on="1"/>
        <pt x="692" y="1850" on="0"/>
        <pt x="742" y="1804" on="1"/>
        <pt x="941" y="1620" on="0"/>
        <pt x="941" y="1556" on="1"/>
        <pt x="941" y="1515" on="0"/>
        <pt x="800" y="1515" on="0"/>
        <pt x="730" y="1574" on="1"/>
        <pt x="717" y="1585" on="0"/>
        <pt x="624" y="1671" on="0"/>
        <pt x="613" y="1671" on="0"/>
        <pt x="443" y="1514" on="0"/>
      </contour>
      <contour>
        <pt x="994" y="241" on="1"/>
        <pt x="1097" y="241" on="0"/>
        <pt x="1097" y="120" on="1"/>
        <pt x="1097" y="47" on="0"/>
        <pt x="1003" y="-6" on="0"/>
        <pt x="884" y="-6" on="1"/>
        <pt x="621" y="-6" on="1"/>
        <pt x="284" y="-6" on="0"/>
        <pt x="218" y="5" on="1"/>
        <pt x="126" y="20" on="0"/>
        <pt x="126" y="97" on="1"/>
        <pt x="126" y="124" on="0"/>
        <pt x="170" y="291" on="0"/>
        <pt x="170" y="360" on="1"/>
        <pt x="170" y="467" on="1"/>
        <pt x="171" y="504" on="1"/>
        <pt x="171" y="955" on="1"/>
        <pt x="170" y="1030" on="1"/>
        <pt x="170" y="1112" on="0"/>
        <pt x="156" y="1169" on="1"/>
        <pt x="147" y="1198" on="1"/>
        <pt x="137" y="1226" on="1"/>
        <pt x="126" y="1262" on="0"/>
        <pt x="126" y="1283" on="1"/>
        <pt x="126" y="1311" on="1"/>
        <pt x="126" y="1366" on="0"/>
        <pt x="271" y="1390" on="0"/>
        <pt x="683" y="1390" on="1"/>
        <pt x="834" y="1391" on="1"/>
        <pt x="909" y="1391" on="1"/>
        <pt x="1003" y="1391" on="0"/>
        <pt x="1074" y="1338" on="0"/>
        <pt x="1074" y="1264" on="1"/>
        <pt x="1074" y="1153" on="0"/>
        <pt x="960" y="1153" on="1"/>
        <pt x="600" y="1193" on="1"/>
        <pt x="504" y="1193" on="0"/>
        <pt x="452" y="1093" on="0"/>
        <pt x="452" y="881" on="0"/>
        <pt x="477" y="856" on="1"/>
        <pt x="521" y="812" on="0"/>
        <pt x="652" y="812" on="1"/>
        <pt x="673" y="812" on="0"/>
        <pt x="791" y="842" on="0"/>
        <pt x="908" y="842" on="0"/>
        <pt x="946" y="786" on="0"/>
        <pt x="946" y="638" on="0"/>
        <pt x="914" y="585" on="0"/>
        <pt x="848" y="585" on="1"/>
        <pt x="815" y="589" on="1"/>
        <pt x="750" y="603" on="1"/>
        <pt x="689" y="614" on="0"/>
        <pt x="514" y="614" on="0"/>
        <pt x="477" y="565" on="1"/>
        <pt x="452" y="532" on="0"/>
        <pt x="452" y="310" on="0"/>
        <pt x="505" y="197" on="0"/>
        <pt x="672" y="197" on="0"/>
        <pt x="936" y="241" on="0"/>
      </contour>
    </TTGlyph>
    <TTGlyph name="Edieresis" xMin="127" yMin="-1" xMax="1099" yMax="1789">
      <contour>
        <pt x="424" y="1789" on="1"/>
        <pt x="535" y="1789" on="0"/>
        <pt x="535" y="1707" on="1"/>
        <pt x="538" y="1689" on="1"/>
        <pt x="540" y="1662" on="1"/>
        <pt x="540" y="1657" on="1"/>
        <pt x="539" y="1653" on="1"/>
        <pt x="539" y="1639" on="1"/>
        <pt x="536" y="1619" on="0"/>
        <pt x="536" y="1618" on="1"/>
        <pt x="536" y="1579" on="0"/>
        <pt x="486" y="1537" on="0"/>
        <pt x="450" y="1537" on="1"/>
        <pt x="442" y="1535" on="0"/>
        <pt x="437" y="1535" on="1"/>
        <pt x="415" y="1533" on="1"/>
        <pt x="392" y="1533" on="1"/>
        <pt x="387" y="1534" on="1"/>
        <pt x="379" y="1534" on="1"/>
        <pt x="369" y="1536" on="0"/>
        <pt x="366" y="1536" on="1"/>
        <pt x="349" y="1539" on="1"/>
        <pt x="286" y="1539" on="0"/>
        <pt x="286" y="1611" on="1"/>
        <pt x="283" y="1623" on="0"/>
        <pt x="283" y="1624" on="1"/>
        <pt x="281" y="1646" on="1"/>
        <pt x="281" y="1678" on="1"/>
        <pt x="285" y="1708" on="1"/>
        <pt x="285" y="1739" on="0"/>
        <pt x="330" y="1784" on="0"/>
        <pt x="366" y="1784" on="1"/>
        <pt x="380" y="1787" on="0"/>
        <pt x="383" y="1787" on="1"/>
        <pt x="405" y="1789" on="1"/>
      </contour>
      <contour>
        <pt x="696" y="1646" on="1"/>
        <pt x="696" y="1673" on="1"/>
        <pt x="696" y="1785" on="0"/>
        <pt x="786" y="1785" on="1"/>
        <pt x="794" y="1787" on="0"/>
        <pt x="799" y="1787" on="1"/>
        <pt x="821" y="1789" on="1"/>
        <pt x="839" y="1789" on="1"/>
        <pt x="899" y="1789" on="0"/>
        <pt x="955" y="1742" on="0"/>
        <pt x="955" y="1680" on="1"/>
        <pt x="955" y="1644" on="1"/>
        <pt x="955" y="1581" on="0"/>
        <pt x="897" y="1533" on="0"/>
        <pt x="839" y="1533" on="1"/>
        <pt x="807" y="1533" on="1"/>
        <pt x="803" y="1534" on="1"/>
        <pt x="794" y="1534" on="1"/>
        <pt x="786" y="1536" on="0"/>
        <pt x="781" y="1536" on="1"/>
        <pt x="696" y="1536" on="0"/>
      </contour>
      <contour>
        <pt x="990" y="246" on="1"/>
        <pt x="1098" y="246" on="0"/>
        <pt x="1099" y="124" on="1"/>
        <pt x="1099" y="53" on="0"/>
        <pt x="1004" y="-1" on="0"/>
        <pt x="886" y="-1" on="1"/>
        <pt x="473" y="-1" on="1"/>
        <pt x="240" y="-1" on="0"/>
        <pt x="128" y="36" on="0"/>
        <pt x="128" y="102" on="1"/>
        <pt x="128" y="121" on="0"/>
        <pt x="168" y="284" on="0"/>
        <pt x="172" y="433" on="0"/>
        <pt x="172" y="1048" on="0"/>
        <pt x="168" y="1138" on="0"/>
        <pt x="127" y="1271" on="0"/>
        <pt x="127" y="1360" on="0"/>
        <pt x="226" y="1395" on="0"/>
        <pt x="460" y="1395" on="1"/>
        <pt x="947" y="1395" on="1"/>
        <pt x="1076" y="1395" on="0"/>
        <pt x="1076" y="1269" on="1"/>
        <pt x="1076" y="1157" on="0"/>
        <pt x="962" y="1157" on="1"/>
        <pt x="928" y="1157" on="0"/>
        <pt x="664" y="1197" on="0"/>
        <pt x="506" y="1197" on="0"/>
        <pt x="454" y="1098" on="0"/>
        <pt x="454" y="886" on="0"/>
        <pt x="479" y="860" on="1"/>
        <pt x="520" y="817" on="0"/>
        <pt x="654" y="817" on="1"/>
        <pt x="675" y="817" on="0"/>
        <pt x="792" y="847" on="0"/>
        <pt x="908" y="847" on="0"/>
        <pt x="947" y="791" on="0"/>
        <pt x="947" y="644" on="0"/>
        <pt x="915" y="590" on="0"/>
        <pt x="850" y="590" on="1"/>
        <pt x="846" y="590" on="0"/>
        <pt x="691" y="618" on="0"/>
        <pt x="516" y="618" on="0"/>
        <pt x="479" y="570" on="1"/>
        <pt x="454" y="538" on="0"/>
        <pt x="454" y="315" on="0"/>
        <pt x="507" y="202" on="0"/>
        <pt x="673" y="202" on="0"/>
        <pt x="944" y="246" on="0"/>
      </contour>
    </TTGlyph>
    <TTGlyph name="Egrave" xMin="126" yMin="-4" xMax="1097" yMax="1859">
      <contour>
        <pt x="343" y="1790" on="1"/>
        <pt x="343" y="1801" on="1"/>
        <pt x="343" y="1815" on="0"/>
        <pt x="400" y="1859" on="0"/>
        <pt x="445" y="1859" on="1"/>
        <pt x="451" y="1859" on="1"/>
        <pt x="457" y="1858" on="1"/>
        <pt x="543" y="1858" on="0"/>
        <pt x="678" y="1740" on="0"/>
        <pt x="758" y="1626" on="1"/>
        <pt x="783" y="1590" on="0"/>
        <pt x="783" y="1562" on="1"/>
        <pt x="783" y="1556" on="1"/>
        <pt x="783" y="1514" on="0"/>
        <pt x="729" y="1514" on="1"/>
        <pt x="712" y="1514" on="1"/>
        <pt x="643" y="1514" on="0"/>
        <pt x="544" y="1583" on="1"/>
        <pt x="343" y="1724" on="0"/>
      </contour>
      <contour>
        <pt x="989" y="243" on="1"/>
        <pt x="1097" y="243" on="0"/>
        <pt x="1097" y="120" on="1"/>
        <pt x="1097" y="48" on="0"/>
        <pt x="1004" y="-4" on="0"/>
        <pt x="885" y="-4" on="1"/>
        <pt x="434" y="-4" on="1"/>
        <pt x="239" y="-4" on="0"/>
        <pt x="126" y="33" on="0"/>
        <pt x="126" y="98" on="1"/>
        <pt x="126" y="121" on="0"/>
        <pt x="170" y="289" on="0"/>
        <pt x="170" y="393" on="1"/>
        <pt x="171" y="468" on="1"/>
        <pt x="171" y="1031" on="1"/>
        <pt x="171" y="1108" on="0"/>
        <pt x="156" y="1170" on="1"/>
        <pt x="147" y="1200" on="1"/>
        <pt x="138" y="1227" on="1"/>
        <pt x="126" y="1266" on="0"/>
        <pt x="126" y="1284" on="1"/>
        <pt x="126" y="1313" on="1"/>
        <pt x="126" y="1368" on="0"/>
        <pt x="277" y="1391" on="0"/>
        <pt x="683" y="1391" on="1"/>
        <pt x="758" y="1392" on="1"/>
        <pt x="946" y="1392" on="1"/>
        <pt x="1024" y="1392" on="0"/>
        <pt x="1074" y="1322" on="0"/>
        <pt x="1074" y="1265" on="1"/>
        <pt x="1074" y="1154" on="0"/>
        <pt x="960" y="1154" on="1"/>
        <pt x="926" y="1154" on="0"/>
        <pt x="662" y="1194" on="0"/>
        <pt x="504" y="1194" on="0"/>
        <pt x="453" y="1095" on="0"/>
        <pt x="453" y="942" on="1"/>
        <pt x="453" y="867" on="0"/>
        <pt x="555" y="813" on="0"/>
        <pt x="652" y="813" on="1"/>
        <pt x="673" y="813" on="0"/>
        <pt x="795" y="844" on="0"/>
        <pt x="907" y="844" on="0"/>
        <pt x="946" y="788" on="0"/>
        <pt x="946" y="641" on="0"/>
        <pt x="913" y="586" on="0"/>
        <pt x="849" y="586" on="1"/>
        <pt x="816" y="591" on="1"/>
        <pt x="783" y="597" on="1"/>
        <pt x="751" y="604" on="1"/>
        <pt x="690" y="615" on="0"/>
        <pt x="514" y="615" on="0"/>
        <pt x="477" y="567" on="1"/>
        <pt x="452" y="535" on="0"/>
        <pt x="452" y="310" on="0"/>
        <pt x="507" y="198" on="0"/>
        <pt x="603" y="198" on="1"/>
        <pt x="666" y="198" on="0"/>
        <pt x="944" y="243" on="0"/>
      </contour>
    </TTGlyph>
    <TTGlyph name="Eth" xMin="67" yMin="-5" xMax="1315" yMax="1394">
      <contour>
        <pt x="1028" y="629" on="1"/>
        <pt x="1028" y="722" on="1"/>
        <pt x="1028" y="1095" on="0"/>
        <pt x="785" y="1181" on="1"/>
        <pt x="715" y="1206" on="0"/>
        <pt x="600" y="1206" on="1"/>
        <pt x="567" y="1206" on="1"/>
        <pt x="484" y="1206" on="0"/>
        <pt x="469" y="1169" on="1"/>
        <pt x="459" y="1145" on="0"/>
        <pt x="459" y="840" on="0"/>
        <pt x="504" y="787" on="0"/>
        <pt x="640" y="787" on="1"/>
        <pt x="713" y="787" on="0"/>
        <pt x="713" y="702" on="1"/>
        <pt x="713" y="647" on="0"/>
        <pt x="674" y="616" on="0"/>
        <pt x="511" y="616" on="0"/>
        <pt x="457" y="555" on="0"/>
        <pt x="457" y="440" on="1"/>
        <pt x="457" y="372" on="1"/>
        <pt x="457" y="228" on="0"/>
        <pt x="488" y="180" on="0"/>
        <pt x="727" y="180" on="0"/>
        <pt x="797" y="208" on="1"/>
        <pt x="950" y="269" on="0"/>
        <pt x="1000" y="445" on="1"/>
        <pt x="1028" y="545" on="0"/>
      </contour>
      <contour>
        <pt x="641" y="1394" on="1"/>
        <pt x="1126" y="1394" on="0"/>
        <pt x="1268" y="1010" on="1"/>
        <pt x="1315" y="885" on="0"/>
        <pt x="1315" y="729" on="1"/>
        <pt x="1315" y="726" on="0"/>
        <pt x="1315" y="723" on="1"/>
        <pt x="1315" y="696" on="1"/>
        <pt x="1315" y="176" on="0"/>
        <pt x="911" y="35" on="1"/>
        <pt x="796" y="-5" on="0"/>
        <pt x="635" y="-5" on="1"/>
        <pt x="404" y="-5" on="1"/>
        <pt x="224" y="-5" on="0"/>
        <pt x="166" y="20" on="0"/>
        <pt x="166" y="73" on="1"/>
        <pt x="166" y="89" on="0"/>
        <pt x="202" y="202" on="0"/>
        <pt x="214" y="295" on="0"/>
        <pt x="214" y="584" on="0"/>
        <pt x="190" y="610" on="0"/>
        <pt x="92" y="629" on="0"/>
        <pt x="89" y="631" on="1"/>
        <pt x="67" y="644" on="0"/>
        <pt x="67" y="766" on="0"/>
        <pt x="107" y="792" on="0"/>
        <pt x="190" y="810" on="0"/>
        <pt x="213" y="842" on="0"/>
        <pt x="213" y="1132" on="0"/>
        <pt x="195" y="1199" on="0"/>
        <pt x="161" y="1300" on="0"/>
        <pt x="161" y="1361" on="0"/>
        <pt x="208" y="1387" on="0"/>
        <pt x="291" y="1387" on="1"/>
        <pt x="412" y="1391" on="1"/>
        <pt x="486" y="1394" on="1"/>
      </contour>
    </TTGlyph>
    <TTGlyph name="Euro" xMin="85" yMin="-11" xMax="1176" yMax="1392">
      <contour>
        <pt x="888" y="548" on="1"/>
        <pt x="888" y="493" on="0"/>
        <pt x="601" y="416" on="0"/>
        <pt x="601" y="285" on="0"/>
        <pt x="689" y="238" on="1"/>
        <pt x="747" y="207" on="0"/>
        <pt x="895" y="207" on="0"/>
        <pt x="1073" y="243" on="0"/>
        <pt x="1102" y="243" on="1"/>
        <pt x="1165" y="243" on="0"/>
        <pt x="1165" y="106" on="0"/>
        <pt x="955" y="-11" on="0"/>
        <pt x="809" y="-11" on="1"/>
        <pt x="768" y="-11" on="1"/>
        <pt x="569" y="-11" on="0"/>
        <pt x="439" y="89" on="1"/>
        <pt x="362" y="148" on="0"/>
        <pt x="218" y="409" on="0"/>
        <pt x="85" y="491" on="0"/>
        <pt x="85" y="591" on="0"/>
        <pt x="206" y="639" on="0"/>
        <pt x="206" y="665" on="1"/>
        <pt x="206" y="725" on="0"/>
        <pt x="173" y="743" on="1"/>
        <pt x="92" y="787" on="0"/>
        <pt x="92" y="812" on="1"/>
        <pt x="92" y="858" on="0"/>
        <pt x="239" y="981" on="0"/>
        <pt x="293" y="1087" on="1"/>
        <pt x="395" y="1287" on="0"/>
        <pt x="593" y="1356" on="1"/>
        <pt x="695" y="1392" on="0"/>
        <pt x="790" y="1392" on="1"/>
        <pt x="1176" y="1392" on="0"/>
        <pt x="1176" y="1201" on="1"/>
        <pt x="1176" y="1161" on="0"/>
        <pt x="1125" y="1112" on="0"/>
        <pt x="1051" y="1112" on="0"/>
        <pt x="874" y="1162" on="0"/>
        <pt x="712" y="1162" on="0"/>
        <pt x="599" y="1080" on="0"/>
        <pt x="599" y="985" on="0"/>
        <pt x="644" y="956" on="1"/>
        <pt x="665" y="943" on="0"/>
        <pt x="905" y="875" on="0"/>
        <pt x="905" y="787" on="0"/>
        <pt x="806" y="753" on="0"/>
        <pt x="578" y="747" on="0"/>
        <pt x="555" y="738" on="1"/>
        <pt x="507" y="719" on="0"/>
        <pt x="507" y="643" on="0"/>
        <pt x="559" y="629" on="1"/>
        <pt x="589" y="621" on="0"/>
        <pt x="808" y="612" on="0"/>
        <pt x="888" y="579" on="0"/>
      </contour>
    </TTGlyph>
    <TTGlyph name="F" xMin="143" yMin="5" xMax="1066" yMax="1406">
      <contour>
        <pt x="319" y="5" on="1"/>
        <pt x="292" y="5" on="1"/>
        <pt x="213" y="5" on="0"/>
        <pt x="143" y="73" on="0"/>
        <pt x="143" y="147" on="1"/>
        <pt x="143" y="163" on="0"/>
        <pt x="188" y="317" on="0"/>
        <pt x="188" y="403" on="1"/>
        <pt x="190" y="550" on="1"/>
        <pt x="190" y="641" on="1"/>
        <pt x="193" y="885" on="1"/>
        <pt x="193" y="1038" on="1"/>
        <pt x="193" y="1112" on="0"/>
        <pt x="150" y="1295" on="0"/>
        <pt x="150" y="1321" on="1"/>
        <pt x="150" y="1368" on="0"/>
        <pt x="230" y="1380" on="1"/>
        <pt x="409" y="1406" on="0"/>
        <pt x="834" y="1406" on="1"/>
        <pt x="896" y="1406" on="1"/>
        <pt x="999" y="1406" on="0"/>
        <pt x="1066" y="1363" on="0"/>
        <pt x="1066" y="1301" on="1"/>
        <pt x="1066" y="1273" on="1"/>
        <pt x="1066" y="1215" on="0"/>
        <pt x="1012" y="1170" on="0"/>
        <pt x="942" y="1170" on="0"/>
        <pt x="752" y="1213" on="0"/>
        <pt x="546" y="1213" on="0"/>
        <pt x="467" y="1142" on="0"/>
        <pt x="467" y="885" on="0"/>
        <pt x="519" y="818" on="0"/>
        <pt x="606" y="818" on="1"/>
        <pt x="805" y="835" on="1"/>
        <pt x="925" y="835" on="0"/>
        <pt x="925" y="692" on="1"/>
        <pt x="925" y="638" on="0"/>
        <pt x="867" y="597" on="0"/>
        <pt x="798" y="597" on="1"/>
        <pt x="775" y="599" on="1"/>
        <pt x="752" y="601" on="0"/>
        <pt x="728" y="601" on="1"/>
        <pt x="573" y="601" on="0"/>
        <pt x="473" y="491" on="0"/>
        <pt x="473" y="276" on="1"/>
        <pt x="480" y="143" on="1"/>
        <pt x="480" y="5" on="0"/>
      </contour>
    </TTGlyph>
    <TTGlyph name="G" xMin="101" yMin="-23" xMax="1245" yMax="1421">
      <contour>
        <pt x="377" y="699" on="1"/>
        <pt x="377" y="584" on="0"/>
        <pt x="438" y="395" on="0"/>
        <pt x="519" y="284" on="0"/>
        <pt x="685" y="200" on="0"/>
        <pt x="866" y="200" on="0"/>
        <pt x="969" y="300" on="0"/>
        <pt x="969" y="444" on="0"/>
        <pt x="834" y="579" on="0"/>
        <pt x="834" y="618" on="1"/>
        <pt x="834" y="632" on="0"/>
        <pt x="848" y="646" on="1"/>
        <pt x="884" y="682" on="0"/>
        <pt x="1139" y="682" on="0"/>
        <pt x="1245" y="631" on="0"/>
        <pt x="1245" y="569" on="1"/>
        <pt x="1245" y="176" on="0"/>
        <pt x="1177" y="96" on="1"/>
        <pt x="1134" y="45" on="0"/>
        <pt x="877" y="-23" on="0"/>
        <pt x="731" y="-23" on="1"/>
        <pt x="431" y="-23" on="0"/>
        <pt x="266" y="168" on="1"/>
        <pt x="193" y="253" on="0"/>
        <pt x="101" y="538" on="0"/>
        <pt x="101" y="705" on="1"/>
        <pt x="101" y="1218" on="0"/>
        <pt x="497" y="1375" on="1"/>
        <pt x="612" y="1421" on="0"/>
        <pt x="761" y="1421" on="1"/>
        <pt x="800" y="1421" on="1"/>
        <pt x="993" y="1421" on="0"/>
        <pt x="1153" y="1340" on="0"/>
        <pt x="1209" y="1251" on="0"/>
        <pt x="1209" y="1227" on="1"/>
        <pt x="1209" y="1154" on="0"/>
        <pt x="1154" y="1101" on="0"/>
        <pt x="1113" y="1101" on="0"/>
        <pt x="852" y="1203" on="0"/>
        <pt x="760" y="1203" on="1"/>
        <pt x="569" y="1203" on="0"/>
        <pt x="466" y="1061" on="1"/>
        <pt x="377" y="939" on="0"/>
      </contour>
    </TTGlyph>
    <TTGlyph name="H" xMin="128" yMin="5" xMax="1320" yMax="1400">
      <contour>
        <pt x="966" y="1261" on="1"/>
        <pt x="966" y="1400" on="0"/>
        <pt x="1160" y="1400" on="1"/>
        <pt x="1256" y="1400" on="0"/>
        <pt x="1320" y="1347" on="0"/>
        <pt x="1320" y="1286" on="1"/>
        <pt x="1320" y="1270" on="0"/>
        <pt x="1281" y="1133" on="0"/>
        <pt x="1272" y="997" on="0"/>
        <pt x="1272" y="757" on="1"/>
        <pt x="1272" y="594" on="1"/>
        <pt x="1269" y="469" on="0"/>
        <pt x="1269" y="269" on="0"/>
        <pt x="1280" y="234" on="1"/>
        <pt x="1316" y="121" on="0"/>
        <pt x="1316" y="108" on="1"/>
        <pt x="1316" y="45" on="0"/>
        <pt x="1252" y="5" on="0"/>
        <pt x="1177" y="5" on="1"/>
        <pt x="1139" y="5" on="1"/>
        <pt x="1051" y="5" on="0"/>
        <pt x="964" y="70" on="0"/>
        <pt x="964" y="143" on="1"/>
        <pt x="964" y="159" on="0"/>
        <pt x="972" y="208" on="1"/>
        <pt x="984" y="279" on="1"/>
        <pt x="996" y="367" on="0"/>
        <pt x="996" y="589" on="0"/>
        <pt x="939" y="615" on="1"/>
        <pt x="910" y="628" on="0"/>
        <pt x="540" y="628" on="0"/>
        <pt x="444" y="570" on="0"/>
        <pt x="444" y="401" on="1"/>
        <pt x="444" y="318" on="0"/>
        <pt x="479" y="150" on="0"/>
        <pt x="479" y="122" on="1"/>
        <pt x="479" y="57" on="0"/>
        <pt x="385" y="5" on="0"/>
        <pt x="187" y="5" on="0"/>
        <pt x="135" y="64" on="0"/>
        <pt x="135" y="140" on="0"/>
        <pt x="151" y="190" on="1"/>
        <pt x="179" y="278" on="0"/>
        <pt x="179" y="376" on="1"/>
        <pt x="179" y="482" on="1"/>
        <pt x="181" y="647" on="1"/>
        <pt x="181" y="882" on="1"/>
        <pt x="181" y="1076" on="0"/>
        <pt x="176" y="1123" on="0"/>
        <pt x="128" y="1245" on="0"/>
        <pt x="128" y="1338" on="0"/>
        <pt x="204" y="1389" on="0"/>
        <pt x="473" y="1389" on="0"/>
        <pt x="473" y="1268" on="1"/>
        <pt x="473" y="1262" on="0"/>
        <pt x="455" y="1112" on="0"/>
        <pt x="455" y="875" on="0"/>
        <pt x="558" y="816" on="0"/>
        <pt x="807" y="816" on="1"/>
        <pt x="937" y="816" on="0"/>
        <pt x="999" y="893" on="0"/>
        <pt x="999" y="1016" on="1"/>
        <pt x="999" y="1062" on="0"/>
        <pt x="966" y="1252" on="0"/>
      </contour>
    </TTGlyph>
    <TTGlyph name="I" xMin="131" yMin="-2" xMax="570" yMax="1410">
      <contour>
        <pt x="134" y="54" on="0"/>
        <pt x="134" y="147" on="0"/>
        <pt x="207" y="266" on="0"/>
        <pt x="225" y="399" on="0"/>
        <pt x="225" y="1043" on="0"/>
        <pt x="211" y="1144" on="0"/>
        <pt x="131" y="1266" on="0"/>
        <pt x="131" y="1371" on="0"/>
        <pt x="241" y="1410" on="0"/>
        <pt x="363" y="1410" on="1"/>
        <pt x="403" y="1410" on="1"/>
        <pt x="487" y="1410" on="0"/>
        <pt x="566" y="1354" on="0"/>
        <pt x="566" y="1294" on="1"/>
        <pt x="566" y="1269" on="0"/>
        <pt x="500" y="1132" on="0"/>
        <pt x="490" y="1035" on="0"/>
        <pt x="490" y="356" on="0"/>
        <pt x="507" y="236" on="0"/>
        <pt x="570" y="127" on="0"/>
        <pt x="570" y="76" on="1"/>
        <pt x="570" y="-2" on="0"/>
        <pt x="413" y="-2" on="1"/>
        <pt x="373" y="-2" on="1"/>
        <pt x="333" y="0" on="0"/>
        <pt x="228" y="0" on="0"/>
      </contour>
    </TTGlyph>
    <TTGlyph name="Iacute" xMin="131" yMin="35" xMax="617" yMax="1854">
      <contour>
        <pt x="255" y="1486" on="1"/>
        <pt x="234" y="1486" on="1"/>
        <pt x="192" y="1486" on="0"/>
        <pt x="192" y="1522" on="1"/>
        <pt x="192" y="1527" on="1"/>
        <pt x="193" y="1532" on="1"/>
        <pt x="193" y="1610" on="0"/>
        <pt x="365" y="1782" on="1"/>
        <pt x="437" y="1854" on="0"/>
        <pt x="526" y="1854" on="1"/>
        <pt x="532" y="1854" on="1"/>
        <pt x="564" y="1854" on="0"/>
        <pt x="617" y="1814" on="0"/>
        <pt x="617" y="1799" on="1"/>
        <pt x="617" y="1787" on="1"/>
        <pt x="617" y="1745" on="0"/>
        <pt x="428" y="1575" on="1"/>
        <pt x="329" y="1486" on="0"/>
      </contour>
      <contour>
        <pt x="309" y="35" on="1"/>
        <pt x="307" y="35" on="0"/>
        <pt x="306" y="35" on="1"/>
        <pt x="132" y="35" on="0"/>
        <pt x="132" y="140" on="1"/>
        <pt x="132" y="188" on="0"/>
        <pt x="194" y="305" on="0"/>
        <pt x="210" y="415" on="0"/>
        <pt x="210" y="1057" on="0"/>
        <pt x="196" y="1157" on="0"/>
        <pt x="131" y="1258" on="0"/>
        <pt x="131" y="1315" on="1"/>
        <pt x="131" y="1408" on="0"/>
        <pt x="291" y="1408" on="1"/>
        <pt x="408" y="1408" on="1"/>
        <pt x="499" y="1408" on="0"/>
        <pt x="544" y="1365" on="1"/>
        <pt x="565" y="1345" on="0"/>
        <pt x="565" y="1258" on="0"/>
        <pt x="502" y="1137" on="0"/>
        <pt x="486" y="1026" on="0"/>
        <pt x="486" y="386" on="0"/>
        <pt x="497" y="290" on="0"/>
        <pt x="567" y="184" on="0"/>
        <pt x="567" y="77" on="0"/>
        <pt x="514" y="51" on="1"/>
        <pt x="481" y="35" on="0"/>
        <pt x="368" y="35" on="1"/>
      </contour>
    </TTGlyph>
    <TTGlyph name="Icircumflex" xMin="45" yMin="52" xMax="657" yMax="1835">
      <contour>
        <pt x="350" y="1835" on="1"/>
        <pt x="366" y="1835" on="1"/>
        <pt x="422" y="1835" on="0"/>
        <pt x="471" y="1782" on="1"/>
        <pt x="657" y="1580" on="0"/>
        <pt x="657" y="1526" on="1"/>
        <pt x="657" y="1519" on="1"/>
        <pt x="657" y="1478" on="0"/>
        <pt x="562" y="1478" on="1"/>
        <pt x="510" y="1478" on="0"/>
        <pt x="398" y="1571" on="1"/>
        <pt x="386" y="1581" on="0"/>
        <pt x="357" y="1613" on="0"/>
        <pt x="347" y="1613" on="0"/>
        <pt x="300" y="1566" on="0"/>
        <pt x="183" y="1476" on="0"/>
        <pt x="129" y="1476" on="1"/>
        <pt x="121" y="1477" on="1"/>
        <pt x="45" y="1477" on="0"/>
        <pt x="45" y="1521" on="1"/>
        <pt x="45" y="1577" on="0"/>
        <pt x="235" y="1783" on="1"/>
        <pt x="283" y="1835" on="0"/>
      </contour>
      <contour>
        <pt x="294" y="52" on="1"/>
        <pt x="138" y="52" on="0"/>
        <pt x="138" y="163" on="1"/>
        <pt x="138" y="194" on="0"/>
        <pt x="197" y="316" on="0"/>
        <pt x="207" y="389" on="0"/>
        <pt x="207" y="747" on="1"/>
        <pt x="207" y="1074" on="1"/>
        <pt x="199" y="1145" on="0"/>
        <pt x="133" y="1263" on="0"/>
        <pt x="133" y="1364" on="0"/>
        <pt x="186" y="1391" on="1"/>
        <pt x="219" y="1408" on="0"/>
        <pt x="311" y="1408" on="1"/>
        <pt x="408" y="1408" on="1"/>
        <pt x="476" y="1408" on="0"/>
        <pt x="508" y="1389" on="1"/>
        <pt x="564" y="1355" on="0"/>
        <pt x="564" y="1261" on="0"/>
        <pt x="502" y="1132" on="0"/>
        <pt x="493" y="1055" on="0"/>
        <pt x="493" y="368" on="0"/>
        <pt x="506" y="295" on="0"/>
        <pt x="568" y="192" on="0"/>
        <pt x="568" y="141" on="1"/>
        <pt x="568" y="52" on="0"/>
        <pt x="410" y="52" on="1"/>
      </contour>
    </TTGlyph>
    <TTGlyph name="Idieresis" xMin="35" yMin="52" xMax="680" yMax="1789">
      <contour>
        <pt x="169" y="1481" on="1"/>
        <pt x="135" y="1481" on="1"/>
        <pt x="127" y="1483" on="0"/>
        <pt x="105" y="1483" on="0"/>
        <pt x="40" y="1529" on="0"/>
        <pt x="40" y="1577" on="1"/>
        <pt x="37" y="1589" on="0"/>
        <pt x="37" y="1591" on="1"/>
        <pt x="35" y="1615" on="1"/>
        <pt x="35" y="1645" on="1"/>
        <pt x="35" y="1714" on="0"/>
        <pt x="99" y="1778" on="0"/>
        <pt x="145" y="1778" on="1"/>
        <pt x="172" y="1778" on="1"/>
        <pt x="218" y="1778" on="0"/>
        <pt x="273" y="1714" on="0"/>
        <pt x="273" y="1667" on="1"/>
        <pt x="276" y="1638" on="1"/>
        <pt x="276" y="1618" on="1"/>
        <pt x="272" y="1580" on="1"/>
        <pt x="272" y="1532" on="0"/>
        <pt x="200" y="1481" on="0"/>
      </contour>
      <contour>
        <pt x="425" y="1692" on="0"/>
        <pt x="425" y="1733" on="0"/>
        <pt x="467" y="1784" on="0"/>
        <pt x="504" y="1784" on="1"/>
        <pt x="517" y="1787" on="1"/>
        <pt x="539" y="1789" on="1"/>
        <pt x="575" y="1789" on="1"/>
        <pt x="633" y="1789" on="0"/>
        <pt x="680" y="1732" on="0"/>
        <pt x="680" y="1679" on="1"/>
        <pt x="680" y="1648" on="1"/>
        <pt x="680" y="1584" on="0"/>
        <pt x="620" y="1534" on="0"/>
        <pt x="559" y="1534" on="1"/>
        <pt x="536" y="1534" on="1"/>
        <pt x="501" y="1538" on="1"/>
        <pt x="427" y="1538" on="0"/>
        <pt x="427" y="1613" on="1"/>
        <pt x="426" y="1618" on="1"/>
        <pt x="424" y="1626" on="1"/>
        <pt x="422" y="1648" on="1"/>
        <pt x="422" y="1680" on="1"/>
      </contour>
      <contour>
        <pt x="325" y="52" on="1"/>
        <pt x="150" y="52" on="0"/>
        <pt x="150" y="154" on="1"/>
        <pt x="150" y="202" on="0"/>
        <pt x="209" y="320" on="0"/>
        <pt x="223" y="415" on="0"/>
        <pt x="223" y="1063" on="0"/>
        <pt x="209" y="1160" on="0"/>
        <pt x="146" y="1264" on="0"/>
        <pt x="146" y="1367" on="0"/>
        <pt x="198" y="1394" on="1"/>
        <pt x="231" y="1411" on="0"/>
        <pt x="362" y="1411" on="1"/>
        <pt x="381" y="1411" on="1"/>
        <pt x="485" y="1411" on="0"/>
        <pt x="519" y="1392" on="1"/>
        <pt x="575" y="1361" on="0"/>
        <pt x="575" y="1264" on="0"/>
        <pt x="514" y="1142" on="0"/>
        <pt x="500" y="1045" on="0"/>
        <pt x="500" y="398" on="0"/>
        <pt x="514" y="302" on="0"/>
        <pt x="579" y="198" on="0"/>
        <pt x="579" y="144" on="1"/>
        <pt x="579" y="128" on="1"/>
        <pt x="579" y="81" on="0"/>
        <pt x="513" y="62" on="1"/>
        <pt x="479" y="52" on="0"/>
        <pt x="383" y="52" on="1"/>
      </contour>
    </TTGlyph>
    <TTGlyph name="Igrave" xMin="85" yMin="53" xMax="565" yMax="1852">
      <contour>
        <pt x="459" y="1466" on="1"/>
        <pt x="444" y="1466" on="1"/>
        <pt x="373" y="1466" on="0"/>
        <pt x="274" y="1555" on="1"/>
        <pt x="85" y="1725" on="0"/>
        <pt x="85" y="1780" on="1"/>
        <pt x="86" y="1786" on="1"/>
        <pt x="86" y="1792" on="1"/>
        <pt x="86" y="1809" on="0"/>
        <pt x="141" y="1852" on="0"/>
        <pt x="171" y="1852" on="1"/>
        <pt x="176" y="1852" on="1"/>
        <pt x="264" y="1852" on="0"/>
        <pt x="325" y="1783" on="1"/>
        <pt x="501" y="1585" on="0"/>
        <pt x="501" y="1520" on="1"/>
        <pt x="501" y="1503" on="1"/>
        <pt x="501" y="1466" on="0"/>
      </contour>
      <contour>
        <pt x="565" y="162" on="1"/>
        <pt x="565" y="128" on="1"/>
        <pt x="565" y="91" on="0"/>
        <pt x="476" y="53" on="0"/>
        <pt x="348" y="53" on="1"/>
        <pt x="329" y="53" on="1"/>
        <pt x="223" y="53" on="0"/>
        <pt x="188" y="71" on="1"/>
        <pt x="131" y="101" on="0"/>
        <pt x="131" y="203" on="0"/>
        <pt x="193" y="318" on="0"/>
        <pt x="205" y="402" on="0"/>
        <pt x="205" y="1039" on="0"/>
        <pt x="192" y="1154" on="0"/>
        <pt x="123" y="1269" on="0"/>
        <pt x="123" y="1370" on="0"/>
        <pt x="211" y="1413" on="0"/>
        <pt x="321" y="1413" on="1"/>
        <pt x="379" y="1413" on="1"/>
        <pt x="467" y="1413" on="0"/>
        <pt x="500" y="1395" on="1"/>
        <pt x="557" y="1364" on="0"/>
        <pt x="557" y="1266" on="0"/>
        <pt x="494" y="1149" on="0"/>
        <pt x="481" y="1056" on="0"/>
        <pt x="481" y="427" on="0"/>
        <pt x="493" y="317" on="0"/>
        <pt x="565" y="189" on="0"/>
      </contour>
    </TTGlyph>
    <TTGlyph name="J" xMin="39" yMin="-130" xMax="775" yMax="1410">
      <contour>
        <pt x="474" y="853" on="1"/>
        <pt x="474" y="1016" on="0"/>
        <pt x="426" y="1159" on="0"/>
        <pt x="378" y="1262" on="0"/>
        <pt x="378" y="1351" on="0"/>
        <pt x="499" y="1410" on="0"/>
        <pt x="599" y="1410" on="1"/>
        <pt x="622" y="1410" on="1"/>
        <pt x="686" y="1410" on="0"/>
        <pt x="775" y="1344" on="0"/>
        <pt x="775" y="1288" on="1"/>
        <pt x="775" y="1250" on="1"/>
        <pt x="775" y="1235" on="0"/>
        <pt x="759" y="1151" on="0"/>
        <pt x="739" y="1007" on="1"/>
        <pt x="737" y="989" on="0"/>
        <pt x="737" y="698" on="1"/>
        <pt x="737" y="408" on="0"/>
        <pt x="719" y="288" on="1"/>
        <pt x="682" y="44" on="0"/>
        <pt x="523" y="-59" on="1"/>
        <pt x="412" y="-130" on="0"/>
        <pt x="293" y="-130" on="1"/>
        <pt x="270" y="-130" on="1"/>
        <pt x="160" y="-130" on="0"/>
        <pt x="39" y="-51" on="0"/>
        <pt x="39" y="12" on="1"/>
        <pt x="39" y="31" on="1"/>
        <pt x="39" y="80" on="0"/>
        <pt x="131" y="148" on="0"/>
        <pt x="211" y="148" on="1"/>
        <pt x="239" y="146" on="1"/>
        <pt x="359" y="146" on="0"/>
        <pt x="412" y="310" on="1"/>
        <pt x="474" y="502" on="0"/>
      </contour>
    </TTGlyph>
    <TTGlyph name="K" xMin="137" yMin="-2" xMax="1262" yMax="1407">
      <contour>
        <pt x="137" y="1299" on="1"/>
        <pt x="137" y="1400" on="0"/>
        <pt x="310" y="1400" on="1"/>
        <pt x="390" y="1400" on="0"/>
        <pt x="473" y="1331" on="0"/>
        <pt x="473" y="1291" on="1"/>
        <pt x="473" y="1289" on="0"/>
        <pt x="442" y="1109" on="0"/>
        <pt x="442" y="1025" on="1"/>
        <pt x="442" y="839" on="0"/>
        <pt x="533" y="839" on="0"/>
        <pt x="697" y="1041" on="1"/>
        <pt x="796" y="1163" on="0"/>
        <pt x="856" y="1261" on="0"/>
        <pt x="901" y="1360" on="0"/>
        <pt x="920" y="1374" on="1"/>
        <pt x="964" y="1407" on="0"/>
        <pt x="1049" y="1407" on="1"/>
        <pt x="1085" y="1407" on="1"/>
        <pt x="1140" y="1407" on="0"/>
        <pt x="1194" y="1377" on="0"/>
        <pt x="1194" y="1336" on="1"/>
        <pt x="1194" y="1312" on="0"/>
        <pt x="777" y="830" on="0"/>
        <pt x="777" y="772" on="1"/>
        <pt x="777" y="766" on="0"/>
        <pt x="1086" y="306" on="0"/>
        <pt x="1262" y="88" on="0"/>
        <pt x="1262" y="52" on="1"/>
        <pt x="1262" y="-2" on="0"/>
        <pt x="1148" y="-2" on="1"/>
        <pt x="1110" y="-2" on="1"/>
        <pt x="1010" y="-2" on="0"/>
        <pt x="949" y="54" on="1"/>
        <pt x="922" y="78" on="0"/>
        <pt x="760" y="364" on="0"/>
        <pt x="597" y="585" on="0"/>
        <pt x="551" y="585" on="1"/>
        <pt x="453" y="585" on="0"/>
        <pt x="453" y="358" on="1"/>
        <pt x="475" y="156" on="1"/>
        <pt x="475" y="81" on="0"/>
        <pt x="422" y="33" on="1"/>
        <pt x="388" y="2" on="0"/>
        <pt x="206" y="2" on="0"/>
        <pt x="142" y="44" on="0"/>
        <pt x="142" y="103" on="1"/>
        <pt x="142" y="120" on="0"/>
        <pt x="182" y="276" on="0"/>
        <pt x="182" y="408" on="1"/>
        <pt x="182" y="696" on="1"/>
        <pt x="182" y="980" on="0"/>
        <pt x="178" y="1081" on="0"/>
        <pt x="137" y="1286" on="0"/>
      </contour>
    </TTGlyph>
    <TTGlyph name="L" xMin="125" yMin="-8" xMax="1086" yMax="1409">
      <contour>
        <pt x="312" y="1409" on="1"/>
        <pt x="490" y="1409" on="0"/>
        <pt x="490" y="1288" on="1"/>
        <pt x="490" y="1251" on="0"/>
        <pt x="450" y="1089" on="0"/>
        <pt x="445" y="999" on="0"/>
        <pt x="445" y="333" on="0"/>
        <pt x="482" y="211" on="0"/>
        <pt x="525" y="197" on="1"/>
        <pt x="550" y="189" on="0"/>
        <pt x="724" y="189" on="0"/>
        <pt x="990" y="257" on="0"/>
        <pt x="1046" y="257" on="0"/>
        <pt x="1086" y="225" on="0"/>
        <pt x="1086" y="170" on="1"/>
        <pt x="1086" y="146" on="1"/>
        <pt x="1086" y="64" on="0"/>
        <pt x="1061" y="35" on="1"/>
        <pt x="1024" y="-8" on="0"/>
        <pt x="895" y="-8" on="1"/>
        <pt x="819" y="-8" on="1"/>
        <pt x="794" y="-7" on="1"/>
        <pt x="666" y="-7" on="1"/>
        <pt x="590" y="-6" on="1"/>
        <pt x="257" y="-6" on="0"/>
        <pt x="199" y="12" on="1"/>
        <pt x="142" y="30" on="0"/>
        <pt x="142" y="102" on="1"/>
        <pt x="142" y="121" on="0"/>
        <pt x="168" y="221" on="0"/>
        <pt x="181" y="288" on="0"/>
        <pt x="181" y="362" on="1"/>
        <pt x="182" y="439" on="1"/>
        <pt x="182" y="769" on="1"/>
        <pt x="181" y="795" on="1"/>
        <pt x="181" y="844" on="1"/>
        <pt x="180" y="869" on="1"/>
        <pt x="180" y="918" on="1"/>
        <pt x="179" y="968" on="1"/>
        <pt x="179" y="968" on="0"/>
        <pt x="179" y="1044" on="1"/>
        <pt x="179" y="1096" on="0"/>
        <pt x="125" y="1272" on="0"/>
        <pt x="125" y="1293" on="1"/>
        <pt x="125" y="1362" on="0"/>
        <pt x="173" y="1393" on="1"/>
        <pt x="197" y="1409" on="0"/>
        <pt x="287" y="1409" on="1"/>
      </contour>
    </TTGlyph>
    <TTGlyph name="Lslash" xMin="72" yMin="-5" xMax="1102" yMax="1375">
      <contour>
        <pt x="739" y="946" on="0"/>
        <pt x="739" y="831" on="0"/>
        <pt x="702" y="791" on="1"/>
        <pt x="692" y="780" on="0"/>
        <pt x="554" y="677" on="0"/>
        <pt x="481" y="561" on="0"/>
        <pt x="481" y="272" on="0"/>
        <pt x="563" y="190" on="0"/>
        <pt x="764" y="190" on="0"/>
        <pt x="991" y="257" on="0"/>
        <pt x="1033" y="257" on="1"/>
        <pt x="1102" y="257" on="0"/>
        <pt x="1102" y="167" on="1"/>
        <pt x="1102" y="141" on="1"/>
        <pt x="1102" y="58" on="0"/>
        <pt x="1032" y="20" on="1"/>
        <pt x="985" y="-5" on="0"/>
        <pt x="846" y="-5" on="1"/>
        <pt x="697" y="-5" on="1"/>
        <pt x="667" y="-4" on="1"/>
        <pt x="607" y="-4" on="1"/>
        <pt x="308" y="-4" on="0"/>
        <pt x="261" y="7" on="1"/>
        <pt x="172" y="28" on="0"/>
        <pt x="172" y="97" on="1"/>
        <pt x="172" y="105" on="0"/>
        <pt x="221" y="290" on="0"/>
        <pt x="221" y="345" on="1"/>
        <pt x="221" y="464" on="0"/>
        <pt x="175" y="464" on="1"/>
        <pt x="143" y="459" on="0"/>
        <pt x="117" y="459" on="1"/>
        <pt x="72" y="459" on="0"/>
        <pt x="72" y="596" on="0"/>
        <pt x="117" y="648" on="1"/>
        <pt x="192" y="734" on="0"/>
        <pt x="199" y="749" on="1"/>
        <pt x="224" y="804" on="0"/>
        <pt x="224" y="1086" on="0"/>
        <pt x="175" y="1225" on="0"/>
        <pt x="175" y="1251" on="1"/>
        <pt x="175" y="1323" on="0"/>
        <pt x="250" y="1375" on="0"/>
        <pt x="436" y="1375" on="0"/>
        <pt x="519" y="1303" on="0"/>
        <pt x="519" y="1216" on="1"/>
        <pt x="519" y="1203" on="0"/>
        <pt x="512" y="1169" on="1"/>
        <pt x="501" y="1120" on="1"/>
        <pt x="483" y="1018" on="0"/>
        <pt x="483" y="992" on="1"/>
        <pt x="483" y="923" on="0"/>
        <pt x="553" y="923" on="1"/>
        <pt x="695" y="946" on="1"/>
      </contour>
    </TTGlyph>
    <TTGlyph name="M" xMin="148" yMin="18" xMax="1611" yMax="1380">
      <contour>
        <pt x="1611" y="149" on="1"/>
        <pt x="1611" y="80" on="0"/>
        <pt x="1541" y="18" on="0"/>
        <pt x="1380" y="18" on="0"/>
        <pt x="1336" y="83" on="1"/>
        <pt x="1313" y="117" on="0"/>
        <pt x="1313" y="233" on="1"/>
        <pt x="1315" y="280" on="1"/>
        <pt x="1318" y="327" on="1"/>
        <pt x="1322" y="390" on="0"/>
        <pt x="1322" y="424" on="1"/>
        <pt x="1322" y="918" on="0"/>
        <pt x="1284" y="918" on="1"/>
        <pt x="1266" y="918" on="0"/>
        <pt x="990" y="260" on="0"/>
        <pt x="969" y="231" on="1"/>
        <pt x="926" y="171" on="0"/>
        <pt x="798" y="171" on="0"/>
        <pt x="756" y="246" on="1"/>
        <pt x="737" y="279" on="0"/>
        <pt x="460" y="928" on="0"/>
        <pt x="436" y="928" on="1"/>
        <pt x="399" y="928" on="0"/>
        <pt x="399" y="271" on="1"/>
        <pt x="399" y="116" on="0"/>
        <pt x="374" y="86" on="1"/>
        <pt x="330" y="34" on="0"/>
        <pt x="244" y="34" on="1"/>
        <pt x="201" y="34" on="0"/>
        <pt x="148" y="81" on="0"/>
        <pt x="148" y="140" on="0"/>
        <pt x="179" y="258" on="0"/>
        <pt x="195" y="398" on="0"/>
        <pt x="195" y="569" on="1"/>
        <pt x="196" y="621" on="1"/>
        <pt x="203" y="778" on="1"/>
        <pt x="211" y="986" on="0"/>
        <pt x="211" y="1086" on="0"/>
        <pt x="204" y="1138" on="1"/>
        <pt x="180" y="1264" on="1"/>
        <pt x="180" y="1380" on="0"/>
        <pt x="323" y="1380" on="1"/>
        <pt x="443" y="1380" on="0"/>
        <pt x="537" y="1255" on="1"/>
        <pt x="613" y="1154" on="0"/>
        <pt x="864" y="585" on="0"/>
        <pt x="891" y="585" on="1"/>
        <pt x="912" y="615" on="1"/>
        <pt x="1031" y="878" on="1"/>
        <pt x="1190" y="1224" on="0"/>
        <pt x="1201" y="1240" on="1"/>
        <pt x="1291" y="1378" on="0"/>
        <pt x="1443" y="1378" on="1"/>
        <pt x="1527" y="1378" on="0"/>
        <pt x="1560" y="1339" on="1"/>
        <pt x="1578" y="1318" on="0"/>
        <pt x="1578" y="1278" on="1"/>
        <pt x="1573" y="1241" on="1"/>
        <pt x="1569" y="1202" on="0"/>
        <pt x="1567" y="1149" on="1"/>
        <pt x="1566" y="1100" on="1"/>
        <pt x="1567" y="1051" on="1"/>
        <pt x="1567" y="998" on="0"/>
        <pt x="1567" y="945" on="1"/>
        <pt x="1572" y="518" on="1"/>
        <pt x="1572" y="360" on="0"/>
        <pt x="1581" y="281" on="0"/>
        <pt x="1611" y="161" on="0"/>
      </contour>
    </TTGlyph>
    <TTGlyph name="N" xMin="141" yMin="10" xMax="1343" yMax="1391">
      <contour>
        <pt x="230" y="15" on="1"/>
        <pt x="229" y="15" on="0"/>
        <pt x="227" y="15" on="1"/>
        <pt x="143" y="15" on="0"/>
        <pt x="143" y="80" on="1"/>
        <pt x="143" y="114" on="0"/>
        <pt x="176" y="222" on="1"/>
        <pt x="191" y="271" on="0"/>
        <pt x="191" y="418" on="1"/>
        <pt x="193" y="628" on="1"/>
        <pt x="193" y="713" on="1"/>
        <pt x="194" y="841" on="1"/>
        <pt x="194" y="1068" on="0"/>
        <pt x="187" y="1158" on="0"/>
        <pt x="141" y="1296" on="0"/>
        <pt x="141" y="1349" on="0"/>
        <pt x="182" y="1382" on="0"/>
        <pt x="333" y="1382" on="0"/>
        <pt x="451" y="1312" on="0"/>
        <pt x="511" y="1242" on="1"/>
        <pt x="653" y="1078" on="0"/>
        <pt x="784" y="873" on="1"/>
        <pt x="1047" y="461" on="0"/>
        <pt x="1060" y="461" on="1"/>
        <pt x="1079" y="461" on="0"/>
        <pt x="1079" y="656" on="1"/>
        <pt x="1081" y="738" on="1"/>
        <pt x="1082" y="780" on="0"/>
        <pt x="1082" y="1052" on="0"/>
        <pt x="1060" y="1243" on="0"/>
        <pt x="1060" y="1333" on="0"/>
        <pt x="1131" y="1391" on="0"/>
        <pt x="1261" y="1391" on="0"/>
        <pt x="1290" y="1374" on="1"/>
        <pt x="1343" y="1343" on="0"/>
        <pt x="1343" y="1258" on="1"/>
        <pt x="1342" y="1223" on="1"/>
        <pt x="1340" y="1193" on="0"/>
        <pt x="1329" y="1148" on="1"/>
        <pt x="1320" y="1112" on="1"/>
        <pt x="1307" y="1060" on="0"/>
        <pt x="1295" y="994" on="0"/>
        <pt x="1295" y="168" on="0"/>
        <pt x="1272" y="69" on="1"/>
        <pt x="1258" y="10" on="0"/>
        <pt x="1209" y="10" on="1"/>
        <pt x="1089" y="10" on="0"/>
        <pt x="1011" y="99" on="1"/>
        <pt x="969" y="146" on="0"/>
        <pt x="746" y="506" on="0"/>
        <pt x="714" y="555" on="1"/>
        <pt x="458" y="941" on="0"/>
        <pt x="423" y="941" on="1"/>
        <pt x="400" y="941" on="0"/>
        <pt x="400" y="550" on="0"/>
        <pt x="410" y="292" on="0"/>
        <pt x="427" y="187" on="0"/>
        <pt x="427" y="169" on="1"/>
        <pt x="427" y="15" on="0"/>
      </contour>
    </TTGlyph>
    <TTGlyph name="Nacute" xMin="99" yMin="-1" xMax="1299" yMax="1854">
      <contour>
        <pt x="1012" y="1764" on="1"/>
        <pt x="1012" y="1710" on="0"/>
        <pt x="760" y="1550" on="1"/>
        <pt x="678" y="1498" on="0"/>
        <pt x="606" y="1498" on="1"/>
        <pt x="600" y="1499" on="1"/>
        <pt x="546" y="1499" on="0"/>
        <pt x="546" y="1548" on="1"/>
        <pt x="546" y="1553" on="1"/>
        <pt x="546" y="1617" on="0"/>
        <pt x="735" y="1785" on="1"/>
        <pt x="813" y="1854" on="0"/>
        <pt x="904" y="1854" on="1"/>
        <pt x="910" y="1854" on="1"/>
        <pt x="942" y="1854" on="0"/>
        <pt x="1014" y="1803" on="0"/>
        <pt x="1014" y="1787" on="1"/>
        <pt x="1014" y="1781" on="1"/>
        <pt x="1012" y="1771" on="0"/>
      </contour>
      <contour>
        <pt x="384" y="908" on="1"/>
        <pt x="375" y="908" on="0"/>
        <pt x="375" y="855" on="1"/>
        <pt x="376" y="814" on="1"/>
        <pt x="377" y="772" on="0"/>
        <pt x="377" y="600" on="0"/>
        <pt x="411" y="260" on="0"/>
        <pt x="411" y="81" on="0"/>
        <pt x="315" y="-1" on="0"/>
        <pt x="246" y="-1" on="1"/>
        <pt x="210" y="-1" on="1"/>
        <pt x="139" y="-1" on="0"/>
        <pt x="113" y="32" on="1"/>
        <pt x="99" y="62" on="1"/>
        <pt x="99" y="100" on="1"/>
        <pt x="99" y="110" on="0"/>
        <pt x="152" y="251" on="0"/>
        <pt x="159" y="350" on="0"/>
        <pt x="159" y="1059" on="0"/>
        <pt x="149" y="1176" on="0"/>
        <pt x="102" y="1300" on="0"/>
        <pt x="102" y="1324" on="1"/>
        <pt x="102" y="1379" on="0"/>
        <pt x="311" y="1379" on="0"/>
        <pt x="440" y="1316" on="0"/>
        <pt x="561" y="1162" on="0"/>
        <pt x="882" y="660" on="1"/>
        <pt x="995" y="481" on="1"/>
        <pt x="1015" y="454" on="1"/>
        <pt x="1031" y="454" on="0"/>
        <pt x="1031" y="823" on="0"/>
        <pt x="1009" y="1124" on="0"/>
        <pt x="992" y="1242" on="0"/>
        <pt x="992" y="1320" on="0"/>
        <pt x="1082" y="1380" on="0"/>
        <pt x="1129" y="1380" on="1"/>
        <pt x="1167" y="1380" on="1"/>
        <pt x="1234" y="1380" on="0"/>
        <pt x="1299" y="1307" on="0"/>
        <pt x="1299" y="1221" on="1"/>
        <pt x="1299" y="1192" on="0"/>
        <pt x="1254" y="1035" on="0"/>
        <pt x="1248" y="934" on="0"/>
        <pt x="1248" y="620" on="1"/>
        <pt x="1248" y="115" on="1"/>
        <pt x="1247" y="74" on="1"/>
        <pt x="1238" y="-1" on="0"/>
        <pt x="1157" y="-1" on="1"/>
        <pt x="1040" y="-1" on="0"/>
        <pt x="957" y="96" on="1"/>
        <pt x="899" y="164" on="0"/>
        <pt x="413" y="908" on="0"/>
      </contour>
    </TTGlyph>
    <TTGlyph name="Ntilde" xMin="120" yMin="3" xMax="1321" yMax="1809">
      <contour>
        <pt x="1090" y="1740" on="1"/>
        <pt x="1090" y="1722" on="1"/>
        <pt x="1090" y="1645" on="0"/>
        <pt x="962" y="1535" on="0"/>
        <pt x="902" y="1535" on="1"/>
        <pt x="875" y="1535" on="1"/>
        <pt x="832" y="1535" on="0"/>
        <pt x="620" y="1629" on="0"/>
        <pt x="543" y="1629" on="0"/>
        <pt x="457" y="1556" on="0"/>
        <pt x="413" y="1556" on="1"/>
        <pt x="363" y="1556" on="0"/>
        <pt x="363" y="1681" on="0"/>
        <pt x="481" y="1809" on="0"/>
        <pt x="561" y="1809" on="1"/>
        <pt x="570" y="1809" on="1"/>
        <pt x="579" y="1808" on="1"/>
        <pt x="629" y="1808" on="0"/>
        <pt x="836" y="1716" on="0"/>
        <pt x="911" y="1716" on="0"/>
        <pt x="1000" y="1786" on="0"/>
        <pt x="1041" y="1786" on="1"/>
        <pt x="1090" y="1786" on="0"/>
      </contour>
      <contour>
        <pt x="1021" y="1266" on="1"/>
        <pt x="1021" y="1383" on="0"/>
        <pt x="1181" y="1383" on="1"/>
        <pt x="1249" y="1383" on="0"/>
        <pt x="1321" y="1320" on="0"/>
        <pt x="1321" y="1234" on="1"/>
        <pt x="1321" y="1201" on="0"/>
        <pt x="1285" y="1066" on="0"/>
        <pt x="1274" y="989" on="0"/>
        <pt x="1274" y="766" on="1"/>
        <pt x="1272" y="596" on="1"/>
        <pt x="1271" y="553" on="1"/>
        <pt x="1269" y="342" on="1"/>
        <pt x="1269" y="82" on="0"/>
        <pt x="1261" y="60" on="1"/>
        <pt x="1244" y="14" on="0"/>
        <pt x="1184" y="14" on="1"/>
        <pt x="1068" y="14" on="0"/>
        <pt x="984" y="107" on="1"/>
        <pt x="946" y="149" on="0"/>
        <pt x="431" y="939" on="0"/>
        <pt x="400" y="939" on="1"/>
        <pt x="387" y="939" on="0"/>
        <pt x="387" y="616" on="0"/>
        <pt x="399" y="455" on="0"/>
        <pt x="422" y="203" on="0"/>
        <pt x="422" y="181" on="1"/>
        <pt x="422" y="3" on="0"/>
        <pt x="232" y="3" on="1"/>
        <pt x="159" y="3" on="0"/>
        <pt x="121" y="48" on="0"/>
        <pt x="121" y="131" on="0"/>
        <pt x="165" y="262" on="0"/>
        <pt x="169" y="318" on="0"/>
        <pt x="169" y="600" on="1"/>
        <pt x="169" y="1030" on="1"/>
        <pt x="169" y="1134" on="0"/>
        <pt x="120" y="1306" on="0"/>
        <pt x="120" y="1326" on="1"/>
        <pt x="131" y="1353" on="1"/>
        <pt x="154" y="1385" on="0"/>
        <pt x="314" y="1385" on="0"/>
        <pt x="443" y="1329" on="0"/>
        <pt x="516" y="1238" on="1"/>
        <pt x="539" y="1206" on="1"/>
        <pt x="583" y="1146" on="0"/>
        <pt x="725" y="929" on="0"/>
        <pt x="1039" y="465" on="0"/>
        <pt x="1044" y="465" on="1"/>
        <pt x="1056" y="465" on="0"/>
        <pt x="1056" y="1003" on="0"/>
        <pt x="1021" y="1255" on="0"/>
      </contour>
    </TTGlyph>
    <TTGlyph name="O" xMin="94" yMin="-37" xMax="1351" yMax="1424">
      <contour>
        <pt x="360" y="744" on="1"/>
        <pt x="360" y="664" on="1"/>
        <pt x="360" y="560" on="0"/>
        <pt x="390" y="452" on="1"/>
        <pt x="471" y="154" on="0"/>
        <pt x="722" y="154" on="1"/>
        <pt x="875" y="154" on="0"/>
        <pt x="967" y="274" on="1"/>
        <pt x="1007" y="326" on="0"/>
        <pt x="1065" y="529" on="0"/>
        <pt x="1065" y="619" on="1"/>
        <pt x="1067" y="651" on="1"/>
        <pt x="1067" y="731" on="1"/>
        <pt x="1067" y="827" on="0"/>
        <pt x="1040" y="934" on="1"/>
        <pt x="990" y="1133" on="0"/>
        <pt x="864" y="1202" on="1"/>
        <pt x="796" y="1239" on="0"/>
        <pt x="727" y="1239" on="1"/>
        <pt x="696" y="1239" on="1"/>
        <pt x="546" y="1239" on="0"/>
        <pt x="448" y="1100" on="1"/>
        <pt x="416" y="1054" on="0"/>
        <pt x="360" y="858" on="0"/>
      </contour>
      <contour>
        <pt x="1351" y="748" on="1"/>
        <pt x="1351" y="679" on="1"/>
        <pt x="1351" y="529" on="0"/>
        <pt x="1260" y="250" on="0"/>
        <pt x="1108" y="75" on="0"/>
        <pt x="865" y="-37" on="0"/>
        <pt x="725" y="-37" on="1"/>
        <pt x="586" y="-36" on="0"/>
        <pt x="462" y="14" on="1"/>
        <pt x="94" y="164" on="0"/>
        <pt x="94" y="680" on="1"/>
        <pt x="94" y="726" on="1"/>
        <pt x="94" y="893" on="0"/>
        <pt x="191" y="1164" on="0"/>
        <pt x="346" y="1330" on="0"/>
        <pt x="575" y="1424" on="0"/>
        <pt x="709" y="1424" on="1"/>
        <pt x="733" y="1424" on="1"/>
        <pt x="1014" y="1424" on="0"/>
        <pt x="1187" y="1238" on="1"/>
        <pt x="1254" y="1167" on="0"/>
        <pt x="1351" y="901" on="0"/>
      </contour>
    </TTGlyph>
    <TTGlyph name="OE" xMin="91" yMin="-13" xMax="1797" yMax="1398">
      <contour>
        <pt x="947" y="839" on="1"/>
        <pt x="947" y="1068" on="0"/>
        <pt x="867" y="1221" on="0"/>
        <pt x="728" y="1221" on="1"/>
        <pt x="683" y="1221" on="1"/>
        <pt x="623" y="1221" on="0"/>
        <pt x="499" y="1159" on="0"/>
        <pt x="454" y="1093" on="1"/>
        <pt x="372" y="973" on="0"/>
        <pt x="372" y="771" on="1"/>
        <pt x="370" y="740" on="1"/>
        <pt x="370" y="663" on="1"/>
        <pt x="370" y="305" on="0"/>
        <pt x="570" y="198" on="1"/>
        <pt x="633" y="164" on="0"/>
        <pt x="719" y="164" on="1"/>
        <pt x="734" y="165" on="1"/>
        <pt x="858" y="165" on="0"/>
        <pt x="894" y="217" on="1"/>
        <pt x="941" y="286" on="0"/>
        <pt x="941" y="495" on="1"/>
        <pt x="943" y="523" on="0"/>
        <pt x="943" y="537" on="1"/>
        <pt x="946" y="623" on="1"/>
        <pt x="946" y="652" on="1"/>
        <pt x="947" y="695" on="1"/>
      </contour>
      <contour>
        <pt x="1797" y="156" on="1"/>
        <pt x="1797" y="77" on="0"/>
        <pt x="1614" y="-8" on="0"/>
        <pt x="1376" y="-8" on="1"/>
        <pt x="1302" y="-8" on="0"/>
        <pt x="1254" y="-3" on="1"/>
        <pt x="1180" y="9" on="1"/>
        <pt x="1134" y="16" on="0"/>
        <pt x="1059" y="16" on="0"/>
        <pt x="798" y="-13" on="0"/>
        <pt x="747" y="-13" on="1"/>
        <pt x="704" y="-13" on="1"/>
        <pt x="398" y="-13" on="0"/>
        <pt x="91" y="368" on="0"/>
        <pt x="91" y="699" on="1"/>
        <pt x="91" y="1193" on="0"/>
        <pt x="437" y="1344" on="1"/>
        <pt x="560" y="1398" on="0"/>
        <pt x="717" y="1398" on="1"/>
        <pt x="792" y="1398" on="0"/>
        <pt x="1038" y="1368" on="0"/>
        <pt x="1104" y="1368" on="0"/>
        <pt x="1270" y="1388" on="0"/>
        <pt x="1343" y="1388" on="1"/>
        <pt x="1583" y="1388" on="0"/>
        <pt x="1772" y="1320" on="0"/>
        <pt x="1772" y="1243" on="1"/>
        <pt x="1772" y="1179" on="0"/>
        <pt x="1673" y="1179" on="1"/>
        <pt x="1645" y="1179" on="0"/>
        <pt x="1481" y="1197" on="0"/>
        <pt x="1318" y="1197" on="0"/>
        <pt x="1218" y="1104" on="0"/>
        <pt x="1218" y="883" on="0"/>
        <pt x="1283" y="821" on="0"/>
        <pt x="1375" y="821" on="1"/>
        <pt x="1557" y="842" on="1"/>
        <pt x="1624" y="842" on="0"/>
        <pt x="1666" y="797" on="0"/>
        <pt x="1666" y="755" on="1"/>
        <pt x="1666" y="646" on="0"/>
        <pt x="1615" y="594" on="0"/>
        <pt x="1538" y="594" on="0"/>
        <pt x="1415" y="615" on="0"/>
        <pt x="1287" y="615" on="0"/>
        <pt x="1214" y="523" on="0"/>
        <pt x="1214" y="291" on="0"/>
        <pt x="1282" y="186" on="0"/>
        <pt x="1391" y="186" on="1"/>
        <pt x="1721" y="205" on="1"/>
        <pt x="1797" y="205" on="0"/>
      </contour>
    </TTGlyph>
    <TTGlyph name="Oacute" xMin="81" yMin="-17" xMax="1333" yMax="1857">
      <contour>
        <pt x="365" y="756" on="1"/>
        <pt x="365" y="679" on="1"/>
        <pt x="365" y="582" on="0"/>
        <pt x="416" y="384" on="0"/>
        <pt x="460" y="323" on="1"/>
        <pt x="542" y="209" on="0"/>
        <pt x="864" y="209" on="0"/>
        <pt x="1036" y="461" on="0"/>
        <pt x="1036" y="702" on="1"/>
        <pt x="1036" y="764" on="1"/>
        <pt x="1036" y="1103" on="0"/>
        <pt x="860" y="1207" on="1"/>
        <pt x="792" y="1247" on="0"/>
        <pt x="714" y="1247" on="1"/>
        <pt x="684" y="1247" on="1"/>
        <pt x="534" y="1247" on="0"/>
        <pt x="365" y="997" on="0"/>
      </contour>
      <contour>
        <pt x="630" y="1499" on="1"/>
        <pt x="601" y="1499" on="1"/>
        <pt x="555" y="1499" on="0"/>
        <pt x="555" y="1538" on="1"/>
        <pt x="555" y="1548" on="1"/>
        <pt x="555" y="1626" on="0"/>
        <pt x="729" y="1800" on="1"/>
        <pt x="784" y="1855" on="0"/>
        <pt x="867" y="1855" on="1"/>
        <pt x="879" y="1857" on="1"/>
        <pt x="891" y="1857" on="1"/>
        <pt x="897" y="1856" on="1"/>
        <pt x="925" y="1856" on="0"/>
        <pt x="985" y="1816" on="0"/>
        <pt x="985" y="1798" on="1"/>
        <pt x="985" y="1793" on="1"/>
        <pt x="985" y="1721" on="0"/>
        <pt x="785" y="1565" on="1"/>
        <pt x="700" y="1499" on="0"/>
      </contour>
      <contour>
        <pt x="708" y="-17" on="1"/>
        <pt x="684" y="-17" on="1"/>
        <pt x="543" y="-17" on="0"/>
        <pt x="297" y="90" on="0"/>
        <pt x="162" y="262" on="0"/>
        <pt x="81" y="523" on="0"/>
        <pt x="81" y="676" on="1"/>
        <pt x="81" y="723" on="1"/>
        <pt x="81" y="890" on="0"/>
        <pt x="166" y="1158" on="0"/>
        <pt x="311" y="1324" on="0"/>
        <pt x="547" y="1427" on="0"/>
        <pt x="674" y="1427" on="1"/>
        <pt x="722" y="1427" on="1"/>
        <pt x="866" y="1427" on="0"/>
        <pt x="986" y="1375" on="1"/>
        <pt x="1332" y="1224" on="0"/>
        <pt x="1333" y="711" on="1"/>
        <pt x="1332" y="688" on="1"/>
        <pt x="1332" y="526" on="0"/>
        <pt x="1244" y="247" on="0"/>
        <pt x="1082" y="75" on="0"/>
        <pt x="844" y="-17" on="0"/>
      </contour>
    </TTGlyph>
    <TTGlyph name="Ocircumflex" xMin="82" yMin="-20" xMax="1332" yMax="1851">
      <contour>
        <pt x="363" y="773" on="1"/>
        <pt x="363" y="696" on="1"/>
        <pt x="363" y="564" on="0"/>
        <pt x="421" y="370" on="0"/>
        <pt x="495" y="265" on="0"/>
        <pt x="616" y="197" on="0"/>
        <pt x="692" y="197" on="1"/>
        <pt x="738" y="197" on="1"/>
        <pt x="808" y="197" on="0"/>
        <pt x="864" y="233" on="1"/>
        <pt x="1040" y="345" on="0"/>
        <pt x="1040" y="669" on="1"/>
        <pt x="1040" y="746" on="1"/>
        <pt x="1040" y="1075" on="0"/>
        <pt x="859" y="1193" on="1"/>
        <pt x="795" y="1235" on="0"/>
        <pt x="712" y="1235" on="1"/>
        <pt x="681" y="1235" on="1"/>
        <pt x="532" y="1235" on="0"/>
        <pt x="441" y="1101" on="1"/>
        <pt x="363" y="987" on="0"/>
      </contour>
      <contour>
        <pt x="701" y="1851" on="1"/>
        <pt x="719" y="1851" on="1"/>
        <pt x="777" y="1851" on="0"/>
        <pt x="818" y="1813" on="1"/>
        <pt x="903" y="1735" on="0"/>
        <pt x="1016" y="1577" on="0"/>
        <pt x="1016" y="1557" on="1"/>
        <pt x="1016" y="1550" on="1"/>
        <pt x="1016" y="1513" on="0"/>
        <pt x="928" y="1513" on="1"/>
        <pt x="869" y="1513" on="0"/>
        <pt x="788" y="1588" on="1"/>
        <pt x="737" y="1631" on="1"/>
        <pt x="706" y="1657" on="0"/>
        <pt x="699" y="1657" on="0"/>
        <pt x="526" y="1510" on="0"/>
        <pt x="475" y="1510" on="1"/>
        <pt x="451" y="1510" on="1"/>
        <pt x="382" y="1510" on="0"/>
        <pt x="382" y="1550" on="1"/>
        <pt x="382" y="1570" on="0"/>
        <pt x="502" y="1737" on="0"/>
        <pt x="584" y="1807" on="1"/>
        <pt x="636" y="1851" on="0"/>
      </contour>
      <contour>
        <pt x="1332" y="732" on="1"/>
        <pt x="1332" y="662" on="1"/>
        <pt x="1332" y="535" on="0"/>
        <pt x="1253" y="260" on="0"/>
        <pt x="1096" y="80" on="0"/>
        <pt x="851" y="-20" on="0"/>
        <pt x="709" y="-20" on="1"/>
        <pt x="686" y="-20" on="1"/>
        <pt x="550" y="-20" on="0"/>
        <pt x="432" y="29" on="1"/>
        <pt x="204" y="123" on="0"/>
        <pt x="129" y="367" on="1"/>
        <pt x="82" y="519" on="0"/>
        <pt x="82" y="672" on="1"/>
        <pt x="82" y="719" on="1"/>
        <pt x="83" y="742" on="1"/>
        <pt x="83" y="877" on="0"/>
        <pt x="159" y="1142" on="0"/>
        <pt x="308" y="1318" on="0"/>
        <pt x="548" y="1423" on="0"/>
        <pt x="673" y="1423" on="1"/>
        <pt x="721" y="1423" on="1"/>
        <pt x="866" y="1423" on="0"/>
        <pt x="1098" y="1322" on="0"/>
        <pt x="1246" y="1158" on="0"/>
        <pt x="1332" y="887" on="0"/>
      </contour>
    </TTGlyph>
    <TTGlyph name="Odieresis" xMin="75" yMin="-18" xMax="1334" yMax="1802">
      <contour>
        <pt x="360" y="749" on="1"/>
        <pt x="360" y="702" on="1"/>
        <pt x="360" y="454" on="0"/>
        <pt x="537" y="194" on="0"/>
        <pt x="700" y="194" on="1"/>
        <pt x="716" y="195" on="1"/>
        <pt x="731" y="195" on="1"/>
        <pt x="798" y="195" on="0"/>
        <pt x="861" y="235" on="1"/>
        <pt x="1030" y="342" on="0"/>
        <pt x="1030" y="689" on="1"/>
        <pt x="1030" y="737" on="1"/>
        <pt x="1030" y="859" on="0"/>
        <pt x="1004" y="961" on="1"/>
        <pt x="959" y="1141" on="0"/>
        <pt x="840" y="1208" on="1"/>
        <pt x="778" y="1243" on="0"/>
        <pt x="705" y="1243" on="1"/>
        <pt x="675" y="1243" on="1"/>
        <pt x="527" y="1243" on="0"/>
        <pt x="360" y="998" on="0"/>
      </contour>
      <contour>
        <pt x="511" y="1802" on="1"/>
        <pt x="627" y="1802" on="0"/>
        <pt x="627" y="1712" on="1"/>
        <pt x="630" y="1685" on="1"/>
        <pt x="630" y="1658" on="1"/>
        <pt x="630" y="1552" on="0"/>
        <pt x="544" y="1552" on="1"/>
        <pt x="530" y="1549" on="0"/>
        <pt x="527" y="1549" on="1"/>
        <pt x="504" y="1547" on="1"/>
        <pt x="481" y="1547" on="1"/>
        <pt x="424" y="1547" on="0"/>
        <pt x="367" y="1594" on="0"/>
        <pt x="367" y="1654" on="1"/>
        <pt x="367" y="1691" on="1"/>
        <pt x="371" y="1721" on="1"/>
        <pt x="372" y="1756" on="0"/>
        <pt x="396" y="1776" on="1"/>
        <pt x="423" y="1798" on="0"/>
        <pt x="466" y="1799" on="1"/>
        <pt x="493" y="1802" on="1"/>
      </contour>
      <contour>
        <pt x="890" y="1527" on="1"/>
        <pt x="819" y="1527" on="0"/>
        <pt x="767" y="1589" on="0"/>
        <pt x="767" y="1660" on="1"/>
        <pt x="768" y="1665" on="1"/>
        <pt x="768" y="1734" on="0"/>
        <pt x="818" y="1794" on="0"/>
        <pt x="875" y="1794" on="1"/>
        <pt x="883" y="1796" on="0"/>
        <pt x="889" y="1796" on="1"/>
        <pt x="908" y="1797" on="1"/>
        <pt x="918" y="1797" on="1"/>
        <pt x="1028" y="1797" on="0"/>
        <pt x="1028" y="1710" on="1"/>
        <pt x="1030" y="1700" on="0"/>
        <pt x="1030" y="1696" on="1"/>
        <pt x="1032" y="1678" on="1"/>
        <pt x="1032" y="1645" on="1"/>
        <pt x="1028" y="1613" on="1"/>
        <pt x="1028" y="1579" on="0"/>
        <pt x="980" y="1531" on="0"/>
        <pt x="942" y="1531" on="1"/>
        <pt x="909" y="1527" on="1"/>
      </contour>
      <contour>
        <pt x="1334" y="735" on="1"/>
        <pt x="1334" y="664" on="1"/>
        <pt x="1334" y="541" on="0"/>
        <pt x="1255" y="266" on="0"/>
        <pt x="1101" y="89" on="0"/>
        <pt x="855" y="-18" on="0"/>
        <pt x="730" y="-18" on="1"/>
        <pt x="682" y="-18" on="1"/>
        <pt x="549" y="-18" on="0"/>
        <pt x="312" y="79" on="0"/>
        <pt x="161" y="247" on="0"/>
        <pt x="75" y="524" on="0"/>
        <pt x="75" y="677" on="1"/>
        <pt x="75" y="724" on="1"/>
        <pt x="75" y="884" on="0"/>
        <pt x="158" y="1152" on="0"/>
        <pt x="306" y="1328" on="0"/>
        <pt x="430" y="1379" on="1"/>
        <pt x="556" y="1430" on="0"/>
        <pt x="696" y="1430" on="1"/>
        <pt x="1001" y="1430" on="0"/>
        <pt x="1172" y="1246" on="1"/>
        <pt x="1248" y="1164" on="0"/>
        <pt x="1334" y="888" on="0"/>
      </contour>
    </TTGlyph>
    <TTGlyph name="Ograve" xMin="81" yMin="-13" xMax="1333" yMax="1874">
      <contour>
        <pt x="366" y="770" on="1"/>
        <pt x="366" y="707" on="1"/>
        <pt x="366" y="591" on="0"/>
        <pt x="392" y="488" on="1"/>
        <pt x="416" y="386" on="0"/>
        <pt x="456" y="328" on="1"/>
        <pt x="544" y="200" on="0"/>
        <pt x="698" y="199" on="1"/>
        <pt x="711" y="199" on="0"/>
        <pt x="724" y="200" on="1"/>
        <pt x="739" y="200" on="1"/>
        <pt x="869" y="200" on="0"/>
        <pt x="1036" y="434" on="0"/>
        <pt x="1036" y="661" on="1"/>
        <pt x="1036" y="754" on="1"/>
        <pt x="1036" y="854" on="0"/>
        <pt x="985" y="1058" on="0"/>
        <pt x="906" y="1174" on="0"/>
        <pt x="782" y="1244" on="0"/>
        <pt x="708" y="1244" on="1"/>
        <pt x="663" y="1244" on="1"/>
        <pt x="517" y="1244" on="0"/>
        <pt x="433" y="1102" on="1"/>
        <pt x="366" y="989" on="0"/>
      </contour>
      <contour>
        <pt x="415" y="1802" on="1"/>
        <pt x="415" y="1813" on="1"/>
        <pt x="415" y="1830" on="0"/>
        <pt x="479" y="1874" on="0"/>
        <pt x="518" y="1874" on="1"/>
        <pt x="524" y="1874" on="1"/>
        <pt x="530" y="1873" on="1"/>
        <pt x="617" y="1873" on="0"/>
        <pt x="728" y="1775" on="0"/>
        <pt x="822" y="1640" on="1"/>
        <pt x="851" y="1599" on="0"/>
        <pt x="851" y="1563" on="1"/>
        <pt x="851" y="1519" on="0"/>
        <pt x="801" y="1519" on="1"/>
        <pt x="778" y="1519" on="1"/>
        <pt x="708" y="1519" on="0"/>
        <pt x="598" y="1599" on="1"/>
        <pt x="415" y="1732" on="0"/>
      </contour>
      <contour>
        <pt x="732" y="-13" on="1"/>
        <pt x="684" y="-13" on="1"/>
        <pt x="534" y="-13" on="0"/>
        <pt x="298" y="96" on="0"/>
        <pt x="153" y="274" on="0"/>
        <pt x="81" y="551" on="0"/>
        <pt x="81" y="703" on="1"/>
        <pt x="81" y="727" on="1"/>
        <pt x="82" y="1057" on="0"/>
        <pt x="240" y="1246" on="1"/>
        <pt x="316" y="1336" on="0"/>
        <pt x="562" y="1431" on="0"/>
        <pt x="698" y="1431" on="1"/>
        <pt x="722" y="1431" on="1"/>
        <pt x="873" y="1431" on="0"/>
        <pt x="1114" y="1320" on="0"/>
        <pt x="1188" y="1230" on="1"/>
        <pt x="1333" y="1054" on="0"/>
        <pt x="1333" y="720" on="1"/>
        <pt x="1333" y="715" on="1"/>
        <pt x="1332" y="691" on="1"/>
        <pt x="1332" y="195" on="0"/>
        <pt x="987" y="43" on="1"/>
        <pt x="859" y="-13" on="0"/>
      </contour>
    </TTGlyph>
    <TTGlyph name="Oslash" xMin="98" yMin="-52" xMax="1319" yMax="1439">
      <contour>
        <pt x="372" y="738" on="1"/>
        <pt x="372" y="689" on="1"/>
        <pt x="372" y="502" on="0"/>
        <pt x="423" y="394" on="1"/>
        <pt x="431" y="376" on="0"/>
        <pt x="444" y="376" on="1"/>
        <pt x="480" y="376" on="0"/>
        <pt x="617" y="612" on="1"/>
        <pt x="882" y="1070" on="0"/>
        <pt x="882" y="1129" on="1"/>
        <pt x="882" y="1138" on="1"/>
        <pt x="882" y="1161" on="0"/>
        <pt x="853" y="1183" on="1"/>
        <pt x="793" y="1228" on="0"/>
        <pt x="724" y="1228" on="1"/>
        <pt x="677" y="1228" on="1"/>
        <pt x="536" y="1228" on="0"/>
        <pt x="372" y="959" on="0"/>
      </contour>
      <contour>
        <pt x="1034" y="840" on="1"/>
        <pt x="1034" y="894" on="1"/>
        <pt x="1034" y="1028" on="0"/>
        <pt x="1012" y="1028" on="1"/>
        <pt x="1002" y="1028" on="0"/>
        <pt x="931" y="886" on="0"/>
        <pt x="531" y="219" on="0"/>
        <pt x="531" y="218" on="1"/>
        <pt x="531" y="210" on="1"/>
        <pt x="531" y="210" on="0"/>
        <pt x="531" y="209" on="1"/>
        <pt x="531" y="152" on="0"/>
        <pt x="624" y="152" on="1"/>
        <pt x="910" y="152" on="0"/>
        <pt x="1002" y="572" on="1"/>
        <pt x="1034" y="717" on="0"/>
      </contour>
      <contour>
        <pt x="299" y="-52" on="1"/>
        <pt x="280" y="-52" on="1"/>
        <pt x="189" y="-52" on="0"/>
        <pt x="189" y="14" on="1"/>
        <pt x="189" y="30" on="0"/>
        <pt x="213" y="129" on="0"/>
        <pt x="213" y="198" on="0"/>
        <pt x="156" y="333" on="0"/>
        <pt x="139" y="386" on="1"/>
        <pt x="98" y="512" on="0"/>
        <pt x="98" y="660" on="1"/>
        <pt x="98" y="714" on="1"/>
        <pt x="98" y="876" on="0"/>
        <pt x="148" y="1014" on="1"/>
        <pt x="246" y="1285" on="0"/>
        <pt x="487" y="1374" on="1"/>
        <pt x="593" y="1413" on="0"/>
        <pt x="763" y="1413" on="1"/>
        <pt x="823" y="1413" on="0"/>
        <pt x="952" y="1391" on="0"/>
        <pt x="1009" y="1391" on="0"/>
        <pt x="1105" y="1439" on="0"/>
        <pt x="1135" y="1439" on="1"/>
        <pt x="1228" y="1439" on="0"/>
        <pt x="1228" y="1358" on="1"/>
        <pt x="1228" y="1345" on="0"/>
        <pt x="1204" y="1258" on="0"/>
        <pt x="1204" y="1204" on="0"/>
        <pt x="1277" y="1014" on="0"/>
        <pt x="1280" y="1003" on="1"/>
        <pt x="1319" y="881" on="0"/>
        <pt x="1319" y="728" on="1"/>
        <pt x="1319" y="674" on="1"/>
        <pt x="1319" y="536" on="0"/>
        <pt x="1274" y="396" on="1"/>
        <pt x="1184" y="114" on="0"/>
        <pt x="926" y="17" on="1"/>
        <pt x="823" y="-22" on="0"/>
        <pt x="677" y="-22" on="1"/>
        <pt x="464" y="-5" on="1"/>
        <pt x="413" y="-5" on="0"/>
        <pt x="386" y="-15" on="0"/>
        <pt x="314" y="-52" on="0"/>
      </contour>
    </TTGlyph>
    <TTGlyph name="Otilde" xMin="86" yMin="-19" xMax="1345" yMax="1794">
      <contour>
        <pt x="366" y="756" on="1"/>
        <pt x="366" y="725" on="1"/>
        <pt x="366" y="603" on="0"/>
        <pt x="419" y="398" on="0"/>
        <pt x="500" y="279" on="0"/>
        <pt x="639" y="210" on="0"/>
        <pt x="714" y="210" on="1"/>
        <pt x="729" y="211" on="1"/>
        <pt x="744" y="211" on="1"/>
        <pt x="808" y="211" on="0"/>
        <pt x="870" y="246" on="1"/>
        <pt x="1051" y="348" on="0"/>
        <pt x="1051" y="653" on="1"/>
        <pt x="1051" y="656" on="1"/>
        <pt x="1053" y="686" on="1"/>
        <pt x="1053" y="764" on="1"/>
        <pt x="1053" y="1113" on="0"/>
        <pt x="845" y="1216" on="1"/>
        <pt x="783" y="1247" on="0"/>
        <pt x="706" y="1247" on="1"/>
        <pt x="691" y="1247" on="1"/>
        <pt x="537" y="1247" on="0"/>
        <pt x="366" y="998" on="0"/>
      </contour>
      <contour>
        <pt x="1064" y="1723" on="1"/>
        <pt x="1064" y="1705" on="1"/>
        <pt x="1064" y="1643" on="0"/>
        <pt x="952" y="1522" on="0"/>
        <pt x="881" y="1522" on="1"/>
        <pt x="855" y="1522" on="1"/>
        <pt x="812" y="1522" on="0"/>
        <pt x="583" y="1611" on="0"/>
        <pt x="524" y="1611" on="0"/>
        <pt x="441" y="1541" on="0"/>
        <pt x="345" y="1541" on="0"/>
        <pt x="345" y="1674" on="0"/>
        <pt x="465" y="1794" on="0"/>
        <pt x="542" y="1794" on="1"/>
        <pt x="560" y="1794" on="1"/>
        <pt x="569" y="1793" on="1"/>
        <pt x="615" y="1793" on="0"/>
        <pt x="836" y="1707" on="0"/>
        <pt x="887" y="1707" on="0"/>
        <pt x="974" y="1774" on="0"/>
        <pt x="1064" y="1774" on="0"/>
      </contour>
      <contour>
        <pt x="716" y="-19" on="1"/>
        <pt x="692" y="-19" on="1"/>
        <pt x="548" y="-18" on="0"/>
        <pt x="432" y="32" on="1"/>
        <pt x="86" y="182" on="0"/>
        <pt x="86" y="700" on="1"/>
        <pt x="87" y="724" on="1"/>
        <pt x="87" y="1234" on="0"/>
        <pt x="439" y="1378" on="1"/>
        <pt x="562" y="1428" on="0"/>
        <pt x="683" y="1428" on="1"/>
        <pt x="731" y="1428" on="1"/>
        <pt x="874" y="1428" on="0"/>
        <pt x="1109" y="1328" on="0"/>
        <pt x="1265" y="1156" on="0"/>
        <pt x="1345" y="874" on="0"/>
        <pt x="1345" y="710" on="1"/>
        <pt x="1344" y="687" on="1"/>
        <pt x="1344" y="529" on="0"/>
        <pt x="1302" y="393" on="1"/>
        <pt x="1222" y="133" on="0"/>
        <pt x="996" y="37" on="1"/>
        <pt x="864" y="-19" on="0"/>
      </contour>
    </TTGlyph>
    <TTGlyph name="P" xMin="139" yMin="2" xMax="1176" yMax="1414">
      <contour>
        <pt x="452" y="823" on="1"/>
        <pt x="452" y="746" on="0"/>
        <pt x="485" y="705" on="0"/>
        <pt x="552" y="705" on="1"/>
        <pt x="637" y="705" on="1"/>
        <pt x="767" y="705" on="0"/>
        <pt x="902" y="840" on="0"/>
        <pt x="902" y="958" on="1"/>
        <pt x="902" y="977" on="1"/>
        <pt x="902" y="1103" on="0"/>
        <pt x="758" y="1235" on="0"/>
        <pt x="625" y="1235" on="1"/>
        <pt x="582" y="1235" on="1"/>
        <pt x="517" y="1235" on="0"/>
        <pt x="460" y="1206" on="0"/>
        <pt x="460" y="1169" on="1"/>
        <pt x="455" y="1129" on="0"/>
        <pt x="455" y="1119" on="1"/>
        <pt x="454" y="1092" on="1"/>
        <pt x="454" y="1052" on="0"/>
        <pt x="454" y="1011" on="1"/>
        <pt x="453" y="985" on="1"/>
        <pt x="453" y="895" on="1"/>
        <pt x="452" y="868" on="1"/>
      </contour>
      <contour>
        <pt x="250" y="2" on="1"/>
        <pt x="139" y="2" on="0"/>
        <pt x="139" y="85" on="1"/>
        <pt x="139" y="125" on="0"/>
        <pt x="175" y="281" on="1"/>
        <pt x="190" y="346" on="0"/>
        <pt x="190" y="485" on="1"/>
        <pt x="191" y="509" on="1"/>
        <pt x="192" y="533" on="0"/>
        <pt x="192" y="556" on="1"/>
        <pt x="194" y="651" on="1"/>
        <pt x="194" y="840" on="1"/>
        <pt x="194" y="1103" on="0"/>
        <pt x="189" y="1229" on="0"/>
        <pt x="161" y="1332" on="0"/>
        <pt x="161" y="1387" on="0"/>
        <pt x="235" y="1410" on="0"/>
        <pt x="377" y="1410" on="1"/>
        <pt x="446" y="1411" on="1"/>
        <pt x="470" y="1412" on="0"/>
        <pt x="493" y="1412" on="1"/>
        <pt x="541" y="1414" on="1"/>
        <pt x="686" y="1414" on="1"/>
        <pt x="1045" y="1414" on="0"/>
        <pt x="1145" y="1169" on="1"/>
        <pt x="1176" y="1092" on="0"/>
        <pt x="1176" y="1004" on="1"/>
        <pt x="1176" y="979" on="1"/>
        <pt x="1176" y="773" on="0"/>
        <pt x="1032" y="650" on="1"/>
        <pt x="944" y="575" on="0"/>
        <pt x="638" y="523" on="0"/>
        <pt x="470" y="434" on="0"/>
        <pt x="470" y="377" on="1"/>
        <pt x="470" y="354" on="0"/>
        <pt x="493" y="253" on="0"/>
        <pt x="493" y="96" on="0"/>
        <pt x="399" y="2" on="0"/>
        <pt x="295" y="2" on="1"/>
      </contour>
    </TTGlyph>
    <TTGlyph name="Q" xMin="86" yMin="-229" xMax="1361" yMax="1436">
      <contour>
        <pt x="736" y="1243" on="1"/>
        <pt x="703" y="1243" on="1"/>
        <pt x="623" y="1243" on="0"/>
        <pt x="487" y="1158" on="0"/>
        <pt x="442" y="1083" on="1"/>
        <pt x="369" y="961" on="0"/>
        <pt x="369" y="723" on="1"/>
        <pt x="369" y="690" on="1"/>
        <pt x="369" y="555" on="0"/>
        <pt x="402" y="449" on="1"/>
        <pt x="435" y="342" on="0"/>
        <pt x="474" y="292" on="1"/>
        <pt x="559" y="183" on="0"/>
        <pt x="712" y="183" on="1"/>
        <pt x="795" y="183" on="0"/>
        <pt x="906" y="251" on="0"/>
        <pt x="1079" y="493" on="0"/>
        <pt x="1079" y="697" on="1"/>
        <pt x="1079" y="745" on="1"/>
        <pt x="1079" y="856" on="0"/>
        <pt x="1023" y="1059" on="0"/>
        <pt x="937" y="1176" on="0"/>
        <pt x="807" y="1243" on="0"/>
      </contour>
      <contour>
        <pt x="1201" y="-40" on="1"/>
        <pt x="1273" y="-132" on="0"/>
        <pt x="1273" y="-134" on="1"/>
        <pt x="1273" y="-159" on="0"/>
        <pt x="1244" y="-179" on="1"/>
        <pt x="1173" y="-229" on="0"/>
        <pt x="1102" y="-229" on="1"/>
        <pt x="1077" y="-229" on="1"/>
        <pt x="985" y="-229" on="0"/>
        <pt x="779" y="-133" on="1"/>
        <pt x="360" y="62" on="0"/>
        <pt x="189" y="233" on="0"/>
        <pt x="86" y="535" on="0"/>
        <pt x="86" y="708" on="1"/>
        <pt x="86" y="736" on="1"/>
        <pt x="86" y="888" on="0"/>
        <pt x="130" y="1026" on="1"/>
        <pt x="216" y="1300" on="0"/>
        <pt x="477" y="1396" on="1"/>
        <pt x="586" y="1436" on="0"/>
        <pt x="732" y="1436" on="1"/>
        <pt x="1020" y="1436" on="0"/>
        <pt x="1197" y="1248" on="1"/>
        <pt x="1270" y="1171" on="0"/>
        <pt x="1361" y="917" on="0"/>
        <pt x="1361" y="755" on="1"/>
        <pt x="1361" y="728" on="1"/>
        <pt x="1360" y="426" on="0"/>
        <pt x="1198" y="202" on="1"/>
        <pt x="1129" y="107" on="0"/>
        <pt x="1129" y="92" on="1"/>
        <pt x="1130" y="51" on="0"/>
      </contour>
    </TTGlyph>
    <TTGlyph name="R" xMin="128" yMin="-7" xMax="1231" yMax="1406">
      <contour>
        <pt x="520" y="744" on="1"/>
        <pt x="601" y="744" on="1"/>
        <pt x="609" y="745" on="1"/>
        <pt x="634" y="746" on="1"/>
        <pt x="667" y="748" on="1"/>
        <pt x="764" y="748" on="0"/>
        <pt x="886" y="882" on="0"/>
        <pt x="886" y="989" on="1"/>
        <pt x="886" y="998" on="1"/>
        <pt x="886" y="1106" on="0"/>
        <pt x="753" y="1227" on="0"/>
        <pt x="613" y="1227" on="1"/>
        <pt x="580" y="1227" on="1"/>
        <pt x="471" y="1227" on="0"/>
        <pt x="442" y="1174" on="0"/>
        <pt x="442" y="1068" on="1"/>
        <pt x="442" y="954" on="1"/>
        <pt x="441" y="928" on="1"/>
        <pt x="441" y="844" on="1"/>
        <pt x="441" y="783" on="0"/>
        <pt x="471" y="744" on="0"/>
      </contour>
      <contour>
        <pt x="250" y="-7" on="1"/>
        <pt x="128" y="-7" on="0"/>
        <pt x="128" y="121" on="1"/>
        <pt x="128" y="129" on="0"/>
        <pt x="178" y="315" on="0"/>
        <pt x="178" y="392" on="1"/>
        <pt x="179" y="452" on="1"/>
        <pt x="179" y="639" on="1"/>
        <pt x="180" y="671" on="1"/>
        <pt x="180" y="671" on="0"/>
        <pt x="180" y="859" on="1"/>
        <pt x="180" y="1107" on="0"/>
        <pt x="170" y="1212" on="0"/>
        <pt x="146" y="1315" on="0"/>
        <pt x="146" y="1340" on="1"/>
        <pt x="146" y="1384" on="0"/>
        <pt x="328" y="1406" on="0"/>
        <pt x="748" y="1406" on="0"/>
        <pt x="954" y="1359" on="0"/>
        <pt x="1099" y="1243" on="0"/>
        <pt x="1157" y="1094" on="0"/>
        <pt x="1157" y="891" on="0"/>
        <pt x="1081" y="748" on="0"/>
        <pt x="945" y="615" on="0"/>
        <pt x="945" y="533" on="0"/>
        <pt x="1231" y="77" on="0"/>
        <pt x="1231" y="75" on="1"/>
        <pt x="1231" y="25" on="0"/>
        <pt x="1166" y="-3" on="0"/>
        <pt x="1000" y="-3" on="0"/>
        <pt x="900" y="92" on="0"/>
        <pt x="737" y="429" on="0"/>
        <pt x="713" y="461" on="1"/>
        <pt x="653" y="540" on="0"/>
        <pt x="536" y="540" on="0"/>
        <pt x="458" y="462" on="0"/>
        <pt x="458" y="337" on="0"/>
        <pt x="486" y="172" on="0"/>
        <pt x="486" y="144" on="1"/>
        <pt x="486" y="60" on="0"/>
        <pt x="393" y="-7" on="0"/>
        <pt x="279" y="-7" on="1"/>
      </contour>
    </TTGlyph>
    <TTGlyph name="S" xMin="109" yMin="-20" xMax="1080" yMax="1423">
      <contour>
        <pt x="578" y="-20" on="1"/>
        <pt x="241" y="-20" on="0"/>
        <pt x="140" y="124" on="1"/>
        <pt x="109" y="169" on="0"/>
        <pt x="109" y="207" on="1"/>
        <pt x="109" y="237" on="1"/>
        <pt x="109" y="274" on="0"/>
        <pt x="156" y="339" on="0"/>
        <pt x="206" y="339" on="0"/>
        <pt x="478" y="179" on="0"/>
        <pt x="695" y="179" on="0"/>
        <pt x="816" y="272" on="0"/>
        <pt x="816" y="445" on="0"/>
        <pt x="730" y="509" on="1"/>
        <pt x="685" y="542" on="0"/>
        <pt x="305" y="703" on="0"/>
        <pt x="226" y="782" on="1"/>
        <pt x="126" y="882" on="0"/>
        <pt x="126" y="1058" on="1"/>
        <pt x="126" y="1124" on="0"/>
        <pt x="158" y="1194" on="1"/>
        <pt x="222" y="1334" on="0"/>
        <pt x="403" y="1394" on="1"/>
        <pt x="491" y="1423" on="0"/>
        <pt x="572" y="1423" on="1"/>
        <pt x="607" y="1423" on="1"/>
        <pt x="905" y="1423" on="0"/>
        <pt x="991" y="1308" on="1"/>
        <pt x="1021" y="1267" on="0"/>
        <pt x="1021" y="1155" on="0"/>
        <pt x="974" y="1102" on="0"/>
        <pt x="933" y="1102" on="0"/>
        <pt x="773" y="1185" on="1"/>
        <pt x="680" y="1233" on="0"/>
        <pt x="479" y="1233" on="0"/>
        <pt x="384" y="1136" on="0"/>
        <pt x="384" y="977" on="0"/>
        <pt x="486" y="913" on="1"/>
        <pt x="510" y="897" on="0"/>
        <pt x="700" y="816" on="1"/>
        <pt x="890" y="734" on="0"/>
        <pt x="960" y="668" on="1"/>
        <pt x="1080" y="554" on="0"/>
        <pt x="1080" y="385" on="1"/>
        <pt x="1080" y="212" on="0"/>
        <pt x="824" y="-20" on="0"/>
        <pt x="613" y="-20" on="1"/>
      </contour>
    </TTGlyph>
    <TTGlyph name="Scaron" xMin="91" yMin="0" xMax="1091" yMax="1852">
      <contour>
        <pt x="591" y="1506" on="1"/>
        <pt x="574" y="1506" on="1"/>
        <pt x="515" y="1506" on="0"/>
        <pt x="470" y="1559" on="1"/>
        <pt x="282" y="1781" on="0"/>
        <pt x="282" y="1809" on="1"/>
        <pt x="282" y="1817" on="1"/>
        <pt x="282" y="1852" on="0"/>
        <pt x="346" y="1852" on="1"/>
        <pt x="370" y="1852" on="1"/>
        <pt x="423" y="1852" on="0"/>
        <pt x="600" y="1700" on="0"/>
        <pt x="607" y="1700" on="0"/>
        <pt x="681" y="1774" on="0"/>
        <pt x="705" y="1796" on="1"/>
        <pt x="766" y="1852" on="0"/>
        <pt x="828" y="1852" on="1"/>
        <pt x="836" y="1852" on="1"/>
        <pt x="910" y="1852" on="0"/>
        <pt x="910" y="1807" on="1"/>
        <pt x="910" y="1752" on="0"/>
        <pt x="727" y="1569" on="1"/>
        <pt x="664" y="1506" on="0"/>
      </contour>
      <contour>
        <pt x="590" y="1424" on="1"/>
        <pt x="1030" y="1424" on="0"/>
        <pt x="1030" y="1223" on="1"/>
        <pt x="1030" y="1172" on="0"/>
        <pt x="987" y="1099" on="0"/>
        <pt x="946" y="1099" on="1"/>
        <pt x="945" y="1099" on="0"/>
        <pt x="753" y="1180" on="1"/>
        <pt x="653" y="1222" on="0"/>
        <pt x="543" y="1222" on="1"/>
        <pt x="501" y="1222" on="0"/>
        <pt x="407" y="1172" on="0"/>
        <pt x="389" y="1136" on="1"/>
        <pt x="374" y="1106" on="0"/>
        <pt x="374" y="1076" on="1"/>
        <pt x="374" y="1037" on="0"/>
        <pt x="400" y="997" on="1"/>
        <pt x="444" y="927" on="0"/>
        <pt x="885" y="765" on="0"/>
        <pt x="1021" y="647" on="0"/>
        <pt x="1091" y="520" on="0"/>
        <pt x="1091" y="431" on="1"/>
        <pt x="1091" y="395" on="1"/>
        <pt x="1091" y="314" on="0"/>
        <pt x="1054" y="234" on="1"/>
        <pt x="984" y="84" on="0"/>
        <pt x="799" y="28" on="1"/>
        <pt x="707" y="0" on="0"/>
        <pt x="595" y="0" on="1"/>
        <pt x="325" y="0" on="0"/>
        <pt x="91" y="120" on="0"/>
        <pt x="91" y="231" on="1"/>
        <pt x="91" y="299" on="0"/>
        <pt x="127" y="342" on="1"/>
        <pt x="143" y="361" on="0"/>
        <pt x="189" y="361" on="0"/>
        <pt x="380" y="267" on="1"/>
        <pt x="500" y="208" on="0"/>
        <pt x="715" y="208" on="0"/>
        <pt x="807" y="307" on="0"/>
        <pt x="807" y="461" on="0"/>
        <pt x="732" y="517" on="1"/>
        <pt x="680" y="556" on="0"/>
        <pt x="296" y="695" on="0"/>
        <pt x="150" y="824" on="0"/>
        <pt x="99" y="960" on="0"/>
        <pt x="99" y="1045" on="1"/>
        <pt x="99" y="1298" on="0"/>
        <pt x="363" y="1391" on="1"/>
        <pt x="457" y="1424" on="0"/>
        <pt x="555" y="1424" on="1"/>
      </contour>
    </TTGlyph>
    <TTGlyph name="T" xMin="48" yMin="-2" xMax="1175" yMax="1411">
      <contour>
        <pt x="990" y="1411" on="1"/>
        <pt x="1102" y="1411" on="0"/>
        <pt x="1175" y="1362" on="0"/>
        <pt x="1175" y="1287" on="1"/>
        <pt x="1175" y="1261" on="1"/>
        <pt x="1175" y="1169" on="0"/>
        <pt x="1115" y="1158" on="1"/>
        <pt x="1112" y="1157" on="0"/>
        <pt x="1107" y="1157" on="1"/>
        <pt x="1078" y="1157" on="0"/>
        <pt x="996" y="1179" on="1"/>
        <pt x="900" y="1204" on="0"/>
        <pt x="807" y="1204" on="0"/>
        <pt x="757" y="1154" on="0"/>
        <pt x="737" y="1034" on="0"/>
        <pt x="737" y="822" on="1"/>
        <pt x="737" y="568" on="1"/>
        <pt x="736" y="540" on="1"/>
        <pt x="736" y="420" on="1"/>
        <pt x="736" y="328" on="0"/>
        <pt x="741" y="286" on="0"/>
        <pt x="765" y="218" on="1"/>
        <pt x="789" y="148" on="0"/>
        <pt x="789" y="94" on="1"/>
        <pt x="789" y="-2" on="0"/>
        <pt x="637" y="-2" on="1"/>
        <pt x="555" y="-2" on="1"/>
        <pt x="419" y="-2" on="0"/>
        <pt x="419" y="110" on="1"/>
        <pt x="419" y="149" on="0"/>
        <pt x="469" y="308" on="0"/>
        <pt x="480" y="427" on="0"/>
        <pt x="480" y="1081" on="0"/>
        <pt x="468" y="1133" on="1"/>
        <pt x="451" y="1205" on="0"/>
        <pt x="365" y="1205" on="1"/>
        <pt x="322" y="1205" on="0"/>
        <pt x="149" y="1150" on="0"/>
        <pt x="124" y="1150" on="1"/>
        <pt x="48" y="1150" on="0"/>
        <pt x="48" y="1350" on="0"/>
        <pt x="123" y="1404" on="0"/>
        <pt x="260" y="1404" on="1"/>
        <pt x="454" y="1408" on="1"/>
        <pt x="708" y="1411" on="1"/>
      </contour>
    </TTGlyph>
    <TTGlyph name="Thorn" xMin="135" yMin="-21" xMax="1151" yMax="1403">
      <contour>
        <pt x="860" y="715" on="1"/>
        <pt x="860" y="734" on="1"/>
        <pt x="860" y="854" on="0"/>
        <pt x="735" y="991" on="0"/>
        <pt x="622" y="991" on="1"/>
        <pt x="557" y="991" on="1"/>
        <pt x="490" y="991" on="0"/>
        <pt x="468" y="957" on="1"/>
        <pt x="457" y="940" on="0"/>
        <pt x="457" y="861" on="1"/>
        <pt x="457" y="570" on="1"/>
        <pt x="457" y="500" on="0"/>
        <pt x="471" y="486" on="1"/>
        <pt x="500" y="457" on="0"/>
        <pt x="557" y="457" on="1"/>
        <pt x="614" y="457" on="1"/>
        <pt x="734" y="457" on="0"/>
        <pt x="860" y="596" on="0"/>
      </contour>
      <contour>
        <pt x="509" y="146" on="1"/>
        <pt x="509" y="-21" on="0"/>
        <pt x="319" y="-21" on="1"/>
        <pt x="296" y="-21" on="1"/>
        <pt x="203" y="-21" on="0"/>
        <pt x="141" y="20" on="0"/>
        <pt x="141" y="115" on="0"/>
        <pt x="186" y="275" on="0"/>
        <pt x="186" y="366" on="1"/>
        <pt x="187" y="390" on="1"/>
        <pt x="187" y="1041" on="1"/>
        <pt x="187" y="1129" on="0"/>
        <pt x="135" y="1313" on="0"/>
        <pt x="135" y="1329" on="1"/>
        <pt x="135" y="1375" on="0"/>
        <pt x="196" y="1403" on="0"/>
        <pt x="257" y="1403" on="1"/>
        <pt x="303" y="1403" on="1"/>
        <pt x="397" y="1403" on="0"/>
        <pt x="478" y="1340" on="0"/>
        <pt x="518" y="1212" on="0"/>
        <pt x="535" y="1202" on="1"/>
        <pt x="586" y="1174" on="0"/>
        <pt x="898" y="1140" on="0"/>
        <pt x="1007" y="1059" on="1"/>
        <pt x="1078" y="1006" on="0"/>
        <pt x="1151" y="835" on="0"/>
        <pt x="1151" y="753" on="1"/>
        <pt x="1151" y="702" on="1"/>
        <pt x="1151" y="612" on="0"/>
        <pt x="1073" y="448" on="0"/>
        <pt x="917" y="320" on="0"/>
        <pt x="604" y="274" on="0"/>
        <pt x="538" y="243" on="1"/>
        <pt x="509" y="229" on="0"/>
      </contour>
    </TTGlyph>
    <TTGlyph name="U" xMin="117" yMin="-18" xMax="1296" yMax="1409">
      <contour>
        <pt x="441" y="661" on="1"/>
        <pt x="441" y="374" on="0"/>
        <pt x="580" y="176" on="0"/>
        <pt x="898" y="176" on="0"/>
        <pt x="971" y="313" on="1"/>
        <pt x="1024" y="412" on="0"/>
        <pt x="1024" y="671" on="1"/>
        <pt x="1025" y="708" on="1"/>
        <pt x="1026" y="746" on="0"/>
        <pt x="1026" y="792" on="1"/>
        <pt x="1026" y="893" on="1"/>
        <pt x="1026" y="1046" on="0"/>
        <pt x="997" y="1306" on="0"/>
        <pt x="997" y="1335" on="1"/>
        <pt x="997" y="1409" on="0"/>
        <pt x="1137" y="1409" on="1"/>
        <pt x="1226" y="1409" on="0"/>
        <pt x="1251" y="1376" on="1"/>
        <pt x="1296" y="1316" on="0"/>
        <pt x="1296" y="1198" on="0"/>
        <pt x="1255" y="1056" on="0"/>
        <pt x="1253" y="1020" on="1"/>
        <pt x="1252" y="985" on="1"/>
        <pt x="1253" y="912" on="1"/>
        <pt x="1253" y="765" on="1"/>
        <pt x="1253" y="474" on="0"/>
        <pt x="1236" y="366" on="1"/>
        <pt x="1199" y="135" on="0"/>
        <pt x="984" y="36" on="1"/>
        <pt x="864" y="-18" on="0"/>
        <pt x="708" y="-18" on="1"/>
        <pt x="395" y="-18" on="0"/>
        <pt x="262" y="176" on="1"/>
        <pt x="205" y="259" on="0"/>
        <pt x="176" y="436" on="0"/>
        <pt x="176" y="974" on="0"/>
        <pt x="165" y="1076" on="0"/>
        <pt x="117" y="1198" on="0"/>
        <pt x="117" y="1234" on="1"/>
        <pt x="117" y="1264" on="1"/>
        <pt x="117" y="1332" on="0"/>
        <pt x="170" y="1376" on="1"/>
        <pt x="196" y="1398" on="0"/>
        <pt x="394" y="1398" on="0"/>
        <pt x="455" y="1339" on="0"/>
        <pt x="455" y="1269" on="1"/>
        <pt x="452" y="1242" on="1"/>
        <pt x="448" y="1213" on="1"/>
        <pt x="438" y="1126" on="0"/>
        <pt x="438" y="950" on="1"/>
        <pt x="440" y="844" on="1"/>
        <pt x="441" y="808" on="1"/>
      </contour>
    </TTGlyph>
    <TTGlyph name="Uacute" xMin="98" yMin="-23" xMax="1288" yMax="1861">
      <contour>
        <pt x="628" y="1519" on="1"/>
        <pt x="604" y="1519" on="1"/>
        <pt x="557" y="1519" on="0"/>
        <pt x="557" y="1554" on="1"/>
        <pt x="557" y="1570" on="1"/>
        <pt x="557" y="1626" on="0"/>
        <pt x="727" y="1796" on="1"/>
        <pt x="792" y="1861" on="0"/>
        <pt x="884" y="1861" on="1"/>
        <pt x="902" y="1861" on="1"/>
        <pt x="938" y="1861" on="0"/>
        <pt x="997" y="1822" on="0"/>
        <pt x="997" y="1807" on="1"/>
        <pt x="997" y="1796" on="1"/>
        <pt x="997" y="1732" on="0"/>
        <pt x="800" y="1594" on="1"/>
        <pt x="693" y="1519" on="0"/>
      </contour>
      <contour>
        <pt x="473" y="306" on="1"/>
        <pt x="539" y="178" on="0"/>
        <pt x="887" y="178" on="0"/>
        <pt x="953" y="311" on="1"/>
        <pt x="1001" y="408" on="0"/>
        <pt x="1001" y="1032" on="0"/>
        <pt x="969" y="1256" on="0"/>
        <pt x="969" y="1350" on="0"/>
        <pt x="1035" y="1397" on="0"/>
        <pt x="1218" y="1397" on="0"/>
        <pt x="1240" y="1373" on="1"/>
        <pt x="1288" y="1321" on="0"/>
        <pt x="1288" y="1184" on="0"/>
        <pt x="1247" y="1051" on="0"/>
        <pt x="1239" y="994" on="0"/>
        <pt x="1239" y="461" on="0"/>
        <pt x="1208" y="255" on="0"/>
        <pt x="1146" y="166" on="1"/>
        <pt x="1015" y="-23" on="0"/>
        <pt x="383" y="-23" on="0"/>
        <pt x="246" y="157" on="1"/>
        <pt x="188" y="234" on="0"/>
        <pt x="147" y="441" on="0"/>
        <pt x="147" y="968" on="0"/>
        <pt x="142" y="1048" on="0"/>
        <pt x="98" y="1186" on="0"/>
        <pt x="98" y="1216" on="1"/>
        <pt x="98" y="1325" on="0"/>
        <pt x="149" y="1373" on="1"/>
        <pt x="175" y="1398" on="0"/>
        <pt x="374" y="1398" on="0"/>
        <pt x="460" y="1336" on="0"/>
        <pt x="460" y="1269" on="1"/>
        <pt x="460" y="1250" on="0"/>
        <pt x="453" y="1202" on="1"/>
        <pt x="425" y="1012" on="0"/>
        <pt x="425" y="399" on="0"/>
      </contour>
    </TTGlyph>
    <TTGlyph name="Ucircumflex" xMin="98" yMin="-27" xMax="1287" yMax="1847">
      <contour>
        <pt x="1025" y="1556" on="1"/>
        <pt x="1025" y="1549" on="1"/>
        <pt x="1025" y="1515" on="0"/>
        <pt x="879" y="1515" on="0"/>
        <pt x="816" y="1573" on="1"/>
        <pt x="712" y="1669" on="0"/>
        <pt x="706" y="1669" on="1"/>
        <pt x="597" y="1577" on="1"/>
        <pt x="521" y="1513" on="0"/>
        <pt x="462" y="1513" on="1"/>
        <pt x="454" y="1514" on="1"/>
        <pt x="445" y="1514" on="1"/>
        <pt x="383" y="1514" on="0"/>
        <pt x="383" y="1550" on="1"/>
        <pt x="383" y="1568" on="0"/>
        <pt x="412" y="1609" on="1"/>
        <pt x="498" y="1730" on="0"/>
        <pt x="586" y="1804" on="1"/>
        <pt x="637" y="1847" on="0"/>
        <pt x="703" y="1847" on="1"/>
        <pt x="711" y="1847" on="1"/>
        <pt x="779" y="1847" on="0"/>
        <pt x="820" y="1809" on="1"/>
        <pt x="1025" y="1621" on="0"/>
      </contour>
      <contour>
        <pt x="423" y="1006" on="0"/>
        <pt x="423" y="395" on="0"/>
        <pt x="513" y="224" on="0"/>
        <pt x="642" y="174" on="0"/>
        <pt x="722" y="174" on="1"/>
        <pt x="901" y="174" on="0"/>
        <pt x="965" y="337" on="1"/>
        <pt x="1001" y="429" on="0"/>
        <pt x="1001" y="1024" on="0"/>
        <pt x="969" y="1250" on="0"/>
        <pt x="969" y="1271" on="1"/>
        <pt x="969" y="1345" on="0"/>
        <pt x="1035" y="1392" on="0"/>
        <pt x="1218" y="1392" on="0"/>
        <pt x="1240" y="1368" on="1"/>
        <pt x="1287" y="1316" on="0"/>
        <pt x="1287" y="1182" on="0"/>
        <pt x="1246" y="1038" on="0"/>
        <pt x="1240" y="992" on="0"/>
        <pt x="1240" y="453" on="0"/>
        <pt x="1206" y="250" on="0"/>
        <pt x="1145" y="162" on="1"/>
        <pt x="1014" y="-26" on="0"/>
        <pt x="700" y="-26" on="1"/>
        <pt x="699" y="-26" on="0"/>
        <pt x="699" y="-27" on="1"/>
        <pt x="386" y="-27" on="0"/>
        <pt x="246" y="152" on="1"/>
        <pt x="180" y="238" on="0"/>
        <pt x="146" y="461" on="0"/>
        <pt x="146" y="960" on="0"/>
        <pt x="141" y="1040" on="0"/>
        <pt x="98" y="1178" on="0"/>
        <pt x="98" y="1209" on="1"/>
        <pt x="98" y="1393" on="0"/>
        <pt x="233" y="1393" on="1"/>
        <pt x="267" y="1393" on="1"/>
        <pt x="374" y="1393" on="0"/>
        <pt x="457" y="1333" on="0"/>
        <pt x="457" y="1264" on="1"/>
        <pt x="457" y="1238" on="0"/>
        <pt x="452" y="1205" on="1"/>
      </contour>
    </TTGlyph>
    <TTGlyph name="Udieresis" xMin="91" yMin="-25" xMax="1287" yMax="1790">
      <contour>
        <pt x="360" y="1670" on="1"/>
        <pt x="360" y="1670" on="0"/>
        <pt x="363" y="1705" on="1"/>
        <pt x="363" y="1790" on="0"/>
        <pt x="477" y="1790" on="1"/>
        <pt x="509" y="1790" on="1"/>
        <pt x="619" y="1790" on="0"/>
        <pt x="619" y="1704" on="1"/>
        <pt x="621" y="1696" on="0"/>
        <pt x="621" y="1691" on="1"/>
        <pt x="623" y="1669" on="1"/>
        <pt x="623" y="1651" on="1"/>
        <pt x="623" y="1539" on="0"/>
        <pt x="532" y="1539" on="1"/>
        <pt x="524" y="1537" on="0"/>
        <pt x="519" y="1537" on="1"/>
        <pt x="496" y="1535" on="1"/>
        <pt x="473" y="1535" on="1"/>
        <pt x="469" y="1536" on="1"/>
        <pt x="460" y="1536" on="1"/>
        <pt x="450" y="1538" on="0"/>
        <pt x="413" y="1538" on="0"/>
        <pt x="364" y="1579" on="0"/>
        <pt x="364" y="1616" on="1"/>
        <pt x="361" y="1634" on="1"/>
        <pt x="359" y="1661" on="1"/>
        <pt x="359" y="1665" on="1"/>
      </contour>
      <contour>
        <pt x="1034" y="1612" on="1"/>
        <pt x="1034" y="1540" on="0"/>
        <pt x="954" y="1540" on="1"/>
        <pt x="936" y="1537" on="1"/>
        <pt x="914" y="1535" on="1"/>
        <pt x="890" y="1535" on="1"/>
        <pt x="872" y="1537" on="1"/>
        <pt x="851" y="1540" on="1"/>
        <pt x="775" y="1540" on="0"/>
        <pt x="775" y="1660" on="1"/>
        <pt x="775" y="1665" on="1"/>
        <pt x="776" y="1669" on="1"/>
        <pt x="776" y="1683" on="1"/>
        <pt x="779" y="1703" on="0"/>
        <pt x="779" y="1704" on="1"/>
        <pt x="779" y="1743" on="0"/>
        <pt x="829" y="1785" on="0"/>
        <pt x="861" y="1785" on="1"/>
        <pt x="874" y="1788" on="1"/>
        <pt x="896" y="1790" on="1"/>
        <pt x="929" y="1790" on="1"/>
        <pt x="960" y="1786" on="1"/>
        <pt x="991" y="1786" on="0"/>
        <pt x="1036" y="1741" on="0"/>
        <pt x="1036" y="1701" on="1"/>
        <pt x="1039" y="1674" on="1"/>
        <pt x="1039" y="1647" on="1"/>
        <pt x="1034" y="1622" on="0"/>
      </contour>
      <contour>
        <pt x="418" y="1022" on="0"/>
        <pt x="418" y="401" on="0"/>
        <pt x="507" y="229" on="0"/>
        <pt x="636" y="177" on="0"/>
        <pt x="801" y="177" on="0"/>
        <pt x="930" y="258" on="0"/>
        <pt x="999" y="429" on="0"/>
        <pt x="999" y="1035" on="0"/>
        <pt x="967" y="1257" on="0"/>
        <pt x="967" y="1352" on="0"/>
        <pt x="1035" y="1397" on="0"/>
        <pt x="1217" y="1397" on="0"/>
        <pt x="1239" y="1373" on="1"/>
        <pt x="1287" y="1321" on="0"/>
        <pt x="1287" y="1191" on="0"/>
        <pt x="1245" y="1043" on="0"/>
        <pt x="1238" y="989" on="0"/>
        <pt x="1238" y="457" on="0"/>
        <pt x="1207" y="256" on="0"/>
        <pt x="1145" y="166" on="1"/>
        <pt x="1013" y="-25" on="0"/>
        <pt x="688" y="-25" on="1"/>
        <pt x="686" y="-25" on="0"/>
        <pt x="685" y="-25" on="1"/>
        <pt x="358" y="-25" on="0"/>
        <pt x="221" y="183" on="1"/>
        <pt x="170" y="260" on="0"/>
        <pt x="139" y="465" on="0"/>
        <pt x="139" y="967" on="0"/>
        <pt x="134" y="1045" on="0"/>
        <pt x="91" y="1183" on="0"/>
        <pt x="91" y="1215" on="1"/>
        <pt x="91" y="1247" on="1"/>
        <pt x="91" y="1324" on="0"/>
        <pt x="140" y="1373" on="1"/>
        <pt x="165" y="1398" on="0"/>
        <pt x="227" y="1398" on="1"/>
        <pt x="261" y="1398" on="1"/>
        <pt x="369" y="1398" on="0"/>
        <pt x="452" y="1338" on="0"/>
        <pt x="452" y="1270" on="1"/>
        <pt x="452" y="1244" on="0"/>
        <pt x="447" y="1211" on="1"/>
      </contour>
    </TTGlyph>
    <TTGlyph name="Ugrave" xMin="98" yMin="-26" xMax="1287" yMax="1857">
      <contour>
        <pt x="855" y="1565" on="1"/>
        <pt x="855" y="1549" on="1"/>
        <pt x="855" y="1512" on="0"/>
        <pt x="796" y="1512" on="1"/>
        <pt x="790" y="1513" on="1"/>
        <pt x="784" y="1513" on="1"/>
        <pt x="716" y="1513" on="0"/>
        <pt x="607" y="1589" on="1"/>
        <pt x="417" y="1722" on="0"/>
        <pt x="417" y="1795" on="1"/>
        <pt x="417" y="1800" on="1"/>
        <pt x="417" y="1816" on="0"/>
        <pt x="479" y="1857" on="0"/>
        <pt x="519" y="1857" on="1"/>
        <pt x="525" y="1857" on="1"/>
        <pt x="543" y="1854" on="0"/>
        <pt x="555" y="1854" on="1"/>
        <pt x="621" y="1854" on="0"/>
        <pt x="749" y="1740" on="0"/>
        <pt x="830" y="1624" on="1"/>
        <pt x="855" y="1588" on="0"/>
      </contour>
      <contour>
        <pt x="98" y="1211" on="1"/>
        <pt x="98" y="1394" on="0"/>
        <pt x="233" y="1394" on="1"/>
        <pt x="267" y="1394" on="1"/>
        <pt x="374" y="1394" on="0"/>
        <pt x="457" y="1334" on="0"/>
        <pt x="457" y="1265" on="1"/>
        <pt x="456" y="1239" on="0"/>
        <pt x="450" y="1195" on="1"/>
        <pt x="422" y="1012" on="0"/>
        <pt x="422" y="715" on="1"/>
        <pt x="422" y="710" on="0"/>
        <pt x="422" y="704" on="1"/>
        <pt x="422" y="399" on="0"/>
        <pt x="513" y="225" on="0"/>
        <pt x="588" y="196" on="1"/>
        <pt x="640" y="176" on="0"/>
        <pt x="722" y="176" on="1"/>
        <pt x="900" y="176" on="0"/>
        <pt x="965" y="338" on="1"/>
        <pt x="1001" y="426" on="0"/>
        <pt x="1001" y="1026" on="0"/>
        <pt x="969" y="1251" on="0"/>
        <pt x="969" y="1273" on="1"/>
        <pt x="969" y="1346" on="0"/>
        <pt x="1035" y="1393" on="0"/>
        <pt x="1218" y="1393" on="0"/>
        <pt x="1240" y="1369" on="1"/>
        <pt x="1287" y="1317" on="0"/>
        <pt x="1287" y="1183" on="0"/>
        <pt x="1246" y="1039" on="0"/>
        <pt x="1240" y="993" on="0"/>
        <pt x="1240" y="454" on="0"/>
        <pt x="1223" y="352" on="1"/>
        <pt x="1206" y="252" on="0"/>
        <pt x="1144" y="162" on="1"/>
        <pt x="1014" y="-25" on="0"/>
        <pt x="700" y="-26" on="1"/>
        <pt x="386" y="-26" on="0"/>
        <pt x="246" y="153" on="1"/>
        <pt x="180" y="239" on="0"/>
        <pt x="146" y="462" on="0"/>
        <pt x="146" y="962" on="0"/>
        <pt x="141" y="1045" on="0"/>
        <pt x="98" y="1182" on="0"/>
      </contour>
    </TTGlyph>
    <TTGlyph name="V" xMin="62" yMin="-6" xMax="1295" yMax="1405">
      <contour>
        <pt x="710" y="342" on="1"/>
        <pt x="739" y="342" on="0"/>
        <pt x="906" y="877" on="1"/>
        <pt x="979" y="1108" on="0"/>
        <pt x="999" y="1307" on="0"/>
        <pt x="1013" y="1340" on="1"/>
        <pt x="1042" y="1405" on="0"/>
        <pt x="1167" y="1405" on="1"/>
        <pt x="1242" y="1405" on="0"/>
        <pt x="1295" y="1366" on="0"/>
        <pt x="1295" y="1261" on="0"/>
        <pt x="1199" y="1073" on="0"/>
        <pt x="1176" y="1006" on="1"/>
        <pt x="900" y="203" on="0"/>
        <pt x="832" y="73" on="1"/>
        <pt x="791" y="-6" on="0"/>
        <pt x="699" y="-6" on="1"/>
        <pt x="670" y="-6" on="1"/>
        <pt x="586" y="-6" on="0"/>
        <pt x="541" y="85" on="1"/>
        <pt x="512" y="143" on="0"/>
        <pt x="205" y="1009" on="0"/>
        <pt x="161" y="1090" on="1"/>
        <pt x="62" y="1273" on="0"/>
        <pt x="62" y="1283" on="1"/>
        <pt x="62" y="1307" on="1"/>
        <pt x="62" y="1359" on="0"/>
        <pt x="130" y="1394" on="0"/>
        <pt x="298" y="1394" on="0"/>
        <pt x="340" y="1370" on="1"/>
        <pt x="412" y="1330" on="0"/>
        <pt x="458" y="1090" on="0"/>
        <pt x="702" y="342" on="0"/>
      </contour>
    </TTGlyph>
    <TTGlyph name="W" xMin="119" yMin="73" xMax="1805" yMax="1352">
      <contour>
        <pt x="1355" y="521" on="1"/>
        <pt x="1372" y="521" on="0"/>
        <pt x="1536" y="1169" on="0"/>
        <pt x="1545" y="1186" on="1"/>
        <pt x="1582" y="1256" on="0"/>
        <pt x="1681" y="1334" on="0"/>
        <pt x="1759" y="1334" on="1"/>
        <pt x="1805" y="1334" on="0"/>
        <pt x="1805" y="1278" on="1"/>
        <pt x="1805" y="1247" on="1"/>
        <pt x="1805" y="1241" on="0"/>
        <pt x="1563" y="297" on="0"/>
        <pt x="1521" y="186" on="0"/>
        <pt x="1402" y="88" on="0"/>
        <pt x="1335" y="88" on="1"/>
        <pt x="1317" y="88" on="0"/>
        <pt x="1229" y="163" on="0"/>
        <pt x="1139" y="354" on="0"/>
        <pt x="1074" y="540" on="1"/>
        <pt x="992" y="775" on="1"/>
        <pt x="976" y="811" on="1"/>
        <pt x="956" y="810" on="0"/>
        <pt x="780" y="274" on="0"/>
        <pt x="744" y="205" on="1"/>
        <pt x="674" y="73" on="0"/>
        <pt x="588" y="73" on="1"/>
        <pt x="544" y="73" on="0"/>
        <pt x="437" y="165" on="0"/>
        <pt x="384" y="281" on="0"/>
        <pt x="119" y="1161" on="0"/>
        <pt x="119" y="1233" on="1"/>
        <pt x="119" y="1265" on="1"/>
        <pt x="119" y="1322" on="0"/>
        <pt x="164" y="1352" on="0"/>
        <pt x="261" y="1352" on="0"/>
        <pt x="376" y="1271" on="0"/>
        <pt x="420" y="1170" on="1"/>
        <pt x="438" y="1130" on="0"/>
        <pt x="505" y="875" on="0"/>
        <pt x="616" y="502" on="0"/>
        <pt x="643" y="502" on="0"/>
        <pt x="827" y="1216" on="0"/>
        <pt x="875" y="1307" on="0"/>
        <pt x="1044" y="1307" on="0"/>
        <pt x="1102" y="1265" on="0"/>
        <pt x="1154" y="1167" on="0"/>
        <pt x="1326" y="521" on="0"/>
      </contour>
    </TTGlyph>
    <TTGlyph name="X" xMin="96" yMin="-1" xMax="1262" yMax="1402">
      <contour>
        <pt x="1262" y="63" on="1"/>
        <pt x="1262" y="-1" on="0"/>
        <pt x="1083" y="-1" on="1"/>
        <pt x="1048" y="-1" on="1"/>
        <pt x="956" y="-1" on="0"/>
        <pt x="906" y="54" on="1"/>
        <pt x="886" y="76" on="0"/>
        <pt x="845" y="200" on="0"/>
        <pt x="807" y="272" on="1"/>
        <pt x="684" y="503" on="0"/>
        <pt x="656" y="503" on="1"/>
        <pt x="610" y="503" on="0"/>
        <pt x="477" y="258" on="1"/>
        <pt x="452" y="211" on="0"/>
        <pt x="409" y="64" on="0"/>
        <pt x="392" y="45" on="1"/>
        <pt x="355" y="3" on="0"/>
        <pt x="152" y="3" on="0"/>
        <pt x="96" y="38" on="0"/>
        <pt x="96" y="80" on="1"/>
        <pt x="96" y="85" on="0"/>
        <pt x="490" y="653" on="0"/>
        <pt x="490" y="698" on="1"/>
        <pt x="490" y="761" on="0"/>
        <pt x="305" y="1039" on="1"/>
        <pt x="232" y="1149" on="0"/>
        <pt x="201" y="1183" on="1"/>
        <pt x="102" y="1293" on="0"/>
        <pt x="102" y="1372" on="0"/>
        <pt x="184" y="1397" on="0"/>
        <pt x="411" y="1397" on="0"/>
        <pt x="461" y="1346" on="1"/>
        <pt x="484" y="1322" on="0"/>
        <pt x="529" y="1189" on="0"/>
        <pt x="543" y="1163" on="1"/>
        <pt x="660" y="936" on="0"/>
        <pt x="721" y="936" on="0"/>
        <pt x="849" y="1148" on="1"/>
        <pt x="886" y="1210" on="0"/>
        <pt x="928" y="1343" on="0"/>
        <pt x="945" y="1361" on="1"/>
        <pt x="983" y="1402" on="0"/>
        <pt x="1192" y="1402" on="0"/>
        <pt x="1235" y="1370" on="0"/>
        <pt x="1235" y="1294" on="0"/>
        <pt x="1095" y="1141" on="0"/>
        <pt x="1032" y="1051" on="1"/>
        <pt x="852" y="791" on="0"/>
        <pt x="852" y="691" on="0"/>
        <pt x="1262" y="66" on="0"/>
      </contour>
    </TTGlyph>
    <TTGlyph name="Y" xMin="62" yMin="-8" xMax="1237" yMax="1403">
      <contour>
        <pt x="1105" y="1403" on="1"/>
        <pt x="1132" y="1403" on="1"/>
        <pt x="1237" y="1403" on="0"/>
        <pt x="1237" y="1345" on="1"/>
        <pt x="1237" y="1295" on="0"/>
        <pt x="1118" y="1130" on="0"/>
        <pt x="1005" y="910" on="0"/>
        <pt x="874" y="683" on="0"/>
        <pt x="783" y="459" on="0"/>
        <pt x="783" y="320" on="1"/>
        <pt x="783" y="275" on="0"/>
        <pt x="816" y="137" on="0"/>
        <pt x="816" y="43" on="0"/>
        <pt x="766" y="10" on="1"/>
        <pt x="739" y="-8" on="0"/>
        <pt x="678" y="-8" on="1"/>
        <pt x="652" y="-8" on="1"/>
        <pt x="539" y="-8" on="0"/>
        <pt x="477" y="36" on="0"/>
        <pt x="477" y="100" on="1"/>
        <pt x="477" y="113" on="0"/>
        <pt x="531" y="316" on="0"/>
        <pt x="531" y="512" on="0"/>
        <pt x="452" y="677" on="0"/>
        <pt x="187" y="1134" on="0"/>
        <pt x="171" y="1154" on="1"/>
        <pt x="62" y="1293" on="0"/>
        <pt x="62" y="1363" on="0"/>
        <pt x="103" y="1375" on="1"/>
        <pt x="161" y="1392" on="0"/>
        <pt x="365" y="1392" on="0"/>
        <pt x="413" y="1328" on="1"/>
        <pt x="424" y="1314" on="0"/>
        <pt x="480" y="1169" on="0"/>
        <pt x="669" y="799" on="0"/>
        <pt x="670" y="799" on="1"/>
        <pt x="718" y="799" on="0"/>
        <pt x="853" y="1080" on="1"/>
        <pt x="881" y="1139" on="0"/>
        <pt x="919" y="1314" on="0"/>
        <pt x="930" y="1332" on="1"/>
        <pt x="974" y="1403" on="0"/>
      </contour>
    </TTGlyph>
    <TTGlyph name="Yacute" xMin="38" yMin="-2" xMax="1229" yMax="1869">
      <contour>
        <pt x="568" y="1523" on="1"/>
        <pt x="545" y="1523" on="1"/>
        <pt x="500" y="1523" on="0"/>
        <pt x="500" y="1560" on="1"/>
        <pt x="500" y="1576" on="1"/>
        <pt x="500" y="1651" on="0"/>
        <pt x="684" y="1815" on="1"/>
        <pt x="745" y="1869" on="0"/>
        <pt x="834" y="1869" on="1"/>
        <pt x="847" y="1869" on="1"/>
        <pt x="885" y="1869" on="0"/>
        <pt x="940" y="1826" on="0"/>
        <pt x="940" y="1811" on="1"/>
        <pt x="940" y="1806" on="1"/>
        <pt x="939" y="1801" on="1"/>
        <pt x="939" y="1736" on="0"/>
        <pt x="742" y="1598" on="1"/>
        <pt x="635" y="1523" on="0"/>
      </contour>
      <contour>
        <pt x="611" y="-2" on="1"/>
        <pt x="447" y="-2" on="0"/>
        <pt x="447" y="102" on="1"/>
        <pt x="447" y="150" on="0"/>
        <pt x="503" y="322" on="0"/>
        <pt x="503" y="519" on="0"/>
        <pt x="454" y="621" on="1"/>
        <pt x="447" y="636" on="0"/>
        <pt x="166" y="1130" on="0"/>
        <pt x="136" y="1167" on="1"/>
        <pt x="38" y="1288" on="0"/>
        <pt x="38" y="1341" on="1"/>
        <pt x="38" y="1371" on="0"/>
        <pt x="102" y="1398" on="0"/>
        <pt x="201" y="1398" on="1"/>
        <pt x="354" y="1398" on="0"/>
        <pt x="417" y="1323" on="1"/>
        <pt x="441" y="1295" on="0"/>
        <pt x="483" y="1127" on="0"/>
        <pt x="508" y="1075" on="1"/>
        <pt x="641" y="793" on="0"/>
        <pt x="660" y="793" on="1"/>
        <pt x="697" y="793" on="0"/>
        <pt x="823" y="1060" on="1"/>
        <pt x="856" y="1130" on="0"/>
        <pt x="891" y="1305" on="0"/>
        <pt x="914" y="1333" on="1"/>
        <pt x="965" y="1395" on="0"/>
        <pt x="1126" y="1395" on="1"/>
        <pt x="1229" y="1395" on="0"/>
        <pt x="1229" y="1292" on="0"/>
        <pt x="1145" y="1188" on="1"/>
        <pt x="1108" y="1142" on="0"/>
        <pt x="857" y="684" on="0"/>
        <pt x="835" y="633" on="1"/>
        <pt x="789" y="524" on="0"/>
        <pt x="789" y="386" on="1"/>
        <pt x="789" y="329" on="0"/>
        <pt x="829" y="162" on="0"/>
        <pt x="829" y="122" on="1"/>
        <pt x="829" y="43" on="0"/>
        <pt x="769" y="11" on="1"/>
        <pt x="745" y="-2" on="0"/>
        <pt x="666" y="-2" on="1"/>
      </contour>
    </TTGlyph>
    <TTGlyph name="Ydieresis" xMin="53" yMin="-10" xMax="1224" yMax="1788">
      <contour>
        <pt x="579" y="1650" on="1"/>
        <pt x="577" y="1629" on="1"/>
        <pt x="577" y="1595" on="0"/>
        <pt x="531" y="1540" on="0"/>
        <pt x="485" y="1540" on="1"/>
        <pt x="477" y="1538" on="0"/>
        <pt x="473" y="1538" on="1"/>
        <pt x="451" y="1536" on="1"/>
        <pt x="433" y="1536" on="1"/>
        <pt x="399" y="1540" on="1"/>
        <pt x="329" y="1540" on="0"/>
        <pt x="329" y="1612" on="1"/>
        <pt x="326" y="1625" on="1"/>
        <pt x="324" y="1647" on="1"/>
        <pt x="324" y="1674" on="1"/>
        <pt x="328" y="1704" on="1"/>
        <pt x="328" y="1737" on="0"/>
        <pt x="375" y="1784" on="0"/>
        <pt x="413" y="1784" on="1"/>
        <pt x="421" y="1786" on="1"/>
        <pt x="452" y="1788" on="1"/>
        <pt x="461" y="1788" on="1"/>
        <pt x="465" y="1787" on="1"/>
        <pt x="491" y="1785" on="1"/>
        <pt x="495" y="1784" on="0"/>
        <pt x="499" y="1784" on="1"/>
        <pt x="576" y="1784" on="0"/>
        <pt x="576" y="1707" on="1"/>
        <pt x="578" y="1699" on="0"/>
        <pt x="578" y="1695" on="1"/>
        <pt x="580" y="1677" on="1"/>
        <pt x="580" y="1655" on="1"/>
      </contour>
      <contour>
        <pt x="808" y="1541" on="1"/>
        <pt x="740" y="1541" on="0"/>
        <pt x="740" y="1625" on="1"/>
        <pt x="737" y="1651" on="1"/>
        <pt x="737" y="1669" on="1"/>
        <pt x="739" y="1686" on="1"/>
        <pt x="742" y="1707" on="1"/>
        <pt x="742" y="1741" on="0"/>
        <pt x="794" y="1784" on="0"/>
        <pt x="830" y="1784" on="1"/>
        <pt x="852" y="1787" on="1"/>
        <pt x="887" y="1787" on="1"/>
        <pt x="917" y="1783" on="1"/>
        <pt x="989" y="1783" on="0"/>
        <pt x="989" y="1707" on="1"/>
        <pt x="992" y="1695" on="0"/>
        <pt x="992" y="1694" on="1"/>
        <pt x="993" y="1677" on="1"/>
        <pt x="993" y="1650" on="1"/>
        <pt x="989" y="1620" on="1"/>
        <pt x="989" y="1589" on="0"/>
        <pt x="940" y="1540" on="0"/>
        <pt x="899" y="1540" on="1"/>
        <pt x="882" y="1537" on="1"/>
        <pt x="873" y="1537" on="1"/>
        <pt x="860" y="1536" on="1"/>
        <pt x="851" y="1536" on="1"/>
        <pt x="846" y="1537" on="1"/>
        <pt x="817" y="1540" on="1"/>
        <pt x="812" y="1541" on="0"/>
      </contour>
      <contour>
        <pt x="53" y="1270" on="0"/>
        <pt x="53" y="1381" on="0"/>
        <pt x="244" y="1381" on="1"/>
        <pt x="350" y="1381" on="0"/>
        <pt x="396" y="1322" on="1"/>
        <pt x="404" y="1311" on="0"/>
        <pt x="484" y="1133" on="0"/>
        <pt x="549" y="1006" on="0"/>
        <pt x="639" y="795" on="0"/>
        <pt x="653" y="795" on="1"/>
        <pt x="660" y="795" on="0"/>
        <pt x="679" y="820" on="1"/>
        <pt x="825" y="1015" on="0"/>
        <pt x="876" y="1200" on="1"/>
        <pt x="904" y="1298" on="0"/>
        <pt x="911" y="1310" on="1"/>
        <pt x="962" y="1393" on="0"/>
        <pt x="1079" y="1393" on="1"/>
        <pt x="1104" y="1393" on="1"/>
        <pt x="1186" y="1393" on="0"/>
        <pt x="1214" y="1362" on="1"/>
        <pt x="1224" y="1351" on="0"/>
        <pt x="1224" y="1327" on="1"/>
        <pt x="1224" y="1276" on="0"/>
        <pt x="1139" y="1165" on="1"/>
        <pt x="1105" y="1121" on="0"/>
        <pt x="978" y="881" on="0"/>
        <pt x="861" y="681" on="0"/>
        <pt x="826" y="601" on="1"/>
        <pt x="764" y="458" on="0"/>
        <pt x="764" y="311" on="1"/>
        <pt x="764" y="269" on="0"/>
        <pt x="793" y="147" on="0"/>
        <pt x="793" y="114" on="1"/>
        <pt x="793" y="-10" on="0"/>
        <pt x="681" y="-10" on="1"/>
        <pt x="656" y="-10" on="1"/>
        <pt x="541" y="-10" on="0"/>
        <pt x="509" y="4" on="1"/>
        <pt x="459" y="26" on="0"/>
        <pt x="459" y="100" on="1"/>
        <pt x="459" y="124" on="0"/>
        <pt x="515" y="331" on="0"/>
        <pt x="515" y="397" on="1"/>
        <pt x="515" y="518" on="0"/>
        <pt x="457" y="634" on="1"/>
        <pt x="448" y="652" on="0"/>
        <pt x="179" y="1113" on="0"/>
        <pt x="142" y="1159" on="1"/>
      </contour>
    </TTGlyph>
    <TTGlyph name="Z" xMin="90" yMin="-3" xMax="1144" yMax="1409">
      <contour>
        <pt x="654" y="189" on="1"/>
        <pt x="760" y="189" on="0"/>
        <pt x="1039" y="261" on="0"/>
        <pt x="1074" y="261" on="1"/>
        <pt x="1144" y="261" on="0"/>
        <pt x="1144" y="74" on="0"/>
        <pt x="1028" y="-3" on="0"/>
        <pt x="877" y="-3" on="1"/>
        <pt x="383" y="-3" on="1"/>
        <pt x="176" y="-3" on="0"/>
        <pt x="145" y="6" on="1"/>
        <pt x="90" y="22" on="0"/>
        <pt x="90" y="147" on="0"/>
        <pt x="146" y="241" on="1"/>
        <pt x="159" y="262" on="0"/>
        <pt x="755" y="1149" on="0"/>
        <pt x="755" y="1219" on="0"/>
        <pt x="506" y="1219" on="0"/>
        <pt x="220" y="1157" on="0"/>
        <pt x="148" y="1157" on="0"/>
        <pt x="119" y="1220" on="0"/>
        <pt x="119" y="1353" on="0"/>
        <pt x="216" y="1409" on="0"/>
        <pt x="351" y="1409" on="1"/>
        <pt x="741" y="1409" on="1"/>
        <pt x="1007" y="1409" on="0"/>
        <pt x="1051" y="1401" on="1"/>
        <pt x="1118" y="1389" on="0"/>
        <pt x="1118" y="1334" on="1"/>
        <pt x="1118" y="1257" on="0"/>
        <pt x="1057" y="1157" on="1"/>
        <pt x="996" y="1056" on="0"/>
        <pt x="908" y="928" on="1"/>
        <pt x="464" y="284" on="0"/>
        <pt x="464" y="189" on="0"/>
      </contour>
    </TTGlyph>
    <TTGlyph name="Zcaron" xMin="86" yMin="-5" xMax="1138" yMax="1860">
      <contour>
        <pt x="866" y="1860" on="1"/>
        <pt x="882" y="1860" on="1"/>
        <pt x="947" y="1860" on="0"/>
        <pt x="947" y="1827" on="1"/>
        <pt x="947" y="1820" on="1"/>
        <pt x="947" y="1751" on="0"/>
        <pt x="745" y="1566" on="1"/>
        <pt x="696" y="1521" on="0"/>
        <pt x="630" y="1521" on="1"/>
        <pt x="621" y="1522" on="1"/>
        <pt x="613" y="1522" on="1"/>
        <pt x="560" y="1522" on="0"/>
        <pt x="515" y="1564" on="1"/>
        <pt x="317" y="1747" on="0"/>
        <pt x="317" y="1813" on="1"/>
        <pt x="317" y="1820" on="1"/>
        <pt x="317" y="1858" on="0"/>
        <pt x="402" y="1858" on="1"/>
        <pt x="466" y="1858" on="0"/>
        <pt x="577" y="1747" on="1"/>
        <pt x="624" y="1700" on="0"/>
        <pt x="635" y="1700" on="0"/>
        <pt x="734" y="1791" on="0"/>
        <pt x="741" y="1797" on="1"/>
        <pt x="815" y="1860" on="0"/>
      </contour>
      <contour>
        <pt x="466" y="236" on="1"/>
        <pt x="466" y="190" on="0"/>
        <pt x="740" y="190" on="0"/>
        <pt x="1032" y="258" on="0"/>
        <pt x="1064" y="259" on="1"/>
        <pt x="1138" y="259" on="0"/>
        <pt x="1138" y="163" on="1"/>
        <pt x="1138" y="65" on="0"/>
        <pt x="1074" y="30" on="1"/>
        <pt x="1012" y="-5" on="0"/>
        <pt x="859" y="-5" on="1"/>
        <pt x="404" y="-5" on="1"/>
        <pt x="169" y="-5" on="0"/>
        <pt x="135" y="6" on="1"/>
        <pt x="86" y="22" on="0"/>
        <pt x="86" y="145" on="0"/>
        <pt x="168" y="287" on="0"/>
        <pt x="293" y="473" on="1"/>
        <pt x="450" y="706" on="1"/>
        <pt x="737" y="1140" on="0"/>
        <pt x="737" y="1156" on="1"/>
        <pt x="737" y="1188" on="0"/>
        <pt x="693" y="1211" on="0"/>
        <pt x="477" y="1211" on="0"/>
        <pt x="230" y="1147" on="0"/>
        <pt x="177" y="1147" on="1"/>
        <pt x="112" y="1147" on="0"/>
        <pt x="112" y="1347" on="0"/>
        <pt x="222" y="1404" on="0"/>
        <pt x="490" y="1404" on="1"/>
        <pt x="631" y="1404" on="1"/>
        <pt x="989" y="1404" on="0"/>
        <pt x="1043" y="1395" on="1"/>
        <pt x="1111" y="1384" on="0"/>
        <pt x="1111" y="1330" on="1"/>
        <pt x="1111" y="1256" on="0"/>
        <pt x="1047" y="1148" on="1"/>
        <pt x="1041" y="1138" on="0"/>
        <pt x="466" y="268" on="0"/>
      </contour>
    </TTGlyph>
    <TTGlyph name="a" xMin="71" yMin="-18" xMax="1001" yMax="1022">
      <contour>
        <pt x="534" y="161" on="1"/>
        <pt x="590" y="161" on="0"/>
        <pt x="680" y="251" on="0"/>
        <pt x="680" y="295" on="1"/>
        <pt x="682" y="307" on="0"/>
        <pt x="682" y="312" on="1"/>
        <pt x="684" y="347" on="1"/>
        <pt x="684" y="356" on="0"/>
        <pt x="684" y="365" on="1"/>
        <pt x="685" y="388" on="1"/>
        <pt x="685" y="406" on="1"/>
        <pt x="685" y="470" on="0"/>
        <pt x="631" y="470" on="1"/>
        <pt x="596" y="470" on="1"/>
        <pt x="590" y="469" on="1"/>
        <pt x="578" y="469" on="1"/>
        <pt x="463" y="469" on="0"/>
        <pt x="333" y="388" on="0"/>
        <pt x="333" y="321" on="1"/>
        <pt x="333" y="297" on="1"/>
        <pt x="333" y="242" on="0"/>
        <pt x="404" y="161" on="0"/>
        <pt x="454" y="161" on="1"/>
        <pt x="483" y="158" on="1"/>
        <pt x="506" y="158" on="1"/>
        <pt x="524" y="161" on="0"/>
      </contour>
      <contour>
        <pt x="1001" y="84" on="1"/>
        <pt x="1000" y="0" on="0"/>
        <pt x="864" y="0" on="1"/>
        <pt x="796" y="0" on="0"/>
        <pt x="692" y="55" on="0"/>
        <pt x="652" y="55" on="1"/>
        <pt x="649" y="55" on="0"/>
        <pt x="457" y="-18" on="0"/>
        <pt x="376" y="-18" on="1"/>
        <pt x="240" y="-18" on="0"/>
        <pt x="71" y="136" on="0"/>
        <pt x="71" y="260" on="1"/>
        <pt x="71" y="284" on="1"/>
        <pt x="71" y="566" on="0"/>
        <pt x="506" y="606" on="1"/>
        <pt x="585" y="613" on="0"/>
        <pt x="616" y="623" on="1"/>
        <pt x="675" y="643" on="0"/>
        <pt x="675" y="778" on="0"/>
        <pt x="620" y="816" on="1"/>
        <pt x="587" y="839" on="0"/>
        <pt x="477" y="839" on="0"/>
        <pt x="268" y="748" on="0"/>
        <pt x="182" y="748" on="0"/>
        <pt x="134" y="808" on="0"/>
        <pt x="134" y="851" on="1"/>
        <pt x="134" y="924" on="0"/>
        <pt x="369" y="1022" on="0"/>
        <pt x="508" y="1022" on="1"/>
        <pt x="774" y="1022" on="0"/>
        <pt x="870" y="884" on="1"/>
        <pt x="913" y="823" on="0"/>
        <pt x="938" y="670" on="0"/>
        <pt x="938" y="309" on="0"/>
        <pt x="953" y="231" on="0"/>
        <pt x="1001" y="138" on="0"/>
        <pt x="1001" y="105" on="1"/>
      </contour>
    </TTGlyph>
    <TTGlyph name="aacute" xMin="67" yMin="-10" xMax="1001" yMax="1495">
      <contour>
        <pt x="451" y="189" on="1"/>
        <pt x="485" y="189" on="1"/>
        <pt x="558" y="189" on="0"/>
        <pt x="673" y="278" on="0"/>
        <pt x="673" y="323" on="1"/>
        <pt x="677" y="350" on="1"/>
        <pt x="677" y="361" on="1"/>
        <pt x="678" y="366" on="1"/>
        <pt x="678" y="377" on="1"/>
        <pt x="679" y="388" on="1"/>
        <pt x="679" y="416" on="1"/>
        <pt x="680" y="433" on="1"/>
        <pt x="680" y="493" on="0"/>
        <pt x="636" y="493" on="1"/>
        <pt x="596" y="493" on="1"/>
        <pt x="591" y="492" on="1"/>
        <pt x="562" y="490" on="1"/>
        <pt x="533" y="487" on="1"/>
        <pt x="442" y="487" on="0"/>
        <pt x="330" y="389" on="0"/>
        <pt x="330" y="329" on="1"/>
        <pt x="330" y="305" on="1"/>
        <pt x="330" y="257" on="0"/>
        <pt x="398" y="189" on="0"/>
      </contour>
      <contour>
        <pt x="475" y="1131" on="1"/>
        <pt x="453" y="1131" on="1"/>
        <pt x="391" y="1131" on="0"/>
        <pt x="391" y="1168" on="1"/>
        <pt x="391" y="1184" on="1"/>
        <pt x="391" y="1260" on="0"/>
        <pt x="542" y="1430" on="1"/>
        <pt x="600" y="1495" on="0"/>
        <pt x="686" y="1495" on="1"/>
        <pt x="704" y="1495" on="1"/>
        <pt x="741" y="1495" on="0"/>
        <pt x="788" y="1467" on="1"/>
        <pt x="808" y="1455" on="0"/>
        <pt x="808" y="1438" on="1"/>
        <pt x="808" y="1427" on="1"/>
        <pt x="808" y="1387" on="0"/>
        <pt x="552" y="1131" on="0"/>
      </contour>
      <contour>
        <pt x="1001" y="90" on="1"/>
        <pt x="1001" y="90" on="0"/>
        <pt x="1001" y="89" on="1"/>
        <pt x="1001" y="6" on="0"/>
        <pt x="858" y="6" on="1"/>
        <pt x="788" y="6" on="0"/>
        <pt x="682" y="63" on="0"/>
        <pt x="646" y="63" on="1"/>
        <pt x="644" y="63" on="0"/>
        <pt x="448" y="-10" on="0"/>
        <pt x="371" y="-10" on="1"/>
        <pt x="347" y="-10" on="1"/>
        <pt x="223" y="-10" on="0"/>
        <pt x="67" y="156" on="0"/>
        <pt x="67" y="267" on="1"/>
        <pt x="67" y="291" on="1"/>
        <pt x="67" y="542" on="0"/>
        <pt x="405" y="598" on="1"/>
        <pt x="437" y="603" on="0"/>
        <pt x="591" y="619" on="0"/>
        <pt x="611" y="626" on="1"/>
        <pt x="670" y="646" on="0"/>
        <pt x="670" y="685" on="1"/>
        <pt x="670" y="753" on="0"/>
        <pt x="606" y="841" on="0"/>
        <pt x="482" y="841" on="0"/>
        <pt x="270" y="754" on="0"/>
        <pt x="180" y="754" on="0"/>
        <pt x="129" y="811" on="0"/>
        <pt x="129" y="857" on="1"/>
        <pt x="129" y="923" on="0"/>
        <pt x="217" y="964" on="1"/>
        <pt x="346" y="1024" on="0"/>
        <pt x="492" y="1024" on="1"/>
        <pt x="768" y="1024" on="0"/>
        <pt x="868" y="888" on="1"/>
        <pt x="905" y="838" on="0"/>
        <pt x="937" y="690" on="0"/>
        <pt x="937" y="334" on="0"/>
        <pt x="948" y="250" on="0"/>
        <pt x="1001" y="145" on="0"/>
        <pt x="1001" y="110" on="1"/>
      </contour>
    </TTGlyph>
    <TTGlyph name="acircumflex" xMin="71" yMin="-14" xMax="1004" yMax="1500">
      <contour>
        <pt x="462" y="176" on="1"/>
        <pt x="485" y="176" on="1"/>
        <pt x="557" y="176" on="0"/>
        <pt x="680" y="258" on="0"/>
        <pt x="680" y="312" on="1"/>
        <pt x="682" y="322" on="0"/>
        <pt x="682" y="328" on="1"/>
        <pt x="685" y="360" on="1"/>
        <pt x="685" y="377" on="1"/>
        <pt x="686" y="388" on="1"/>
        <pt x="686" y="416" on="1"/>
        <pt x="686" y="476" on="0"/>
        <pt x="621" y="476" on="1"/>
        <pt x="592" y="476" on="1"/>
        <pt x="586" y="475" on="1"/>
        <pt x="575" y="475" on="1"/>
        <pt x="512" y="470" on="1"/>
        <pt x="500" y="468" on="0"/>
        <pt x="495" y="468" on="1"/>
        <pt x="427" y="468" on="0"/>
        <pt x="367" y="408" on="1"/>
        <pt x="331" y="372" on="0"/>
        <pt x="331" y="303" on="1"/>
        <pt x="331" y="297" on="1"/>
        <pt x="331" y="241" on="0"/>
        <pt x="407" y="176" on="0"/>
      </contour>
      <contour>
        <pt x="779" y="1138" on="1"/>
        <pt x="762" y="1138" on="1"/>
        <pt x="696" y="1138" on="0"/>
        <pt x="597" y="1255" on="1"/>
        <pt x="550" y="1311" on="0"/>
        <pt x="539" y="1311" on="0"/>
        <pt x="421" y="1193" on="0"/>
        <pt x="348" y="1149" on="0"/>
        <pt x="227" y="1149" on="0"/>
        <pt x="227" y="1187" on="1"/>
        <pt x="227" y="1241" on="0"/>
        <pt x="416" y="1446" on="1"/>
        <pt x="466" y="1500" on="0"/>
        <pt x="538" y="1500" on="1"/>
        <pt x="547" y="1499" on="1"/>
        <pt x="556" y="1499" on="1"/>
        <pt x="615" y="1499" on="0"/>
        <pt x="656" y="1455" on="1"/>
        <pt x="853" y="1242" on="0"/>
        <pt x="853" y="1182" on="1"/>
        <pt x="853" y="1138" on="0"/>
      </contour>
      <contour>
        <pt x="1004" y="86" on="1"/>
        <pt x="1004" y="3" on="0"/>
        <pt x="864" y="3" on="1"/>
        <pt x="793" y="3" on="0"/>
        <pt x="695" y="58" on="0"/>
        <pt x="651" y="58" on="1"/>
        <pt x="649" y="58" on="0"/>
        <pt x="455" y="-14" on="0"/>
        <pt x="376" y="-14" on="1"/>
        <pt x="352" y="-14" on="1"/>
        <pt x="240" y="-14" on="0"/>
        <pt x="71" y="140" on="0"/>
        <pt x="71" y="264" on="1"/>
        <pt x="71" y="288" on="1"/>
        <pt x="71" y="575" on="0"/>
        <pt x="503" y="609" on="1"/>
        <pt x="591" y="616" on="0"/>
        <pt x="615" y="624" on="1"/>
        <pt x="675" y="643" on="0"/>
        <pt x="675" y="767" on="0"/>
        <pt x="600" y="840" on="0"/>
        <pt x="483" y="840" on="0"/>
        <pt x="273" y="754" on="0"/>
        <pt x="185" y="754" on="0"/>
        <pt x="135" y="812" on="0"/>
        <pt x="135" y="856" on="1"/>
        <pt x="135" y="921" on="0"/>
        <pt x="222" y="964" on="1"/>
        <pt x="342" y="1024" on="0"/>
        <pt x="495" y="1024" on="1"/>
        <pt x="883" y="1024" on="0"/>
        <pt x="929" y="747" on="1"/>
        <pt x="942" y="668" on="0"/>
        <pt x="942" y="308" on="0"/>
        <pt x="955" y="241" on="0"/>
        <pt x="1004" y="143" on="0"/>
        <pt x="1004" y="107" on="1"/>
      </contour>
    </TTGlyph>
    <TTGlyph name="acute" xMin="190" yMin="1119" xMax="617" yMax="1480">
      <contour>
        <pt x="267" y="1119" on="1"/>
        <pt x="249" y="1119" on="1"/>
        <pt x="190" y="1119" on="0"/>
        <pt x="190" y="1147" on="1"/>
        <pt x="190" y="1157" on="1"/>
        <pt x="190" y="1232" on="0"/>
        <pt x="356" y="1419" on="1"/>
        <pt x="410" y="1480" on="0"/>
        <pt x="499" y="1480" on="1"/>
        <pt x="518" y="1480" on="1"/>
        <pt x="530" y="1478" on="0"/>
        <pt x="536" y="1478" on="1"/>
        <pt x="617" y="1478" on="0"/>
        <pt x="617" y="1432" on="1"/>
        <pt x="617" y="1421" on="1"/>
        <pt x="617" y="1373" on="0"/>
        <pt x="432" y="1209" on="1"/>
        <pt x="331" y="1119" on="0"/>
      </contour>
    </TTGlyph>
    <TTGlyph name="adieresis" xMin="73" yMin="-8" xMax="1007" yMax="1436">
      <contour>
        <pt x="451" y="193" on="1"/>
        <pt x="485" y="193" on="1"/>
        <pt x="518" y="197" on="1"/>
        <pt x="567" y="197" on="0"/>
        <pt x="632" y="254" on="1"/>
        <pt x="670" y="287" on="0"/>
        <pt x="670" y="331" on="1"/>
        <pt x="671" y="337" on="1"/>
        <pt x="672" y="342" on="1"/>
        <pt x="675" y="397" on="1"/>
        <pt x="675" y="447" on="1"/>
        <pt x="675" y="498" on="0"/>
        <pt x="616" y="498" on="1"/>
        <pt x="611" y="498" on="1"/>
        <pt x="605" y="497" on="1"/>
        <pt x="537" y="492" on="1"/>
        <pt x="513" y="488" on="0"/>
        <pt x="502" y="488" on="1"/>
        <pt x="429" y="488" on="0"/>
        <pt x="367" y="426" on="1"/>
        <pt x="331" y="390" on="0"/>
        <pt x="331" y="328" on="1"/>
        <pt x="331" y="316" on="1"/>
        <pt x="331" y="260" on="0"/>
        <pt x="398" y="193" on="0"/>
      </contour>
      <contour>
        <pt x="219" y="1350" on="1"/>
        <pt x="219" y="1436" on="0"/>
        <pt x="339" y="1436" on="1"/>
        <pt x="357" y="1436" on="1"/>
        <pt x="469" y="1436" on="0"/>
        <pt x="469" y="1349" on="1"/>
        <pt x="471" y="1339" on="0"/>
        <pt x="471" y="1336" on="1"/>
        <pt x="473" y="1313" on="1"/>
        <pt x="473" y="1299" on="1"/>
        <pt x="473" y="1182" on="0"/>
        <pt x="384" y="1182" on="1"/>
        <pt x="374" y="1180" on="0"/>
        <pt x="371" y="1180" on="1"/>
        <pt x="349" y="1178" on="1"/>
        <pt x="326" y="1178" on="1"/>
        <pt x="322" y="1179" on="1"/>
        <pt x="313" y="1179" on="1"/>
        <pt x="305" y="1181" on="0"/>
        <pt x="300" y="1181" on="1"/>
        <pt x="219" y="1181" on="0"/>
        <pt x="219" y="1265" on="1"/>
        <pt x="216" y="1283" on="1"/>
        <pt x="216" y="1328" on="1"/>
        <pt x="219" y="1348" on="0"/>
      </contour>
      <contour>
        <pt x="873" y="1273" on="1"/>
        <pt x="870" y="1238" on="1"/>
        <pt x="870" y="1155" on="0"/>
        <pt x="762" y="1155" on="1"/>
        <pt x="744" y="1155" on="1"/>
        <pt x="675" y="1155" on="0"/>
        <pt x="607" y="1212" on="0"/>
        <pt x="607" y="1285" on="1"/>
        <pt x="607" y="1320" on="1"/>
        <pt x="607" y="1362" on="0"/>
        <pt x="660" y="1415" on="0"/>
        <pt x="738" y="1415" on="1"/>
        <pt x="752" y="1415" on="1"/>
        <pt x="767" y="1412" on="0"/>
        <pt x="821" y="1412" on="0"/>
        <pt x="870" y="1363" on="0"/>
        <pt x="870" y="1323" on="1"/>
        <pt x="872" y="1315" on="0"/>
        <pt x="872" y="1310" on="1"/>
        <pt x="874" y="1287" on="1"/>
        <pt x="874" y="1278" on="1"/>
      </contour>
      <contour>
        <pt x="1007" y="93" on="1"/>
        <pt x="1007" y="93" on="0"/>
        <pt x="1007" y="92" on="1"/>
        <pt x="1007" y="9" on="0"/>
        <pt x="864" y="9" on="1"/>
        <pt x="796" y="9" on="0"/>
        <pt x="690" y="65" on="0"/>
        <pt x="635" y="65" on="1"/>
        <pt x="630" y="66" on="0"/>
        <pt x="588" y="46" on="1"/>
        <pt x="412" y="-8" on="0"/>
        <pt x="363" y="-8" on="1"/>
        <pt x="361" y="-8" on="0"/>
        <pt x="358" y="-8" on="1"/>
        <pt x="245" y="-8" on="0"/>
        <pt x="73" y="143" on="0"/>
        <pt x="73" y="270" on="1"/>
        <pt x="73" y="294" on="1"/>
        <pt x="73" y="442" on="0"/>
        <pt x="196" y="525" on="1"/>
        <pt x="294" y="590" on="0"/>
        <pt x="507" y="612" on="1"/>
        <pt x="593" y="621" on="0"/>
        <pt x="617" y="629" on="1"/>
        <pt x="675" y="648" on="0"/>
        <pt x="675" y="770" on="0"/>
        <pt x="600" y="843" on="0"/>
        <pt x="522" y="843" on="1"/>
        <pt x="486" y="843" on="0"/>
        <pt x="276" y="757" on="0"/>
        <pt x="185" y="757" on="0"/>
        <pt x="135" y="815" on="0"/>
        <pt x="135" y="860" on="1"/>
        <pt x="135" y="926" on="0"/>
        <pt x="223" y="967" on="1"/>
        <pt x="350" y="1026" on="0"/>
        <pt x="495" y="1026" on="1"/>
        <pt x="546" y="1026" on="1"/>
        <pt x="794" y="1026" on="0"/>
        <pt x="892" y="862" on="1"/>
        <pt x="942" y="778" on="0"/>
        <pt x="943" y="456" on="1"/>
        <pt x="943" y="312" on="0"/>
        <pt x="958" y="244" on="0"/>
        <pt x="1007" y="146" on="0"/>
        <pt x="1007" y="113" on="1"/>
      </contour>
    </TTGlyph>
    <TTGlyph name="ae" xMin="69" yMin="-22" xMax="1531" yMax="1023">
      <contour>
        <pt x="337" y="293" on="1"/>
        <pt x="337" y="239" on="0"/>
        <pt x="412" y="175" on="0"/>
        <pt x="467" y="175" on="1"/>
        <pt x="484" y="175" on="1"/>
        <pt x="574" y="175" on="0"/>
        <pt x="675" y="263" on="0"/>
        <pt x="675" y="328" on="1"/>
        <pt x="675" y="406" on="1"/>
        <pt x="675" y="477" on="0"/>
        <pt x="612" y="477" on="1"/>
        <pt x="579" y="477" on="1"/>
        <pt x="573" y="476" on="1"/>
        <pt x="562" y="476" on="1"/>
        <pt x="524" y="472" on="1"/>
        <pt x="518" y="471" on="0"/>
        <pt x="513" y="471" on="1"/>
        <pt x="442" y="471" on="0"/>
        <pt x="339" y="380" on="0"/>
        <pt x="339" y="334" on="1"/>
        <pt x="337" y="323" on="1"/>
      </contour>
      <contour>
        <pt x="1219" y="589" on="1"/>
        <pt x="1270" y="589" on="0"/>
        <pt x="1270" y="638" on="1"/>
        <pt x="1270" y="654" on="1"/>
        <pt x="1270" y="733" on="0"/>
        <pt x="1181" y="835" on="0"/>
        <pt x="1129" y="835" on="1"/>
        <pt x="1117" y="837" on="1"/>
        <pt x="1077" y="837" on="1"/>
        <pt x="1061" y="834" on="0"/>
        <pt x="1055" y="834" on="1"/>
        <pt x="1004" y="834" on="0"/>
        <pt x="909" y="723" on="0"/>
        <pt x="909" y="654" on="1"/>
        <pt x="905" y="634" on="0"/>
        <pt x="905" y="626" on="1"/>
        <pt x="905" y="621" on="1"/>
        <pt x="905" y="578" on="0"/>
        <pt x="986" y="578" on="1"/>
        <pt x="1030" y="578" on="1"/>
        <pt x="1036" y="579" on="1"/>
        <pt x="1194" y="586" on="1"/>
        <pt x="1209" y="589" on="0"/>
      </contour>
      <contour>
        <pt x="1149" y="-22" on="1"/>
        <pt x="1114" y="-22" on="1"/>
        <pt x="969" y="-22" on="0"/>
        <pt x="826" y="64" on="1"/>
        <pt x="766" y="100" on="0"/>
        <pt x="732" y="100" on="0"/>
        <pt x="626" y="32" on="0"/>
        <pt x="498" y="-20" on="0"/>
        <pt x="244" y="-20" on="0"/>
        <pt x="69" y="130" on="0"/>
        <pt x="69" y="257" on="1"/>
        <pt x="69" y="292" on="1"/>
        <pt x="69" y="432" on="0"/>
        <pt x="192" y="514" on="1"/>
        <pt x="266" y="564" on="0"/>
        <pt x="430" y="597" on="0"/>
        <pt x="573" y="614" on="0"/>
        <pt x="602" y="625" on="1"/>
        <pt x="650" y="643" on="0"/>
        <pt x="650" y="681" on="1"/>
        <pt x="650" y="755" on="0"/>
        <pt x="569" y="834" on="0"/>
        <pt x="430" y="834" on="0"/>
        <pt x="261" y="751" on="0"/>
        <pt x="186" y="751" on="0"/>
        <pt x="129" y="797" on="0"/>
        <pt x="129" y="844" on="1"/>
        <pt x="129" y="913" on="0"/>
        <pt x="216" y="958" on="1"/>
        <pt x="332" y="1018" on="0"/>
        <pt x="517" y="1018" on="1"/>
        <pt x="605" y="1018" on="0"/>
        <pt x="801" y="941" on="0"/>
        <pt x="825" y="941" on="0"/>
        <pt x="1021" y="1023" on="0"/>
        <pt x="1098" y="1023" on="1"/>
        <pt x="1134" y="1023" on="1"/>
        <pt x="1134" y="1023" on="0"/>
        <pt x="1136" y="1023" on="1"/>
        <pt x="1412" y="1023" on="0"/>
        <pt x="1500" y="780" on="1"/>
        <pt x="1530" y="696" on="0"/>
        <pt x="1531" y="612" on="1"/>
        <pt x="1531" y="578" on="1"/>
        <pt x="1531" y="502" on="0"/>
        <pt x="1434" y="460" on="0"/>
        <pt x="1004" y="441" on="0"/>
        <pt x="985" y="436" on="1"/>
        <pt x="928" y="420" on="0"/>
        <pt x="928" y="284" on="0"/>
        <pt x="1062" y="174" on="0"/>
        <pt x="1182" y="174" on="1"/>
        <pt x="1228" y="174" on="0"/>
        <pt x="1409" y="225" on="0"/>
        <pt x="1430" y="225" on="1"/>
        <pt x="1492" y="225" on="0"/>
        <pt x="1492" y="85" on="0"/>
        <pt x="1412" y="42" on="1"/>
        <pt x="1294" y="-22" on="0"/>
      </contour>
    </TTGlyph>
    <TTGlyph name="agrave" xMin="74" yMin="-10" xMax="1000" yMax="1493">
      <contour>
        <pt x="556" y="497" on="1"/>
        <pt x="511" y="492" on="0"/>
        <pt x="509" y="492" on="1"/>
        <pt x="441" y="492" on="0"/>
        <pt x="332" y="410" on="0"/>
        <pt x="332" y="331" on="1"/>
        <pt x="332" y="313" on="1"/>
        <pt x="332" y="257" on="0"/>
        <pt x="411" y="188" on="0"/>
        <pt x="461" y="188" on="1"/>
        <pt x="497" y="188" on="1"/>
        <pt x="582" y="188" on="0"/>
        <pt x="643" y="241" on="1"/>
        <pt x="684" y="277" on="0"/>
        <pt x="684" y="353" on="1"/>
        <pt x="684" y="434" on="1"/>
        <pt x="684" y="499" on="0"/>
        <pt x="616" y="499" on="1"/>
        <pt x="598" y="499" on="1"/>
        <pt x="592" y="498" on="1"/>
        <pt x="580" y="498" on="1"/>
        <pt x="568" y="497" on="1"/>
      </contour>
      <contour>
        <pt x="270" y="1425" on="1"/>
        <pt x="270" y="1440" on="1"/>
        <pt x="270" y="1451" on="0"/>
        <pt x="326" y="1493" on="0"/>
        <pt x="368" y="1493" on="1"/>
        <pt x="392" y="1493" on="1"/>
        <pt x="471" y="1493" on="0"/>
        <pt x="527" y="1437" on="1"/>
        <pt x="536" y="1428" on="0"/>
        <pt x="662" y="1248" on="1"/>
        <pt x="693" y="1204" on="0"/>
        <pt x="693" y="1171" on="1"/>
        <pt x="693" y="1160" on="1"/>
        <pt x="693" y="1124" on="0"/>
        <pt x="625" y="1124" on="1"/>
        <pt x="619" y="1125" on="1"/>
        <pt x="614" y="1125" on="1"/>
        <pt x="562" y="1125" on="0"/>
        <pt x="488" y="1191" on="1"/>
        <pt x="270" y="1385" on="0"/>
      </contour>
      <contour>
        <pt x="598" y="837" on="0"/>
        <pt x="480" y="837" on="0"/>
        <pt x="270" y="751" on="0"/>
        <pt x="187" y="751" on="0"/>
        <pt x="139" y="812" on="0"/>
        <pt x="139" y="853" on="1"/>
        <pt x="139" y="923" on="0"/>
        <pt x="361" y="1018" on="0"/>
        <pt x="522" y="1018" on="1"/>
        <pt x="547" y="1018" on="1"/>
        <pt x="646" y="1018" on="0"/>
        <pt x="733" y="984" on="1"/>
        <pt x="896" y="920" on="0"/>
        <pt x="927" y="737" on="1"/>
        <pt x="938" y="672" on="0"/>
        <pt x="938" y="315" on="0"/>
        <pt x="952" y="243" on="0"/>
        <pt x="1000" y="147" on="0"/>
        <pt x="1000" y="48" on="0"/>
        <pt x="931" y="8" on="0"/>
        <pt x="793" y="8" on="0"/>
        <pt x="693" y="61" on="0"/>
        <pt x="650" y="61" on="1"/>
        <pt x="643" y="61" on="0"/>
        <pt x="456" y="-10" on="0"/>
        <pt x="377" y="-10" on="1"/>
        <pt x="230" y="-10" on="0"/>
        <pt x="74" y="156" on="0"/>
        <pt x="74" y="289" on="1"/>
        <pt x="74" y="537" on="0"/>
        <pt x="406" y="595" on="1"/>
        <pt x="423" y="598" on="0"/>
        <pt x="602" y="617" on="0"/>
        <pt x="630" y="629" on="1"/>
        <pt x="672" y="646" on="0"/>
        <pt x="672" y="765" on="0"/>
      </contour>
    </TTGlyph>
    <TTGlyph name="ampersand" xMin="135" yMin="-26" xMax="1286" yMax="1371">
      <contour>
        <pt x="512" y="1072" on="1"/>
        <pt x="512" y="1072" on="0"/>
        <pt x="514" y="1047" on="1"/>
        <pt x="514" y="1007" on="0"/>
        <pt x="570" y="906" on="1"/>
        <pt x="592" y="866" on="0"/>
        <pt x="610" y="866" on="1"/>
        <pt x="654" y="866" on="0"/>
        <pt x="728" y="965" on="1"/>
        <pt x="774" y="1026" on="0"/>
        <pt x="774" y="1087" on="1"/>
        <pt x="774" y="1114" on="1"/>
        <pt x="774" y="1171" on="0"/>
        <pt x="696" y="1249" on="0"/>
        <pt x="662" y="1249" on="1"/>
        <pt x="637" y="1249" on="1"/>
        <pt x="589" y="1249" on="0"/>
        <pt x="511" y="1158" on="0"/>
        <pt x="511" y="1098" on="1"/>
        <pt x="511" y="1077" on="1"/>
      </contour>
      <contour>
        <pt x="353" y="368" on="1"/>
        <pt x="353" y="277" on="0"/>
        <pt x="500" y="130" on="0"/>
        <pt x="580" y="130" on="1"/>
        <pt x="609" y="130" on="1"/>
        <pt x="690" y="130" on="0"/>
        <pt x="778" y="186" on="1"/>
        <pt x="812" y="208" on="0"/>
        <pt x="812" y="224" on="1"/>
        <pt x="812" y="229" on="1"/>
        <pt x="812" y="239" on="0"/>
        <pt x="753" y="303" on="1"/>
        <pt x="671" y="401" on="0"/>
        <pt x="514" y="628" on="0"/>
        <pt x="505" y="628" on="1"/>
        <pt x="472" y="628" on="0"/>
        <pt x="396" y="523" on="1"/>
        <pt x="355" y="467" on="0"/>
        <pt x="355" y="409" on="1"/>
        <pt x="353" y="392" on="1"/>
      </contour>
      <contour>
        <pt x="558" y="-26" on="1"/>
        <pt x="529" y="-26" on="1"/>
        <pt x="364" y="-26" on="0"/>
        <pt x="135" y="185" on="0"/>
        <pt x="135" y="341" on="1"/>
        <pt x="135" y="371" on="1"/>
        <pt x="135" y="521" on="0"/>
        <pt x="295" y="666" on="1"/>
        <pt x="374" y="738" on="0"/>
        <pt x="374" y="785" on="0"/>
        <pt x="291" y="982" on="0"/>
        <pt x="291" y="1057" on="1"/>
        <pt x="291" y="1197" on="0"/>
        <pt x="492" y="1371" on="0"/>
        <pt x="756" y="1371" on="0"/>
        <pt x="935" y="1219" on="0"/>
        <pt x="935" y="1092" on="1"/>
        <pt x="935" y="1002" on="0"/>
        <pt x="803" y="665" on="0"/>
        <pt x="803" y="622" on="0"/>
        <pt x="915" y="531" on="0"/>
        <pt x="974" y="531" on="1"/>
        <pt x="981" y="532" on="0"/>
        <pt x="1018" y="584" on="1"/>
        <pt x="1101" y="702" on="0"/>
        <pt x="1188" y="702" on="1"/>
        <pt x="1188" y="702" on="1"/>
        <pt x="1276" y="702" on="0"/>
        <pt x="1276" y="638" on="1"/>
        <pt x="1276" y="634" on="0"/>
        <pt x="1149" y="347" on="0"/>
        <pt x="1149" y="243" on="0"/>
        <pt x="1286" y="75" on="0"/>
        <pt x="1286" y="56" on="1"/>
        <pt x="1286" y="45" on="1"/>
        <pt x="1286" y="19" on="0"/>
        <pt x="1238" y="19" on="1"/>
        <pt x="1067" y="41" on="1"/>
        <pt x="1052" y="41" on="0"/>
        <pt x="946" y="22" on="0"/>
        <pt x="846" y="15" on="0"/>
        <pt x="632" y="-26" on="0"/>
      </contour>
    </TTGlyph>
    <TTGlyph name="aring" xMin="71" yMin="-1" xMax="1009" yMax="1570">
      <contour>
        <pt x="634" y="1373" on="1"/>
        <pt x="632" y="1398" on="1"/>
        <pt x="632" y="1409" on="0"/>
        <pt x="584" y="1457" on="0"/>
        <pt x="564" y="1457" on="1"/>
        <pt x="548" y="1460" on="1"/>
        <pt x="521" y="1460" on="1"/>
        <pt x="512" y="1457" on="0"/>
        <pt x="488" y="1457" on="0"/>
        <pt x="438" y="1407" on="0"/>
        <pt x="438" y="1375" on="1"/>
        <pt x="438" y="1345" on="1"/>
        <pt x="442" y="1326" on="1"/>
        <pt x="442" y="1311" on="0"/>
        <pt x="490" y="1263" on="0"/>
        <pt x="515" y="1263" on="1"/>
        <pt x="528" y="1261" on="1"/>
        <pt x="549" y="1261" on="1"/>
        <pt x="552" y="1262" on="1"/>
        <pt x="558" y="1262" on="1"/>
        <pt x="571" y="1265" on="1"/>
        <pt x="581" y="1265" on="0"/>
        <pt x="631" y="1305" on="0"/>
        <pt x="631" y="1330" on="1"/>
        <pt x="633" y="1336" on="0"/>
        <pt x="633" y="1339" on="1"/>
        <pt x="635" y="1356" on="1"/>
        <pt x="635" y="1369" on="1"/>
      </contour>
      <contour>
        <pt x="462" y="191" on="1"/>
        <pt x="485" y="191" on="1"/>
        <pt x="554" y="191" on="0"/>
        <pt x="678" y="274" on="0"/>
        <pt x="678" y="328" on="1"/>
        <pt x="679" y="333" on="1"/>
        <pt x="680" y="339" on="1"/>
        <pt x="683" y="393" on="1"/>
        <pt x="683" y="442" on="1"/>
        <pt x="683" y="489" on="0"/>
        <pt x="632" y="489" on="1"/>
        <pt x="605" y="489" on="1"/>
        <pt x="599" y="488" on="1"/>
        <pt x="548" y="484" on="1"/>
        <pt x="530" y="481" on="0"/>
        <pt x="519" y="481" on="1"/>
        <pt x="432" y="481" on="0"/>
        <pt x="334" y="383" on="0"/>
        <pt x="334" y="327" on="1"/>
        <pt x="334" y="310" on="1"/>
        <pt x="334" y="254" on="0"/>
        <pt x="407" y="191" on="0"/>
      </contour>
      <contour>
        <pt x="527" y="1570" on="1"/>
        <pt x="558" y="1570" on="1"/>
        <pt x="644" y="1570" on="0"/>
        <pt x="769" y="1445" on="0"/>
        <pt x="769" y="1358" on="1"/>
        <pt x="769" y="1343" on="1"/>
        <pt x="769" y="1266" on="0"/>
        <pt x="660" y="1133" on="0"/>
        <pt x="563" y="1133" on="1"/>
        <pt x="533" y="1133" on="1"/>
        <pt x="454" y="1133" on="0"/>
        <pt x="309" y="1251" on="0"/>
        <pt x="309" y="1353" on="1"/>
        <pt x="309" y="1368" on="1"/>
        <pt x="310" y="1375" on="1"/>
        <pt x="310" y="1454" on="0"/>
        <pt x="439" y="1570" on="0"/>
      </contour>
      <contour>
        <pt x="1009" y="99" on="1"/>
        <pt x="1009" y="99" on="0"/>
        <pt x="1009" y="98" on="1"/>
        <pt x="1009" y="16" on="0"/>
        <pt x="862" y="16" on="1"/>
        <pt x="790" y="16" on="0"/>
        <pt x="691" y="73" on="0"/>
        <pt x="636" y="73" on="1"/>
        <pt x="631" y="73" on="0"/>
        <pt x="544" y="33" on="0"/>
        <pt x="447" y="-1" on="0"/>
        <pt x="377" y="-1" on="1"/>
        <pt x="245" y="-1" on="0"/>
        <pt x="71" y="148" on="0"/>
        <pt x="71" y="276" on="1"/>
        <pt x="71" y="300" on="1"/>
        <pt x="71" y="447" on="0"/>
        <pt x="195" y="531" on="1"/>
        <pt x="274" y="584" on="0"/>
        <pt x="410" y="607" on="1"/>
        <pt x="430" y="610" on="0"/>
        <pt x="603" y="629" on="0"/>
        <pt x="675" y="662" on="0"/>
        <pt x="675" y="780" on="0"/>
        <pt x="597" y="850" on="0"/>
        <pt x="521" y="850" on="1"/>
        <pt x="486" y="850" on="0"/>
        <pt x="272" y="762" on="0"/>
        <pt x="183" y="762" on="0"/>
        <pt x="133" y="820" on="0"/>
        <pt x="133" y="867" on="1"/>
        <pt x="133" y="931" on="0"/>
        <pt x="222" y="974" on="1"/>
        <pt x="343" y="1033" on="0"/>
        <pt x="495" y="1033" on="1"/>
        <pt x="546" y="1033" on="1"/>
        <pt x="549" y="1033" on="0"/>
        <pt x="552" y="1033" on="1"/>
        <pt x="651" y="1033" on="0"/>
        <pt x="736" y="1000" on="1"/>
        <pt x="901" y="937" on="0"/>
        <pt x="932" y="751" on="1"/>
        <pt x="944" y="680" on="0"/>
        <pt x="944" y="319" on="0"/>
        <pt x="958" y="253" on="0"/>
        <pt x="1009" y="152" on="0"/>
        <pt x="1009" y="120" on="1"/>
      </contour>
    </TTGlyph>
    <TTGlyph name="asciicircum" xMin="123" yMin="757" xMax="931" yMax="1373">
      <contour>
        <pt x="931" y="799" on="1"/>
        <pt x="931" y="761" on="0"/>
        <pt x="830" y="761" on="1"/>
        <pt x="784" y="761" on="0"/>
        <pt x="703" y="856" on="0"/>
        <pt x="532" y="1149" on="0"/>
        <pt x="518" y="1149" on="0"/>
        <pt x="457" y="1039" on="0"/>
        <pt x="329" y="836" on="0"/>
        <pt x="311" y="814" on="1"/>
        <pt x="263" y="757" on="0"/>
        <pt x="203" y="757" on="1"/>
        <pt x="190" y="757" on="1"/>
        <pt x="123" y="757" on="0"/>
        <pt x="123" y="791" on="1"/>
        <pt x="123" y="806" on="0"/>
        <pt x="154" y="866" on="1"/>
        <pt x="287" y="1122" on="0"/>
        <pt x="413" y="1303" on="1"/>
        <pt x="462" y="1373" on="0"/>
        <pt x="532" y="1373" on="1"/>
        <pt x="546" y="1373" on="1"/>
        <pt x="598" y="1373" on="0"/>
        <pt x="640" y="1312" on="1"/>
        <pt x="768" y="1128" on="0"/>
        <pt x="900" y="874" on="1"/>
        <pt x="931" y="814" on="0"/>
      </contour>
    </TTGlyph>
    <TTGlyph name="asciitilde" xMin="114" yMin="535" xMax="996" yMax="852">
      <contour>
        <pt x="351" y="852" on="1"/>
        <pt x="373" y="852" on="1"/>
        <pt x="438" y="852" on="0"/>
        <pt x="684" y="729" on="0"/>
        <pt x="780" y="729" on="0"/>
        <pt x="918" y="821" on="0"/>
        <pt x="937" y="821" on="1"/>
        <pt x="996" y="821" on="0"/>
        <pt x="996" y="759" on="1"/>
        <pt x="996" y="748" on="1"/>
        <pt x="996" y="675" on="0"/>
        <pt x="856" y="535" on="0"/>
        <pt x="769" y="535" on="1"/>
        <pt x="747" y="535" on="1"/>
        <pt x="680" y="535" on="0"/>
        <pt x="432" y="659" on="0"/>
        <pt x="333" y="659" on="0"/>
        <pt x="197" y="563" on="0"/>
        <pt x="165" y="563" on="1"/>
        <pt x="114" y="563" on="0"/>
        <pt x="114" y="624" on="1"/>
        <pt x="114" y="718" on="0"/>
        <pt x="266" y="852" on="0"/>
      </contour>
    </TTGlyph>
    <TTGlyph name="asterisk" xMin="190" yMin="700" xMax="863" yMax="1397">
      <contour>
        <pt x="594" y="1160" on="0"/>
        <pt x="604" y="1160" on="0"/>
        <pt x="742" y="1224" on="0"/>
        <pt x="800" y="1224" on="0"/>
        <pt x="863" y="1153" on="0"/>
        <pt x="863" y="1120" on="1"/>
        <pt x="863" y="1067" on="0"/>
        <pt x="673" y="995" on="0"/>
        <pt x="673" y="978" on="1"/>
        <pt x="673" y="971" on="0"/>
        <pt x="743" y="910" on="0"/>
        <pt x="748" y="904" on="1"/>
        <pt x="783" y="865" on="0"/>
        <pt x="783" y="792" on="1"/>
        <pt x="783" y="742" on="0"/>
        <pt x="688" y="742" on="1"/>
        <pt x="652" y="742" on="0"/>
        <pt x="563" y="803" on="0"/>
        <pt x="544" y="803" on="1"/>
        <pt x="540" y="803" on="0"/>
        <pt x="433" y="700" on="0"/>
        <pt x="403" y="700" on="1"/>
        <pt x="368" y="700" on="0"/>
        <pt x="263" y="850" on="1"/>
        <pt x="213" y="921" on="0"/>
        <pt x="213" y="1005" on="1"/>
        <pt x="224" y="1049" on="1"/>
        <pt x="218" y="1065" on="0"/>
        <pt x="211" y="1080" on="0"/>
        <pt x="202" y="1133" on="0"/>
        <pt x="190" y="1169" on="0"/>
        <pt x="190" y="1190" on="0"/>
        <pt x="251" y="1235" on="0"/>
        <pt x="272" y="1235" on="1"/>
        <pt x="360" y="1216" on="1"/>
        <pt x="413" y="1216" on="0"/>
        <pt x="413" y="1271" on="1"/>
        <pt x="413" y="1317" on="0"/>
        <pt x="471" y="1397" on="0"/>
        <pt x="518" y="1397" on="1"/>
        <pt x="535" y="1397" on="1"/>
        <pt x="570" y="1397" on="0"/>
        <pt x="599" y="1350" on="0"/>
        <pt x="599" y="1234" on="1"/>
        <pt x="594" y="1179" on="1"/>
      </contour>
    </TTGlyph>
    <TTGlyph name="at" xMin="98" yMin="-227" xMax="1594" yMax="1341">
      <contour>
        <pt x="1013" y="720" on="1"/>
        <pt x="1013" y="786" on="0"/>
        <pt x="912" y="786" on="1"/>
        <pt x="892" y="786" on="1"/>
        <pt x="798" y="786" on="0"/>
        <pt x="679" y="599" on="0"/>
        <pt x="679" y="493" on="1"/>
        <pt x="679" y="447" on="1"/>
        <pt x="681" y="433" on="0"/>
        <pt x="681" y="425" on="1"/>
        <pt x="681" y="370" on="0"/>
        <pt x="752" y="281" on="0"/>
        <pt x="784" y="281" on="1"/>
        <pt x="796" y="281" on="1"/>
        <pt x="875" y="281" on="0"/>
        <pt x="930" y="376" on="1"/>
        <pt x="1011" y="515" on="0"/>
        <pt x="1011" y="669" on="1"/>
        <pt x="1013" y="682" on="1"/>
      </contour>
      <contour>
        <pt x="871" y="-227" on="1"/>
        <pt x="813" y="-227" on="1"/>
        <pt x="668" y="-227" on="0"/>
        <pt x="532" y="-177" on="1"/>
        <pt x="396" y="-126" on="0"/>
        <pt x="296" y="-26" on="1"/>
        <pt x="98" y="172" on="0"/>
        <pt x="98" y="513" on="1"/>
        <pt x="98" y="856" on="0"/>
        <pt x="305" y="1090" on="1"/>
        <pt x="401" y="1198" on="0"/>
        <pt x="689" y="1341" on="0"/>
        <pt x="866" y="1341" on="1"/>
        <pt x="925" y="1341" on="1"/>
        <pt x="1064" y="1341" on="0"/>
        <pt x="1189" y="1290" on="1"/>
        <pt x="1432" y="1191" on="0"/>
        <pt x="1531" y="989" on="1"/>
        <pt x="1594" y="862" on="0"/>
        <pt x="1594" y="724" on="1"/>
        <pt x="1594" y="369" on="0"/>
        <pt x="1346" y="232" on="1"/>
        <pt x="1262" y="186" on="0"/>
        <pt x="1177" y="186" on="1"/>
        <pt x="1148" y="186" on="0"/>
        <pt x="1029" y="220" on="0"/>
        <pt x="976" y="220" on="0"/>
        <pt x="837" y="182" on="0"/>
        <pt x="793" y="182" on="1"/>
        <pt x="691" y="182" on="0"/>
        <pt x="556" y="325" on="0"/>
        <pt x="556" y="468" on="1"/>
        <pt x="556" y="532" on="0"/>
        <pt x="669" y="812" on="0"/>
        <pt x="716" y="855" on="1"/>
        <pt x="794" y="926" on="0"/>
        <pt x="991" y="926" on="1"/>
        <pt x="1074" y="926" on="0"/>
        <pt x="1111" y="863" on="1"/>
        <pt x="1136" y="821" on="0"/>
        <pt x="1166" y="525" on="0"/>
        <pt x="1174" y="499" on="1"/>
        <pt x="1200" y="417" on="0"/>
        <pt x="1261" y="417" on="1"/>
        <pt x="1300" y="417" on="0"/>
        <pt x="1374" y="548" on="0"/>
        <pt x="1374" y="747" on="0"/>
        <pt x="1290" y="940" on="0"/>
        <pt x="1154" y="1060" on="0"/>
        <pt x="998" y="1123" on="0"/>
        <pt x="762" y="1123" on="0"/>
        <pt x="654" y="1064" on="1"/>
        <pt x="445" y="950" on="0"/>
        <pt x="370" y="724" on="1"/>
        <pt x="337" y="626" on="0"/>
        <pt x="337" y="399" on="0"/>
        <pt x="430" y="158" on="0"/>
        <pt x="514" y="80" on="1"/>
        <pt x="681" y="-75" on="0"/>
        <pt x="958" y="-75" on="1"/>
        <pt x="960" y="-75" on="0"/>
        <pt x="962" y="-75" on="1"/>
        <pt x="1001" y="-75" on="0"/>
        <pt x="1063" y="-66" on="1"/>
        <pt x="1111" y="-58" on="1"/>
        <pt x="1174" y="-47" on="0"/>
        <pt x="1192" y="-47" on="1"/>
        <pt x="1251" y="-47" on="0"/>
        <pt x="1251" y="-93" on="1"/>
        <pt x="1251" y="-128" on="0"/>
        <pt x="1027" y="-227" on="0"/>
      </contour>
    </TTGlyph>
    <TTGlyph name="atilde" xMin="70" yMin="-14" xMax="1005" yMax="1425">
      <contour>
        <pt x="512" y="191" on="1"/>
        <pt x="573" y="191" on="0"/>
        <pt x="683" y="276" on="0"/>
        <pt x="683" y="326" on="1"/>
        <pt x="684" y="331" on="1"/>
        <pt x="685" y="337" on="1"/>
        <pt x="686" y="358" on="1"/>
        <pt x="686" y="413" on="1"/>
        <pt x="686" y="486" on="0"/>
        <pt x="622" y="486" on="1"/>
        <pt x="605" y="486" on="1"/>
        <pt x="599" y="485" on="1"/>
        <pt x="575" y="485" on="1"/>
        <pt x="558" y="484" on="1"/>
        <pt x="541" y="484" on="1"/>
        <pt x="524" y="483" on="1"/>
        <pt x="501" y="481" on="1"/>
        <pt x="423" y="481" on="0"/>
        <pt x="364" y="422" on="1"/>
        <pt x="328" y="386" on="0"/>
        <pt x="328" y="327" on="1"/>
        <pt x="328" y="322" on="1"/>
        <pt x="328" y="268" on="0"/>
        <pt x="392" y="193" on="0"/>
        <pt x="454" y="193" on="1"/>
        <pt x="466" y="191" on="1"/>
      </contour>
      <contour>
        <pt x="180" y="1228" on="1"/>
        <pt x="180" y="1246" on="1"/>
        <pt x="180" y="1312" on="0"/>
        <pt x="302" y="1425" on="0"/>
        <pt x="381" y="1425" on="1"/>
        <pt x="390" y="1424" on="1"/>
        <pt x="452" y="1424" on="0"/>
        <pt x="650" y="1336" on="0"/>
        <pt x="719" y="1336" on="0"/>
        <pt x="806" y="1398" on="0"/>
        <pt x="838" y="1398" on="1"/>
        <pt x="892" y="1398" on="0"/>
        <pt x="892" y="1260" on="0"/>
        <pt x="778" y="1146" on="0"/>
        <pt x="714" y="1146" on="1"/>
        <pt x="688" y="1146" on="1"/>
        <pt x="639" y="1146" on="0"/>
        <pt x="421" y="1243" on="0"/>
        <pt x="358" y="1243" on="0"/>
        <pt x="272" y="1177" on="0"/>
        <pt x="236" y="1177" on="1"/>
        <pt x="180" y="1177" on="0"/>
      </contour>
      <contour>
        <pt x="1005" y="87" on="1"/>
        <pt x="1004" y="3" on="0"/>
        <pt x="860" y="3" on="1"/>
        <pt x="790" y="3" on="0"/>
        <pt x="686" y="60" on="0"/>
        <pt x="649" y="60" on="1"/>
        <pt x="647" y="60" on="0"/>
        <pt x="453" y="-14" on="0"/>
        <pt x="375" y="-14" on="1"/>
        <pt x="243" y="-14" on="0"/>
        <pt x="70" y="138" on="0"/>
        <pt x="70" y="288" on="1"/>
        <pt x="70" y="524" on="0"/>
        <pt x="384" y="590" on="1"/>
        <pt x="416" y="597" on="0"/>
        <pt x="589" y="615" on="0"/>
        <pt x="614" y="623" on="1"/>
        <pt x="673" y="642" on="0"/>
        <pt x="673" y="763" on="0"/>
        <pt x="597" y="837" on="0"/>
        <pt x="484" y="837" on="0"/>
        <pt x="274" y="751" on="0"/>
        <pt x="181" y="751" on="0"/>
        <pt x="133" y="809" on="0"/>
        <pt x="133" y="854" on="1"/>
        <pt x="133" y="922" on="0"/>
        <pt x="220" y="961" on="1"/>
        <pt x="350" y="1020" on="0"/>
        <pt x="493" y="1020" on="1"/>
        <pt x="544" y="1020" on="1"/>
        <pt x="659" y="1020" on="0"/>
        <pt x="827" y="944" on="0"/>
        <pt x="914" y="827" on="0"/>
        <pt x="940" y="673" on="0"/>
        <pt x="940" y="311" on="0"/>
        <pt x="956" y="238" on="0"/>
        <pt x="1005" y="140" on="0"/>
        <pt x="1005" y="107" on="1"/>
      </contour>
    </TTGlyph>
</ttFont>
